%TF.GenerationSoftware,KiCad,Pcbnew,10.0.5*%
%TF.CreationDate,2026-08-04T22:37:28+08:00*%
%TF.ProjectId,ZYNQ_PI_Zero,5a594e51-5f50-4495-9f5a-65726f2e6b69,rev?*%
%TF.SameCoordinates,Original*%
%TF.FileFunction,Soldermask,Bot*%
%TF.FilePolarity,Negative*%
%FSLAX46Y46*%
G04 Gerber Fmt 4.6, Leading zero omitted, Abs format (unit mm)*
G04 Created by KiCad (PCBNEW 10.0.5) date 2026-08-04 22:37:28*
%MOMM*%
%LPD*%
G01*
G04 APERTURE LIST*
G04 Aperture macros list*
%AMRoundRect*
0 Rectangle with rounded corners*
0 $1 Rounding radius*
0 $2 $3 $4 $5 $6 $7 $8 $9 X,Y pos of 4 corners*
0 Add a 4 corners polygon primitive as box body*
4,1,4,$2,$3,$4,$5,$6,$7,$8,$9,$2,$3,0*
0 Add four circle primitives for the rounded corners*
1,1,$1+$1,$2,$3*
1,1,$1+$1,$4,$5*
1,1,$1+$1,$6,$7*
1,1,$1+$1,$8,$9*
0 Add four rect primitives between the rounded corners*
20,1,$1+$1,$2,$3,$4,$5,0*
20,1,$1+$1,$4,$5,$6,$7,0*
20,1,$1+$1,$6,$7,$8,$9,0*
20,1,$1+$1,$8,$9,$2,$3,0*%
G04 Aperture macros list end*
%ADD10R,1.700000X1.700000*%
%ADD11C,1.700000*%
%ADD12C,5.400000*%
%ADD13C,1.000000*%
%ADD14O,3.300000X1.500000*%
%ADD15O,2.300000X1.500000*%
%ADD16C,0.650000*%
%ADD17O,2.100000X1.000000*%
%ADD18O,1.800000X1.000000*%
%ADD19R,1.350000X1.350000*%
%ADD20C,1.350000*%
%ADD21RoundRect,0.225000X-0.250000X0.225000X-0.250000X-0.225000X0.250000X-0.225000X0.250000X0.225000X0*%
%ADD22RoundRect,0.140000X-0.170000X0.140000X-0.170000X-0.140000X0.170000X-0.140000X0.170000X0.140000X0*%
%ADD23RoundRect,0.225000X-0.225000X-0.250000X0.225000X-0.250000X0.225000X0.250000X-0.225000X0.250000X0*%
%ADD24RoundRect,0.147500X0.147500X0.172500X-0.147500X0.172500X-0.147500X-0.172500X0.147500X-0.172500X0*%
%ADD25RoundRect,0.135000X0.135000X0.185000X-0.135000X0.185000X-0.135000X-0.185000X0.135000X-0.185000X0*%
%ADD26RoundRect,0.140000X-0.140000X-0.170000X0.140000X-0.170000X0.140000X0.170000X-0.140000X0.170000X0*%
%ADD27RoundRect,0.200000X-0.275000X0.200000X-0.275000X-0.200000X0.275000X-0.200000X0.275000X0.200000X0*%
%ADD28RoundRect,0.147500X-0.147500X-0.172500X0.147500X-0.172500X0.147500X0.172500X-0.147500X0.172500X0*%
%ADD29RoundRect,0.135000X-0.135000X-0.185000X0.135000X-0.185000X0.135000X0.185000X-0.135000X0.185000X0*%
%ADD30RoundRect,0.135000X-0.185000X0.135000X-0.185000X-0.135000X0.185000X-0.135000X0.185000X0.135000X0*%
%ADD31RoundRect,0.140000X0.140000X0.170000X-0.140000X0.170000X-0.140000X-0.170000X0.140000X-0.170000X0*%
%ADD32RoundRect,0.135000X0.185000X-0.135000X0.185000X0.135000X-0.185000X0.135000X-0.185000X-0.135000X0*%
%ADD33RoundRect,0.140000X0.170000X-0.140000X0.170000X0.140000X-0.170000X0.140000X-0.170000X-0.140000X0*%
G04 APERTURE END LIST*
D10*
%TO.C,J202*%
X163500000Y-82690000D03*
D11*
X163500000Y-85230000D03*
X163500000Y-87770000D03*
X163500000Y-90310000D03*
%TD*%
D12*
%TO.C,H103*%
X103900000Y-123200000D03*
%TD*%
%TO.C,H101*%
X176500000Y-123200000D03*
%TD*%
D10*
%TO.C,J501*%
X116075000Y-76075000D03*
D11*
X116075000Y-73535000D03*
X118615000Y-76075000D03*
X118615000Y-73535000D03*
X121155000Y-76075000D03*
X121155000Y-73535000D03*
X123695000Y-76075000D03*
X123695000Y-73535000D03*
X126235000Y-76075000D03*
X126235000Y-73535000D03*
X128775000Y-76075000D03*
X128775000Y-73535000D03*
X131315000Y-76075000D03*
X131315000Y-73535000D03*
X133855000Y-76075000D03*
X133855000Y-73535000D03*
X136395000Y-76075000D03*
X136395000Y-73535000D03*
X138935000Y-76075000D03*
X138935000Y-73535000D03*
X141475000Y-76075000D03*
X141475000Y-73535000D03*
X144015000Y-76075000D03*
X144015000Y-73535000D03*
X146555000Y-76075000D03*
X146555000Y-73535000D03*
X149095000Y-76075000D03*
X149095000Y-73535000D03*
X151635000Y-76075000D03*
X151635000Y-73535000D03*
X154175000Y-76075000D03*
X154175000Y-73535000D03*
X156715000Y-76075000D03*
X156715000Y-73535000D03*
X159255000Y-76075000D03*
X159255000Y-73535000D03*
X161795000Y-76075000D03*
X161795000Y-73535000D03*
X164335000Y-76075000D03*
X164335000Y-73535000D03*
%TD*%
D13*
%TO.C,J701*%
X105050000Y-82550000D03*
X105050000Y-90550000D03*
%TD*%
D12*
%TO.C,H102*%
X176500000Y-74000000D03*
%TD*%
D14*
%TO.C,J602*%
X170400000Y-107000000D03*
D15*
X176360000Y-107000000D03*
D14*
X170400000Y-92500000D03*
D15*
X176360000Y-92500000D03*
%TD*%
D12*
%TO.C,H104*%
X103900000Y-74000000D03*
%TD*%
D16*
%TO.C,J401*%
X106605000Y-102110000D03*
X106605000Y-107890000D03*
D17*
X107105000Y-100680000D03*
D18*
X102925000Y-100680000D03*
D17*
X107105000Y-109320000D03*
D18*
X102925000Y-109320000D03*
%TD*%
D19*
%TO.C,J203*%
X168500000Y-123250000D03*
D20*
X168500000Y-121250000D03*
X170500000Y-123250000D03*
X170500000Y-121250000D03*
X172500000Y-123250000D03*
X172500000Y-121250000D03*
%TD*%
D21*
%TO.C,C419*%
X152000000Y-107475000D03*
X152000000Y-109025000D03*
%TD*%
D22*
%TO.C,C315*%
X116700000Y-93820000D03*
X116700000Y-94780000D03*
%TD*%
D23*
%TO.C,C428*%
X149475000Y-112750000D03*
X151025000Y-112750000D03*
%TD*%
D24*
%TO.C,FB701*%
X112220000Y-88750000D03*
X111250000Y-88750000D03*
%TD*%
D25*
%TO.C,R701*%
X112250000Y-84750000D03*
X111230000Y-84750000D03*
%TD*%
D21*
%TO.C,C448*%
X146750000Y-113975000D03*
X146750000Y-115525000D03*
%TD*%
D22*
%TO.C,C445*%
X155400000Y-97920000D03*
X155400000Y-98880000D03*
%TD*%
D26*
%TO.C,C312*%
X116520000Y-105200000D03*
X117480000Y-105200000D03*
%TD*%
%TO.C,C314*%
X127520000Y-105200000D03*
X128480000Y-105200000D03*
%TD*%
D21*
%TO.C,C453*%
X153250000Y-107475000D03*
X153250000Y-109025000D03*
%TD*%
D27*
%TO.C,R901*%
X149800000Y-89675000D03*
X149800000Y-91325000D03*
%TD*%
D21*
%TO.C,C410*%
X145800000Y-92825000D03*
X145800000Y-94375000D03*
%TD*%
D26*
%TO.C,C430*%
X152920000Y-97200000D03*
X153880000Y-97200000D03*
%TD*%
D28*
%TO.C,FB401*%
X149015000Y-98000000D03*
X149985000Y-98000000D03*
%TD*%
D26*
%TO.C,C442*%
X155320000Y-103600000D03*
X156280000Y-103600000D03*
%TD*%
D29*
%TO.C,R307*%
X141980000Y-100100000D03*
X143000000Y-100100000D03*
%TD*%
D26*
%TO.C,C422*%
X151220000Y-101300000D03*
X152180000Y-101300000D03*
%TD*%
D23*
%TO.C,C423*%
X149475000Y-114250000D03*
X151025000Y-114250000D03*
%TD*%
D30*
%TO.C,R328*%
X145800000Y-100390000D03*
X145800000Y-101410000D03*
%TD*%
D31*
%TO.C,C447*%
X147880000Y-106000000D03*
X146920000Y-106000000D03*
%TD*%
D32*
%TO.C,R329*%
X146500000Y-99710000D03*
X146500000Y-98690000D03*
%TD*%
D25*
%TO.C,R204*%
X149110000Y-94100000D03*
X148090000Y-94100000D03*
%TD*%
D22*
%TO.C,C317*%
X116700000Y-97220000D03*
X116700000Y-98180000D03*
%TD*%
D23*
%TO.C,C425*%
X149475000Y-111500000D03*
X151025000Y-111500000D03*
%TD*%
D25*
%TO.C,R301*%
X117510000Y-106500000D03*
X116490000Y-106500000D03*
%TD*%
D31*
%TO.C,C446*%
X154680000Y-95600000D03*
X153720000Y-95600000D03*
%TD*%
D21*
%TO.C,C456*%
X154500000Y-107475000D03*
X154500000Y-109025000D03*
%TD*%
D33*
%TO.C,C458*%
X151400000Y-98080000D03*
X151400000Y-97120000D03*
%TD*%
D26*
%TO.C,C449*%
X152920000Y-104400000D03*
X153880000Y-104400000D03*
%TD*%
D29*
%TO.C,R205*%
X147990000Y-102100000D03*
X149010000Y-102100000D03*
%TD*%
D26*
%TO.C,C459*%
X147320000Y-102900000D03*
X148280000Y-102900000D03*
%TD*%
D29*
%TO.C,R303*%
X145690000Y-104400000D03*
X146710000Y-104400000D03*
%TD*%
D23*
%TO.C,C441*%
X142225000Y-101100000D03*
X143775000Y-101100000D03*
%TD*%
D31*
%TO.C,C309*%
X118480000Y-92100000D03*
X117520000Y-92100000D03*
%TD*%
D22*
%TO.C,C461*%
X152300000Y-99520000D03*
X152300000Y-100480000D03*
%TD*%
%TO.C,C451*%
X143790000Y-99220000D03*
X143790000Y-100180000D03*
%TD*%
D29*
%TO.C,R305*%
X116490000Y-101500000D03*
X117510000Y-101500000D03*
%TD*%
D33*
%TO.C,C429*%
X153000000Y-102880000D03*
X153000000Y-101920000D03*
%TD*%
D31*
%TO.C,C310*%
X120280000Y-92100000D03*
X119320000Y-92100000D03*
%TD*%
D26*
%TO.C,C318*%
X127520000Y-103600000D03*
X128480000Y-103600000D03*
%TD*%
D28*
%TO.C,FB201*%
X150515000Y-99700000D03*
X151485000Y-99700000D03*
%TD*%
D26*
%TO.C,C460*%
X151220000Y-102100000D03*
X152180000Y-102100000D03*
%TD*%
D31*
%TO.C,C432*%
X149080000Y-99500000D03*
X148120000Y-99500000D03*
%TD*%
D22*
%TO.C,C450*%
X156200000Y-100320000D03*
X156200000Y-101280000D03*
%TD*%
D26*
%TO.C,C201*%
X150520000Y-98900000D03*
X151480000Y-98900000D03*
%TD*%
%TO.C,C457*%
X149820000Y-100500000D03*
X150780000Y-100500000D03*
%TD*%
%TO.C,C455*%
X147220000Y-97200000D03*
X148180000Y-97200000D03*
%TD*%
D25*
%TO.C,R703*%
X112250000Y-87750000D03*
X111230000Y-87750000D03*
%TD*%
D33*
%TO.C,C307*%
X116700000Y-93080000D03*
X116700000Y-92120000D03*
%TD*%
%TO.C,C454*%
X153000000Y-98880000D03*
X153000000Y-97920000D03*
%TD*%
D26*
%TO.C,C313*%
X147220000Y-98000000D03*
X148180000Y-98000000D03*
%TD*%
D29*
%TO.C,R306*%
X141980000Y-99300000D03*
X143000000Y-99300000D03*
%TD*%
D33*
%TO.C,C702*%
X114500000Y-85730000D03*
X114500000Y-84770000D03*
%TD*%
D25*
%TO.C,R304*%
X117510000Y-102750000D03*
X116490000Y-102750000D03*
%TD*%
D33*
%TO.C,C316*%
X116700000Y-96480000D03*
X116700000Y-95520000D03*
%TD*%
D29*
%TO.C,R302*%
X127490000Y-102400000D03*
X128510000Y-102400000D03*
%TD*%
D33*
%TO.C,C462*%
X149000000Y-101280000D03*
X149000000Y-100320000D03*
%TD*%
D26*
%TO.C,C311*%
X116520000Y-104000000D03*
X117480000Y-104000000D03*
%TD*%
%TO.C,C413*%
X149020000Y-97200000D03*
X149980000Y-97200000D03*
%TD*%
D21*
%TO.C,C444*%
X148000000Y-113975000D03*
X148000000Y-115525000D03*
%TD*%
D26*
%TO.C,C202*%
X147300000Y-101200000D03*
X148260000Y-101200000D03*
%TD*%
D25*
%TO.C,R704*%
X112250000Y-86750000D03*
X111230000Y-86750000D03*
%TD*%
%TO.C,R705*%
X112250000Y-85750000D03*
X111230000Y-85750000D03*
%TD*%
%TO.C,R702*%
X112250000Y-83750000D03*
X111230000Y-83750000D03*
%TD*%
M02*
