%TF.GenerationSoftware,KiCad,Pcbnew,10.0.5*%
%TF.CreationDate,2026-08-04T22:37:28+08:00*%
%TF.ProjectId,ZYNQ_PI_Zero,5a594e51-5f50-4495-9f5a-65726f2e6b69,rev?*%
%TF.SameCoordinates,Original*%
%TF.FileFunction,Soldermask,Top*%
%TF.FilePolarity,Negative*%
%FSLAX46Y46*%
G04 Gerber Fmt 4.6, Leading zero omitted, Abs format (unit mm)*
G04 Created by KiCad (PCBNEW 10.0.5) date 2026-08-04 22:37:28*
%MOMM*%
%LPD*%
G01*
G04 APERTURE LIST*
G04 Aperture macros list*
%AMRoundRect*
0 Rectangle with rounded corners*
0 $1 Rounding radius*
0 $2 $3 $4 $5 $6 $7 $8 $9 X,Y pos of 4 corners*
0 Add a 4 corners polygon primitive as box body*
4,1,4,$2,$3,$4,$5,$6,$7,$8,$9,$2,$3,0*
0 Add four circle primitives for the rounded corners*
1,1,$1+$1,$2,$3*
1,1,$1+$1,$4,$5*
1,1,$1+$1,$6,$7*
1,1,$1+$1,$8,$9*
0 Add four rect primitives between the rounded corners*
20,1,$1+$1,$2,$3,$4,$5,0*
20,1,$1+$1,$4,$5,$6,$7,0*
20,1,$1+$1,$6,$7,$8,$9,0*
20,1,$1+$1,$8,$9,$2,$3,0*%
G04 Aperture macros list end*
%ADD10R,1.700000X1.700000*%
%ADD11C,1.700000*%
%ADD12RoundRect,0.135000X-0.135000X-0.185000X0.135000X-0.185000X0.135000X0.185000X-0.135000X0.185000X0*%
%ADD13RoundRect,0.140000X0.170000X-0.140000X0.170000X0.140000X-0.170000X0.140000X-0.170000X-0.140000X0*%
%ADD14RoundRect,0.140000X-0.140000X-0.170000X0.140000X-0.170000X0.140000X0.170000X-0.140000X0.170000X0*%
%ADD15RoundRect,0.225000X-0.250000X0.225000X-0.250000X-0.225000X0.250000X-0.225000X0.250000X0.225000X0*%
%ADD16RoundRect,0.150000X-0.587500X-0.150000X0.587500X-0.150000X0.587500X0.150000X-0.587500X0.150000X0*%
%ADD17RoundRect,0.135000X-0.185000X0.135000X-0.185000X-0.135000X0.185000X-0.135000X0.185000X0.135000X0*%
%ADD18R,0.800000X0.300000*%
%ADD19R,0.300000X0.800000*%
%ADD20R,1.750000X1.750000*%
%ADD21RoundRect,0.225000X0.225000X0.250000X-0.225000X0.250000X-0.225000X-0.250000X0.225000X-0.250000X0*%
%ADD22C,0.634000*%
%ADD23RoundRect,0.200000X-0.200000X-0.275000X0.200000X-0.275000X0.200000X0.275000X-0.200000X0.275000X0*%
%ADD24RoundRect,0.200000X-0.275000X0.200000X-0.275000X-0.200000X0.275000X-0.200000X0.275000X0.200000X0*%
%ADD25RoundRect,0.102000X-0.279400X0.660400X-0.279400X-0.660400X0.279400X-0.660400X0.279400X0.660400X0*%
%ADD26RoundRect,0.150000X0.150000X-0.587500X0.150000X0.587500X-0.150000X0.587500X-0.150000X-0.587500X0*%
%ADD27RoundRect,0.102000X-1.250000X0.750000X-1.250000X-0.750000X1.250000X-0.750000X1.250000X0.750000X0*%
%ADD28RoundRect,0.135000X0.135000X0.185000X-0.135000X0.185000X-0.135000X-0.185000X0.135000X-0.185000X0*%
%ADD29RoundRect,0.250000X-1.000000X-0.650000X1.000000X-0.650000X1.000000X0.650000X-1.000000X0.650000X0*%
%ADD30RoundRect,0.200000X0.200000X0.275000X-0.200000X0.275000X-0.200000X-0.275000X0.200000X-0.275000X0*%
%ADD31C,0.500000*%
%ADD32RoundRect,0.075000X0.200000X-0.075000X0.200000X0.075000X-0.200000X0.075000X-0.200000X-0.075000X0*%
%ADD33C,5.400000*%
%ADD34R,1.000000X1.250000*%
%ADD35RoundRect,0.218750X-0.218750X-0.256250X0.218750X-0.256250X0.218750X0.256250X-0.218750X0.256250X0*%
%ADD36RoundRect,0.162500X-0.650000X-0.162500X0.650000X-0.162500X0.650000X0.162500X-0.650000X0.162500X0*%
%ADD37C,1.000000*%
%ADD38R,1.600000X0.700000*%
%ADD39R,1.500000X1.200000*%
%ADD40R,2.200000X1.200000*%
%ADD41R,1.500000X1.600000*%
%ADD42RoundRect,0.200000X0.275000X-0.200000X0.275000X0.200000X-0.275000X0.200000X-0.275000X-0.200000X0*%
%ADD43RoundRect,0.225000X-0.225000X-0.250000X0.225000X-0.250000X0.225000X0.250000X-0.225000X0.250000X0*%
%ADD44R,2.600000X0.300000*%
%ADD45O,3.300000X1.500000*%
%ADD46O,2.300000X1.500000*%
%ADD47RoundRect,0.135000X0.185000X-0.135000X0.185000X0.135000X-0.185000X0.135000X-0.185000X-0.135000X0*%
%ADD48RoundRect,0.250000X0.650000X-0.325000X0.650000X0.325000X-0.650000X0.325000X-0.650000X-0.325000X0*%
%ADD49RoundRect,0.243750X0.456250X-0.243750X0.456250X0.243750X-0.456250X0.243750X-0.456250X-0.243750X0*%
%ADD50RoundRect,0.140000X0.140000X0.170000X-0.140000X0.170000X-0.140000X-0.170000X0.140000X-0.170000X0*%
%ADD51RoundRect,0.250000X1.000000X0.650000X-1.000000X0.650000X-1.000000X-0.650000X1.000000X-0.650000X0*%
%ADD52RoundRect,0.250000X-0.450000X-0.350000X0.450000X-0.350000X0.450000X0.350000X-0.450000X0.350000X0*%
%ADD53RoundRect,0.250000X-0.650000X0.325000X-0.650000X-0.325000X0.650000X-0.325000X0.650000X0.325000X0*%
%ADD54C,0.650000*%
%ADD55RoundRect,0.150000X-0.425000X0.150000X-0.425000X-0.150000X0.425000X-0.150000X0.425000X0.150000X0*%
%ADD56RoundRect,0.075000X-0.500000X0.075000X-0.500000X-0.075000X0.500000X-0.075000X0.500000X0.075000X0*%
%ADD57O,2.100000X1.000000*%
%ADD58O,1.800000X1.000000*%
%ADD59RoundRect,0.218750X0.218750X0.256250X-0.218750X0.256250X-0.218750X-0.256250X0.218750X-0.256250X0*%
%ADD60R,1.350000X1.350000*%
%ADD61C,1.350000*%
G04 APERTURE END LIST*
D10*
%TO.C,J202*%
X163500000Y-82690000D03*
D11*
X163500000Y-85230000D03*
X163500000Y-87770000D03*
X163500000Y-90310000D03*
%TD*%
D12*
%TO.C,R214*%
X159490000Y-84500000D03*
X160510000Y-84500000D03*
%TD*%
D13*
%TO.C,C403*%
X127050000Y-118980000D03*
X127050000Y-118020000D03*
%TD*%
%TO.C,C414*%
X139050000Y-118980000D03*
X139050000Y-118020000D03*
%TD*%
D12*
%TO.C,R201*%
X112240000Y-113687500D03*
X113260000Y-113687500D03*
%TD*%
D14*
%TO.C,C302*%
X115720000Y-98100000D03*
X116680000Y-98100000D03*
%TD*%
D15*
%TO.C,C401*%
X126550000Y-121475000D03*
X126550000Y-123025000D03*
%TD*%
D16*
%TO.C,Q602*%
X169452500Y-113300000D03*
X169452500Y-115200000D03*
X171327500Y-114250000D03*
%TD*%
D17*
%TO.C,R210*%
X156500000Y-80740000D03*
X156500000Y-81760000D03*
%TD*%
D18*
%TO.C,U401*%
X131300000Y-120500000D03*
X131300000Y-120000000D03*
X131300000Y-119500000D03*
X131300000Y-119000000D03*
D19*
X130550000Y-118250000D03*
X130050000Y-118250000D03*
X129550000Y-118250000D03*
X129050000Y-118250000D03*
D18*
X128300000Y-119000000D03*
X128300000Y-119500000D03*
X128300000Y-120000000D03*
X128300000Y-120500000D03*
D19*
X129050000Y-121250000D03*
X129550000Y-121250000D03*
X130050000Y-121250000D03*
X130550000Y-121250000D03*
D20*
X129800000Y-119750000D03*
%TD*%
D21*
%TO.C,C409*%
X153275000Y-116750000D03*
X151725000Y-116750000D03*
%TD*%
D22*
%TO.C,U301*%
X119100000Y-94000000D03*
X119900000Y-94000000D03*
X120700000Y-94000000D03*
X123900000Y-94000000D03*
X124700000Y-94000000D03*
X125500000Y-94000000D03*
X119100000Y-94800000D03*
X119900000Y-94800000D03*
X120700000Y-94800000D03*
X123900000Y-94800000D03*
X124700000Y-94800000D03*
X125500000Y-94800000D03*
X119100000Y-95600000D03*
X119900000Y-95600000D03*
X120700000Y-95600000D03*
X123900000Y-95600000D03*
X124700000Y-95600000D03*
X125500000Y-95600000D03*
X119100000Y-96400000D03*
X119900000Y-96400000D03*
X120700000Y-96400000D03*
X123900000Y-96400000D03*
X124700000Y-96400000D03*
X125500000Y-96400000D03*
X119100000Y-97200000D03*
X119900000Y-97200000D03*
X120700000Y-97200000D03*
X123900000Y-97200000D03*
X124700000Y-97200000D03*
X125500000Y-97200000D03*
X119100000Y-98000000D03*
X119900000Y-98000000D03*
X120700000Y-98000000D03*
X123900000Y-98000000D03*
X124700000Y-98000000D03*
X125500000Y-98000000D03*
X119100000Y-98800000D03*
X119900000Y-98800000D03*
X120700000Y-98800000D03*
X123900000Y-98800000D03*
X124700000Y-98800000D03*
X125500000Y-98800000D03*
X119100000Y-99600000D03*
X119900000Y-99600000D03*
X120700000Y-99600000D03*
X123900000Y-99600000D03*
X124700000Y-99600000D03*
X125500000Y-99600000D03*
X119100000Y-100400000D03*
X119900000Y-100400000D03*
X120700000Y-100400000D03*
X123900000Y-100400000D03*
X124700000Y-100400000D03*
X125500000Y-100400000D03*
X119100000Y-101200000D03*
X119900000Y-101200000D03*
X120700000Y-101200000D03*
X123900000Y-101200000D03*
X124700000Y-101200000D03*
X125500000Y-101200000D03*
X119100000Y-102000000D03*
X119900000Y-102000000D03*
X120700000Y-102000000D03*
X123900000Y-102000000D03*
X124700000Y-102000000D03*
X125500000Y-102000000D03*
X119100000Y-102800000D03*
X119900000Y-102800000D03*
X120700000Y-102800000D03*
X123900000Y-102800000D03*
X124700000Y-102800000D03*
X125500000Y-102800000D03*
X119100000Y-103600000D03*
X119900000Y-103600000D03*
X120700000Y-103600000D03*
X123900000Y-103600000D03*
X124700000Y-103600000D03*
X125500000Y-103600000D03*
X119100000Y-104400000D03*
X119900000Y-104400000D03*
X120700000Y-104400000D03*
X123900000Y-104400000D03*
X124700000Y-104400000D03*
X125500000Y-104400000D03*
X119100000Y-105200000D03*
X119900000Y-105200000D03*
X120700000Y-105200000D03*
X123900000Y-105200000D03*
X124700000Y-105200000D03*
X125500000Y-105200000D03*
X119100000Y-106000000D03*
X119900000Y-106000000D03*
X120700000Y-106000000D03*
X123900000Y-106000000D03*
X124700000Y-106000000D03*
X125500000Y-106000000D03*
%TD*%
D15*
%TO.C,C437*%
X155000000Y-114475000D03*
X155000000Y-116025000D03*
%TD*%
D21*
%TO.C,C426*%
X143075000Y-123000000D03*
X141525000Y-123000000D03*
%TD*%
D23*
%TO.C,R402*%
X104175000Y-99250000D03*
X105825000Y-99250000D03*
%TD*%
D17*
%TO.C,R610*%
X176800000Y-109990000D03*
X176800000Y-111010000D03*
%TD*%
D24*
%TO.C,R207*%
X154400000Y-80425000D03*
X154400000Y-82075000D03*
%TD*%
D12*
%TO.C,R606*%
X171880000Y-113000000D03*
X172900000Y-113000000D03*
%TD*%
D25*
%TO.C,U403*%
X153439800Y-118831600D03*
X152500000Y-118831600D03*
X151560200Y-118831600D03*
X151560200Y-121168400D03*
X153439800Y-121168400D03*
%TD*%
D26*
%TO.C,Q201*%
X110550000Y-117437500D03*
X112450000Y-117437500D03*
X111500000Y-115562500D03*
%TD*%
D27*
%TO.C,L403*%
X146800000Y-119400000D03*
X146800000Y-123100000D03*
%TD*%
D28*
%TO.C,R601*%
X167900000Y-111750000D03*
X166880000Y-111750000D03*
%TD*%
D17*
%TO.C,R209*%
X157500000Y-80740000D03*
X157500000Y-81760000D03*
%TD*%
D29*
%TO.C,D602*%
X170650000Y-88500000D03*
X174650000Y-88500000D03*
%TD*%
D30*
%TO.C,R206*%
X150575000Y-114500000D03*
X148925000Y-114500000D03*
%TD*%
D31*
%TO.C,U201*%
X145400000Y-94400000D03*
X146200000Y-94400000D03*
X147000000Y-94400000D03*
X147800000Y-94400000D03*
X148600000Y-94400000D03*
X149400000Y-94400000D03*
X150200000Y-94400000D03*
X151000000Y-94400000D03*
X151800000Y-94400000D03*
X152600000Y-94400000D03*
X153400000Y-94400000D03*
X154200000Y-94400000D03*
X155000000Y-94400000D03*
X155800000Y-94400000D03*
X156600000Y-94400000D03*
X145400000Y-95200000D03*
X146200000Y-95200000D03*
X147000000Y-95200000D03*
X147800000Y-95200000D03*
X148600000Y-95200000D03*
X149400000Y-95200000D03*
X150200000Y-95200000D03*
X151000000Y-95200000D03*
X151800000Y-95200000D03*
X152600000Y-95200000D03*
X153400000Y-95200000D03*
X154200000Y-95200000D03*
X155000000Y-95200000D03*
X155800000Y-95200000D03*
X156600000Y-95200000D03*
X145400000Y-96000000D03*
X146200000Y-96000000D03*
X147000000Y-96000000D03*
X147800000Y-96000000D03*
X148600000Y-96000000D03*
X149400000Y-96000000D03*
X150200000Y-96000000D03*
X151000000Y-96000000D03*
X151800000Y-96000000D03*
X152600000Y-96000000D03*
X153400000Y-96000000D03*
X154200000Y-96000000D03*
X155000000Y-96000000D03*
X155800000Y-96000000D03*
X156600000Y-96000000D03*
X145400000Y-96800000D03*
X146200000Y-96800000D03*
X147000000Y-96800000D03*
X147800000Y-96800000D03*
X148600000Y-96800000D03*
X149400000Y-96800000D03*
X150200000Y-96800000D03*
X151000000Y-96800000D03*
X151800000Y-96800000D03*
X152600000Y-96800000D03*
X153400000Y-96800000D03*
X154200000Y-96800000D03*
X155000000Y-96800000D03*
X155800000Y-96800000D03*
X156600000Y-96800000D03*
X145400000Y-97600000D03*
X146200000Y-97600000D03*
X147000000Y-97600000D03*
X147800000Y-97600000D03*
X148600000Y-97600000D03*
X149400000Y-97600000D03*
X150200000Y-97600000D03*
X151000000Y-97600000D03*
X151800000Y-97600000D03*
X152600000Y-97600000D03*
X153400000Y-97600000D03*
X154200000Y-97600000D03*
X155000000Y-97600000D03*
X155800000Y-97600000D03*
X156600000Y-97600000D03*
X145400000Y-98400000D03*
X146200000Y-98400000D03*
X147000000Y-98400000D03*
X147800000Y-98400000D03*
X148600000Y-98400000D03*
X149400000Y-98400000D03*
X150200000Y-98400000D03*
X151000000Y-98400000D03*
X151800000Y-98400000D03*
X152600000Y-98400000D03*
X153400000Y-98400000D03*
X154200000Y-98400000D03*
X155000000Y-98400000D03*
X155800000Y-98400000D03*
X156600000Y-98400000D03*
X145400000Y-99200000D03*
X146200000Y-99200000D03*
X147000000Y-99200000D03*
X147800000Y-99200000D03*
X148600000Y-99200000D03*
X149400000Y-99200000D03*
X150200000Y-99200000D03*
X151000000Y-99200000D03*
X151800000Y-99200000D03*
X152600000Y-99200000D03*
X153400000Y-99200000D03*
X154200000Y-99200000D03*
X155000000Y-99200000D03*
X155800000Y-99200000D03*
X156600000Y-99200000D03*
X145400000Y-100000000D03*
X146200000Y-100000000D03*
X147000000Y-100000000D03*
X147800000Y-100000000D03*
X148600000Y-100000000D03*
X149400000Y-100000000D03*
X150200000Y-100000000D03*
X151000000Y-100000000D03*
X151800000Y-100000000D03*
X152600000Y-100000000D03*
X153400000Y-100000000D03*
X154200000Y-100000000D03*
X155000000Y-100000000D03*
X155800000Y-100000000D03*
X156600000Y-100000000D03*
X145400000Y-100800000D03*
X146200000Y-100800000D03*
X147000000Y-100800000D03*
X147800000Y-100800000D03*
X148600000Y-100800000D03*
X149400000Y-100800000D03*
X150200000Y-100800000D03*
X151000000Y-100800000D03*
X151800000Y-100800000D03*
X152600000Y-100800000D03*
X153400000Y-100800000D03*
X154200000Y-100800000D03*
X155000000Y-100800000D03*
X155800000Y-100800000D03*
X156600000Y-100800000D03*
X145400000Y-101600000D03*
X146200000Y-101600000D03*
X147000000Y-101600000D03*
X147800000Y-101600000D03*
X148600000Y-101600000D03*
X149400000Y-101600000D03*
X150200000Y-101600000D03*
X151000000Y-101600000D03*
X151800000Y-101600000D03*
X152600000Y-101600000D03*
X153400000Y-101600000D03*
X154200000Y-101600000D03*
X155000000Y-101600000D03*
X155800000Y-101600000D03*
X156600000Y-101600000D03*
X145400000Y-102400000D03*
X146200000Y-102400000D03*
X147000000Y-102400000D03*
X147800000Y-102400000D03*
X148600000Y-102400000D03*
X149400000Y-102400000D03*
X150200000Y-102400000D03*
X151000000Y-102400000D03*
X151800000Y-102400000D03*
X152600000Y-102400000D03*
X153400000Y-102400000D03*
X154200000Y-102400000D03*
X155000000Y-102400000D03*
X155800000Y-102400000D03*
X156600000Y-102400000D03*
X145400000Y-103200000D03*
X146200000Y-103200000D03*
X147000000Y-103200000D03*
X147800000Y-103200000D03*
X148600000Y-103200000D03*
X149400000Y-103200000D03*
X150200000Y-103200000D03*
X151000000Y-103200000D03*
X151800000Y-103200000D03*
X152600000Y-103200000D03*
X153400000Y-103200000D03*
X154200000Y-103200000D03*
X155000000Y-103200000D03*
X155800000Y-103200000D03*
X156600000Y-103200000D03*
X145400000Y-104000000D03*
X146200000Y-104000000D03*
X147000000Y-104000000D03*
X147800000Y-104000000D03*
X148600000Y-104000000D03*
X149400000Y-104000000D03*
X150200000Y-104000000D03*
X151000000Y-104000000D03*
X151800000Y-104000000D03*
X152600000Y-104000000D03*
X153400000Y-104000000D03*
X154200000Y-104000000D03*
X155000000Y-104000000D03*
X155800000Y-104000000D03*
X156600000Y-104000000D03*
X145400000Y-104800000D03*
X146200000Y-104800000D03*
X147000000Y-104800000D03*
X147800000Y-104800000D03*
X148600000Y-104800000D03*
X149400000Y-104800000D03*
X150200000Y-104800000D03*
X151000000Y-104800000D03*
X151800000Y-104800000D03*
X152600000Y-104800000D03*
X153400000Y-104800000D03*
X154200000Y-104800000D03*
X155000000Y-104800000D03*
X155800000Y-104800000D03*
X156600000Y-104800000D03*
X145400000Y-105600000D03*
X146200000Y-105600000D03*
X147000000Y-105600000D03*
X147800000Y-105600000D03*
X148600000Y-105600000D03*
X149400000Y-105600000D03*
X150200000Y-105600000D03*
X151000000Y-105600000D03*
X151800000Y-105600000D03*
X152600000Y-105600000D03*
X153400000Y-105600000D03*
X154200000Y-105600000D03*
X155000000Y-105600000D03*
X155800000Y-105600000D03*
X156600000Y-105600000D03*
%TD*%
D32*
%TO.C,U602*%
X165135000Y-97500000D03*
X165135000Y-97000000D03*
X165135000Y-96500000D03*
X165135000Y-96000000D03*
X165135000Y-95500000D03*
X164365000Y-95500000D03*
X164365000Y-96000000D03*
X164365000Y-96500000D03*
X164365000Y-97000000D03*
X164365000Y-97500000D03*
%TD*%
D18*
%TO.C,U402*%
X119300000Y-120500000D03*
X119300000Y-120000000D03*
X119300000Y-119500000D03*
X119300000Y-119000000D03*
D19*
X118550000Y-118250000D03*
X118050000Y-118250000D03*
X117550000Y-118250000D03*
X117050000Y-118250000D03*
D18*
X116300000Y-119000000D03*
X116300000Y-119500000D03*
X116300000Y-120000000D03*
X116300000Y-120500000D03*
D19*
X117050000Y-121250000D03*
X117550000Y-121250000D03*
X118050000Y-121250000D03*
X118550000Y-121250000D03*
D20*
X117800000Y-119750000D03*
%TD*%
D27*
%TO.C,L401*%
X134800000Y-119400000D03*
X134800000Y-123100000D03*
%TD*%
D21*
%TO.C,C701*%
X106025000Y-96750000D03*
X104475000Y-96750000D03*
%TD*%
D28*
%TO.C,R212*%
X160510000Y-89500000D03*
X159490000Y-89500000D03*
%TD*%
D33*
%TO.C,H103*%
X103900000Y-123200000D03*
%TD*%
D34*
%TO.C,SW901*%
X161750000Y-124625000D03*
X161750000Y-116875000D03*
%TD*%
D18*
%TO.C,U405*%
X143300000Y-120500000D03*
X143300000Y-120000000D03*
X143300000Y-119500000D03*
X143300000Y-119000000D03*
D19*
X142550000Y-118250000D03*
X142050000Y-118250000D03*
X141550000Y-118250000D03*
X141050000Y-118250000D03*
D18*
X140300000Y-119000000D03*
X140300000Y-119500000D03*
X140300000Y-120000000D03*
X140300000Y-120500000D03*
D19*
X141050000Y-121250000D03*
X141550000Y-121250000D03*
X142050000Y-121250000D03*
X142550000Y-121250000D03*
D20*
X141800000Y-119750000D03*
%TD*%
D15*
%TO.C,C402*%
X114550000Y-121475000D03*
X114550000Y-123025000D03*
%TD*%
D26*
%TO.C,Q603*%
X174450000Y-114637500D03*
X176350000Y-114637500D03*
X175400000Y-112762500D03*
%TD*%
D33*
%TO.C,H101*%
X176500000Y-123200000D03*
%TD*%
D10*
%TO.C,J501*%
X116075000Y-76075000D03*
D11*
X116075000Y-73535000D03*
X118615000Y-76075000D03*
X118615000Y-73535000D03*
X121155000Y-76075000D03*
X121155000Y-73535000D03*
X123695000Y-76075000D03*
X123695000Y-73535000D03*
X126235000Y-76075000D03*
X126235000Y-73535000D03*
X128775000Y-76075000D03*
X128775000Y-73535000D03*
X131315000Y-76075000D03*
X131315000Y-73535000D03*
X133855000Y-76075000D03*
X133855000Y-73535000D03*
X136395000Y-76075000D03*
X136395000Y-73535000D03*
X138935000Y-76075000D03*
X138935000Y-73535000D03*
X141475000Y-76075000D03*
X141475000Y-73535000D03*
X144015000Y-76075000D03*
X144015000Y-73535000D03*
X146555000Y-76075000D03*
X146555000Y-73535000D03*
X149095000Y-76075000D03*
X149095000Y-73535000D03*
X151635000Y-76075000D03*
X151635000Y-73535000D03*
X154175000Y-76075000D03*
X154175000Y-73535000D03*
X156715000Y-76075000D03*
X156715000Y-73535000D03*
X159255000Y-76075000D03*
X159255000Y-73535000D03*
X161795000Y-76075000D03*
X161795000Y-73535000D03*
X164335000Y-76075000D03*
X164335000Y-73535000D03*
%TD*%
D23*
%TO.C,R401*%
X104425000Y-110750000D03*
X106075000Y-110750000D03*
%TD*%
D35*
%TO.C,D202*%
X151912500Y-114500000D03*
X153487500Y-114500000D03*
%TD*%
D28*
%TO.C,R908*%
X125260000Y-84000000D03*
X124240000Y-84000000D03*
%TD*%
%TO.C,R404*%
X115060000Y-120000000D03*
X114040000Y-120000000D03*
%TD*%
D36*
%TO.C,U202*%
X149912500Y-83845000D03*
X149912500Y-85115000D03*
X149912500Y-86385000D03*
X149912500Y-87655000D03*
X157087500Y-87655000D03*
X157087500Y-86385000D03*
X157087500Y-85115000D03*
X157087500Y-83845000D03*
%TD*%
D37*
%TO.C,J701*%
X105050000Y-82550000D03*
X105050000Y-90550000D03*
D38*
X116050000Y-89750000D03*
X116050000Y-88650000D03*
X116050000Y-87550000D03*
X116050000Y-86450000D03*
X116050000Y-85350000D03*
X116050000Y-84250000D03*
X116050000Y-83150000D03*
X116050000Y-82050000D03*
X116050000Y-80950000D03*
D39*
X115050000Y-79750000D03*
D40*
X105450000Y-79750000D03*
D41*
X115050000Y-94350000D03*
D40*
X105450000Y-95250000D03*
%TD*%
D42*
%TO.C,R905*%
X161000000Y-115325000D03*
X161000000Y-113675000D03*
%TD*%
D24*
%TO.C,R609*%
X174390000Y-109675000D03*
X174390000Y-111325000D03*
%TD*%
D12*
%TO.C,R604*%
X166880000Y-114250000D03*
X167900000Y-114250000D03*
%TD*%
D21*
%TO.C,C408*%
X119075000Y-123000000D03*
X117525000Y-123000000D03*
%TD*%
D43*
%TO.C,C452*%
X147225000Y-116750000D03*
X148775000Y-116750000D03*
%TD*%
D17*
%TO.C,R410*%
X145300000Y-115990000D03*
X145300000Y-117010000D03*
%TD*%
D21*
%TO.C,C418*%
X153275000Y-123250000D03*
X151725000Y-123250000D03*
%TD*%
D17*
%TO.C,R208*%
X155500000Y-80740000D03*
X155500000Y-81760000D03*
%TD*%
D33*
%TO.C,H102*%
X176500000Y-74000000D03*
%TD*%
D28*
%TO.C,R602*%
X167900000Y-113250000D03*
X166880000Y-113250000D03*
%TD*%
D16*
%TO.C,Q601*%
X169452500Y-109800000D03*
X169452500Y-111700000D03*
X171327500Y-110750000D03*
%TD*%
D28*
%TO.C,R409*%
X139060000Y-120000000D03*
X138040000Y-120000000D03*
%TD*%
D44*
%TO.C,J602*%
X169640000Y-95250000D03*
X169640000Y-95750000D03*
X169640000Y-96250000D03*
X169640000Y-96750000D03*
X169640000Y-97250000D03*
X169640000Y-97750000D03*
X169640000Y-98250000D03*
X169640000Y-98750000D03*
X169640000Y-99250000D03*
X169640000Y-99750000D03*
X169640000Y-100250000D03*
X169640000Y-100750000D03*
X169640000Y-101250000D03*
X169640000Y-101750000D03*
X169640000Y-102250000D03*
X169640000Y-102750000D03*
X169640000Y-103250000D03*
X169640000Y-103750000D03*
X169640000Y-104250000D03*
D45*
X170400000Y-107000000D03*
D46*
X176360000Y-107000000D03*
D45*
X170400000Y-92500000D03*
D46*
X176360000Y-92500000D03*
%TD*%
D28*
%TO.C,R211*%
X160510000Y-85500000D03*
X159490000Y-85500000D03*
%TD*%
D47*
%TO.C,R406*%
X132050000Y-117010000D03*
X132050000Y-115990000D03*
%TD*%
D28*
%TO.C,R403*%
X127060000Y-120000000D03*
X126040000Y-120000000D03*
%TD*%
D32*
%TO.C,U601*%
X165135000Y-100500000D03*
X165135000Y-100000000D03*
X165135000Y-99500000D03*
X165135000Y-99000000D03*
X165135000Y-98500000D03*
X164365000Y-98500000D03*
X164365000Y-99000000D03*
X164365000Y-99500000D03*
X164365000Y-100000000D03*
X164365000Y-100500000D03*
%TD*%
D17*
%TO.C,R407*%
X121300000Y-115990000D03*
X121300000Y-117010000D03*
%TD*%
D28*
%TO.C,R903*%
X160510000Y-88500000D03*
X159490000Y-88500000D03*
%TD*%
%TO.C,R215*%
X160510000Y-87520000D03*
X159490000Y-87520000D03*
%TD*%
D27*
%TO.C,L402*%
X122800000Y-119400000D03*
X122800000Y-123100000D03*
%TD*%
D13*
%TO.C,C203*%
X158500000Y-81730000D03*
X158500000Y-80770000D03*
%TD*%
D48*
%TO.C,C434*%
X157500000Y-121225000D03*
X157500000Y-118275000D03*
%TD*%
D49*
%TO.C,F601*%
X177150000Y-85937500D03*
X177150000Y-84062500D03*
%TD*%
D13*
%TO.C,C404*%
X115050000Y-118980000D03*
X115050000Y-118020000D03*
%TD*%
D47*
%TO.C,R408*%
X120050000Y-117010000D03*
X120050000Y-115990000D03*
%TD*%
D13*
%TO.C,C417*%
X154750000Y-120480000D03*
X154750000Y-119520000D03*
%TD*%
D50*
%TO.C,C406*%
X117800000Y-117000000D03*
X116840000Y-117000000D03*
%TD*%
%TO.C,C416*%
X141800000Y-117000000D03*
X140840000Y-117000000D03*
%TD*%
D24*
%TO.C,R607*%
X177150000Y-87675000D03*
X177150000Y-89325000D03*
%TD*%
D43*
%TO.C,C431*%
X156825000Y-123250000D03*
X158375000Y-123250000D03*
%TD*%
%TO.C,C420*%
X135425000Y-116750000D03*
X136975000Y-116750000D03*
%TD*%
D28*
%TO.C,R216*%
X160520000Y-86500000D03*
X159500000Y-86500000D03*
%TD*%
D33*
%TO.C,H104*%
X103900000Y-74000000D03*
%TD*%
D50*
%TO.C,C405*%
X129800000Y-117000000D03*
X128840000Y-117000000D03*
%TD*%
D28*
%TO.C,R803*%
X135520000Y-83972500D03*
X134500000Y-83972500D03*
%TD*%
D15*
%TO.C,C439*%
X156500000Y-114475000D03*
X156500000Y-116025000D03*
%TD*%
D51*
%TO.C,D601*%
X174650000Y-85000000D03*
X170650000Y-85000000D03*
%TD*%
D52*
%TO.C,U901*%
X140300000Y-85700000D03*
X142700000Y-85700000D03*
X142700000Y-83800000D03*
X140300000Y-83800000D03*
%TD*%
D53*
%TO.C,C436*%
X124000000Y-113775000D03*
X124000000Y-116725000D03*
%TD*%
D24*
%TO.C,R902*%
X144300000Y-83975000D03*
X144300000Y-85625000D03*
%TD*%
D15*
%TO.C,C411*%
X138550000Y-121475000D03*
X138550000Y-123025000D03*
%TD*%
D12*
%TO.C,R213*%
X159490000Y-83500000D03*
X160510000Y-83500000D03*
%TD*%
D54*
%TO.C,J401*%
X106605000Y-102110000D03*
X106605000Y-107890000D03*
D55*
X107680000Y-101800000D03*
X107680000Y-102600000D03*
D56*
X107680000Y-103750000D03*
X107680000Y-104750000D03*
X107680000Y-105250000D03*
X107680000Y-106250000D03*
D55*
X107680000Y-107400000D03*
X107680000Y-108200000D03*
X107680000Y-108200000D03*
X107680000Y-107400000D03*
D56*
X107680000Y-106750000D03*
X107680000Y-105750000D03*
X107680000Y-104250000D03*
X107680000Y-103250000D03*
D55*
X107680000Y-102600000D03*
X107680000Y-101800000D03*
D57*
X107105000Y-100680000D03*
D58*
X102925000Y-100680000D03*
D57*
X107105000Y-109320000D03*
D58*
X102925000Y-109320000D03*
%TD*%
D15*
%TO.C,C440*%
X158000000Y-114475000D03*
X158000000Y-116025000D03*
%TD*%
D17*
%TO.C,R405*%
X133300000Y-115990000D03*
X133300000Y-117010000D03*
%TD*%
D12*
%TO.C,R605*%
X171880000Y-112000000D03*
X172900000Y-112000000D03*
%TD*%
D35*
%TO.C,D902*%
X123962500Y-82500000D03*
X125537500Y-82500000D03*
%TD*%
D14*
%TO.C,C901*%
X141020000Y-87250000D03*
X141980000Y-87250000D03*
%TD*%
D35*
%TO.C,D801*%
X134222500Y-82472500D03*
X135797500Y-82472500D03*
%TD*%
D12*
%TO.C,R603*%
X166880000Y-110750000D03*
X167900000Y-110750000D03*
%TD*%
D42*
%TO.C,R904*%
X159750000Y-115325000D03*
X159750000Y-113675000D03*
%TD*%
D59*
%TO.C,D201*%
X110787500Y-112687500D03*
X109212500Y-112687500D03*
%TD*%
D12*
%TO.C,R203*%
X112240000Y-112687500D03*
X113260000Y-112687500D03*
%TD*%
D60*
%TO.C,J203*%
X168500000Y-123250000D03*
D61*
X168500000Y-121250000D03*
X170500000Y-123250000D03*
X170500000Y-121250000D03*
X172500000Y-123250000D03*
X172500000Y-121250000D03*
%TD*%
D21*
%TO.C,C407*%
X131075000Y-123000000D03*
X129525000Y-123000000D03*
%TD*%
D24*
%TO.C,R608*%
X175590000Y-109675000D03*
X175590000Y-111325000D03*
%TD*%
D47*
%TO.C,R411*%
X144050000Y-117010000D03*
X144050000Y-115990000D03*
%TD*%
D30*
%TO.C,R202*%
X110825000Y-114187500D03*
X109175000Y-114187500D03*
%TD*%
D50*
%TO.C,C301*%
X116680000Y-97200000D03*
X115720000Y-97200000D03*
%TD*%
M02*
