M48
; DRILL file KiCad 10.0.5 date 2026-08-04T22:37:23
; FORMAT={-:-/ absolute / metric / decimal}
; #@! TF.CreationDate,2026-08-04T22:37:23+08:00
; #@! TF.GenerationSoftware,Kicad,Pcbnew,10.0.5
; #@! TF.FileFunction,Plated,1,4,PTH
FMAT,2
METRIC
; #@! TA.AperFunction,Plated,PTH,ViaDrill
T1C0.300
; #@! TA.AperFunction,Plated,PTH,ComponentDrill
T2C0.600
; #@! TA.AperFunction,Plated,PTH,ComponentDrill
T3C0.700
; #@! TA.AperFunction,Plated,PTH,ComponentDrill
T4C0.800
; #@! TA.AperFunction,Plated,PTH,ComponentDrill
T5C1.000
%
G90
G05
T1
X105.3Y-99.4
X105.3Y-102.4
X105.3Y-105.4
X105.3Y-108.4
X105.3Y-111.4
X105.3Y-114.4
X105.3Y-117.4
X107.0Y-96.75
X108.3Y-72.4
X108.3Y-75.4
X108.3Y-96.4
X108.3Y-99.4
X108.3Y-108.4
X108.3Y-111.4
X108.3Y-114.4
X108.3Y-117.4
X108.3Y-120.4
X109.175Y-114.188
X109.3Y-102.6
X109.3Y-103.8
X109.3Y-105.0
X109.3Y-106.2
X109.3Y-107.4
X110.825Y-114.188
X111.3Y-72.4
X111.3Y-75.4
X111.3Y-90.4
X111.3Y-96.4
X111.3Y-99.4
X111.3Y-102.4
X111.3Y-105.4
X111.3Y-108.4
X111.3Y-111.4
X111.3Y-117.4
X111.3Y-120.4
X111.3Y-123.4
X112.24Y-113.688
X113.0Y-83.75
X113.0Y-84.75
X113.0Y-85.75
X113.0Y-86.75
X113.0Y-87.75
X113.0Y-88.75
X114.04Y-119.29
X114.3Y-72.4
X114.3Y-75.4
X114.3Y-78.4
X114.3Y-81.4
X114.3Y-92.75
X114.3Y-96.4
X114.3Y-99.4
X114.3Y-102.4
X114.3Y-105.4
X114.3Y-108.4
X114.3Y-111.4
X114.3Y-114.4
X114.3Y-117.4
X114.55Y-121.3
X114.8Y-84.25
X114.8Y-86.45
X115.05Y-118.98
X115.06Y-120.0
X115.5Y-120.75
X116.2Y-122.4
X116.5Y-121.25
X116.52Y-104.0
X116.52Y-105.2
X116.7Y-92.12
X116.7Y-93.08
X116.7Y-93.82
X116.7Y-94.78
X116.7Y-95.52
X116.7Y-96.48
X116.7Y-97.22
X116.7Y-98.18
X117.3Y-72.4
X117.3Y-96.4
X117.3Y-99.4
X117.3Y-108.4
X117.3Y-111.4
X117.3Y-114.4
X117.3Y-120.4
X117.4Y-85.35
X117.48Y-104.0
X117.48Y-105.2
X117.51Y-101.5
X117.51Y-102.75
X117.52Y-92.1
X118.48Y-92.1
X118.7Y-94.0
X118.7Y-94.8
X118.7Y-95.6
X118.7Y-96.4
X118.7Y-97.2
X118.7Y-98.0
X118.7Y-98.8
X118.7Y-99.6
X118.7Y-101.2
X118.7Y-102.8
X118.7Y-103.6
X118.7Y-104.4
X118.7Y-105.2
X119.1Y-106.4
X119.3Y-118.55
X119.32Y-92.1
X119.5Y-94.4
X119.5Y-96.0
X119.5Y-96.8
X119.5Y-97.6
X119.5Y-98.4
X119.5Y-99.2
X119.5Y-100.8
X119.5Y-101.6
X119.5Y-102.4
X119.5Y-103.2
X119.5Y-104.0
X119.5Y-105.6
X120.25Y-82.8
X120.28Y-92.1
X120.3Y-72.4
X120.3Y-78.4
X120.3Y-81.4
X120.3Y-87.4
X120.3Y-94.4
X120.3Y-96.0
X120.3Y-96.8
X120.3Y-98.4
X120.3Y-99.2
X120.3Y-100.8
X120.3Y-111.4
X120.3Y-114.4
X120.3Y-120.4
X120.6Y-121.9
X120.6Y-123.4
X121.0Y-83.8
X121.1Y-98.4
X121.6Y-121.9
X121.75Y-83.3
X121.99Y-115.99
X122.6Y-121.9
X123.25Y-86.1
X123.3Y-78.4
X123.3Y-81.4
X123.3Y-87.4
X123.5Y-94.8
X123.5Y-95.6
X123.5Y-97.2
X123.5Y-98.8
X123.5Y-99.6
X123.5Y-100.8
X123.5Y-101.6
X123.6Y-121.9
X124.0Y-113.775
X124.3Y-96.8
X124.3Y-97.6
X124.3Y-99.2
X124.3Y-100.8
X124.3Y-102.4
X124.3Y-104.0
X124.3Y-104.8
X124.3Y-105.6
X124.3Y-106.4
X124.4Y-90.7
X124.5Y-110.9
X124.7Y-93.6
X125.1Y-97.6
X125.1Y-94.4
X125.1Y-96.0
X125.1Y-96.8
X125.1Y-99.2
X125.1Y-100.8
X125.1Y-102.4
X125.2Y-108.3
X125.5Y-93.6
X125.6Y-108.7
X125.6Y-109.9
X125.9Y-97.2
X125.9Y-98.0
X125.9Y-99.6
X125.9Y-102.8
X125.9Y-103.6
X125.9Y-104.4
X125.9Y-105.2
X125.9Y-106.0
X126.04Y-119.5
X126.25Y-82.5
X126.3Y-78.4
X126.3Y-123.4
X126.5Y-89.2
X126.55Y-121.3
X127.05Y-118.98
X127.06Y-120.0
X127.5Y-103.6
X127.5Y-105.2
X127.5Y-120.75
X127.75Y-89.25
X128.2Y-114.2
X128.2Y-122.4
X128.48Y-105.2
X128.5Y-102.4
X128.5Y-103.6
X128.8Y-110.6
X129.3Y-72.4
X129.3Y-78.4
X129.3Y-120.4
X131.27Y-96.33
X131.3Y-118.55
X131.73Y-95.87
X132.3Y-72.4
X132.3Y-78.4
X132.3Y-120.4
X132.6Y-123.4
X132.7Y-110.9
X133.2Y-103.6
X133.4Y-104.2
X133.6Y-121.9
X134.3Y-109.1
X134.8Y-105.6
X135.25Y-116.75
X135.3Y-72.4
X135.3Y-75.4
X135.3Y-78.4
X135.3Y-123.4
X135.4Y-103.2
X135.6Y-121.9
X136.482Y-82.472
X137.1Y-101.9
X137.1Y-112.0
X137.25Y-94.135
X137.4Y-103.8
X137.8Y-101.9
X138.04Y-119.5
X138.3Y-72.4
X138.3Y-78.4
X138.3Y-93.9
X138.3Y-117.4
X138.3Y-123.4
X138.438Y-85.688
X138.55Y-121.3
X138.9Y-93.5
X139.05Y-112.6
X139.05Y-118.98
X139.06Y-120.0
X139.2Y-102.8
X139.2Y-106.8
X139.3Y-83.8
X139.3Y-85.7
X139.3Y-108.3
X139.5Y-94.3
X139.5Y-120.75
X139.8Y-112.8
X140.1Y-95.5
X140.2Y-103.0
X140.2Y-122.4
X140.3Y-102.4
X140.3Y-107.8
X140.5Y-87.25
X140.5Y-96.0
X140.5Y-121.25
X140.8Y-96.4
X141.3Y-78.4
X141.3Y-120.4
X141.8Y-102.4
X142.0Y-87.25
X142.5Y-102.8
X142.6Y-101.8
X143.3Y-118.55
X143.4Y-102.8
X143.6Y-101.8
X144.3Y-78.4
X144.3Y-86.3
X144.3Y-120.4
X144.6Y-94.8
X144.6Y-95.6
X144.6Y-121.9
X144.6Y-123.4
X145.0Y-94.4
X145.0Y-98.4
X145.0Y-102.4
X145.25Y-116.0
X145.6Y-121.9
X145.8Y-96.4
X145.8Y-100.4
X145.8Y-104.4
X145.8Y-105.2
X146.6Y-94.8
X146.6Y-95.6
X146.6Y-96.4
X146.6Y-97.2
X146.6Y-98.0
X146.6Y-98.8
X146.6Y-99.6
X146.6Y-101.2
X146.6Y-102.8
X146.6Y-104.4
X146.6Y-121.9
X147.05Y-116.75
X147.3Y-72.4
X147.3Y-78.4
X147.3Y-123.4
X147.4Y-95.6
X147.4Y-96.4
X147.4Y-97.2
X147.4Y-98.0
X147.4Y-100.4
X147.4Y-101.2
X147.4Y-102.0
X147.4Y-102.8
X147.4Y-103.6
X147.4Y-104.4
X147.6Y-121.9
X147.8Y-106.0
X148.0Y-113.975
X148.2Y-95.6
X148.2Y-96.4
X148.2Y-97.2
X148.2Y-98.8
X148.2Y-99.6
X148.2Y-100.4
X148.2Y-101.2
X148.2Y-102.8
X148.2Y-103.6
X148.2Y-104.4
X148.5Y-111.5
X148.5Y-112.75
X148.954Y-102.046
X149.0Y-95.6
X149.0Y-96.4
X149.0Y-98.0
X149.0Y-98.8
X149.0Y-99.6
X149.0Y-101.2
X149.0Y-103.6
X149.4Y-94.0
X149.8Y-91.325
X149.8Y-96.4
X149.8Y-97.2
X149.8Y-98.0
X149.8Y-99.6
X149.8Y-100.4
X149.8Y-101.2
X149.8Y-102.0
X149.8Y-102.8
X149.8Y-103.6
X149.9Y-86.4
X149.912Y-87.655
X150.2Y-109.5
X150.3Y-72.4
X150.3Y-75.4
X150.3Y-78.4
X150.3Y-117.4
X150.3Y-120.4
X150.3Y-123.4
X150.5Y-109.0
X150.6Y-96.4
X150.6Y-98.0
X150.6Y-98.8
X150.6Y-100.4
X150.6Y-102.0
X150.6Y-102.8
X150.832Y-118.832
X150.9Y-108.6
X151.4Y-94.8
X151.4Y-95.6
X151.4Y-97.2
X151.4Y-98.0
X151.4Y-98.8
X151.4Y-101.2
X151.4Y-102.8
X151.4Y-103.6
X152.0Y-106.4
X152.0Y-107.4
X152.2Y-92.2
X152.2Y-95.6
X152.2Y-96.4
X152.2Y-97.2
X152.2Y-98.8
X152.2Y-99.6
X152.2Y-100.4
X152.2Y-101.2
X152.2Y-105.2
X153.0Y-91.6
X153.0Y-95.6
X153.0Y-97.2
X153.0Y-98.0
X153.0Y-98.8
X153.0Y-101.2
X153.0Y-102.0
X153.0Y-102.8
X153.0Y-104.4
X153.0Y-112.5
X153.0Y-113.3
X153.3Y-72.4
X153.3Y-78.4
X153.3Y-81.4
X153.3Y-111.4
X153.3Y-114.4
X153.3Y-117.4
X153.3Y-120.4
X153.3Y-123.4
X153.4Y-94.0
X153.8Y-97.2
X153.8Y-98.0
X153.8Y-104.4
X153.9Y-112.5
X153.9Y-113.3
X154.4Y-79.8
X154.5Y-117.25
X154.5Y-118.25
X154.6Y-91.2
X154.6Y-95.6
X154.6Y-101.2
X154.75Y-121.5
X154.75Y-122.75
X154.75Y-124.0
X155.4Y-91.0
X155.4Y-98.0
X155.4Y-98.8
X155.4Y-103.6
X155.4Y-105.2
X155.5Y-117.25
X155.5Y-118.25
X155.75Y-121.5
X155.75Y-122.75
X155.75Y-124.0
X156.2Y-93.55
X156.2Y-100.4
X156.2Y-101.2
X156.2Y-103.6
X156.3Y-78.4
X156.3Y-84.4
X156.3Y-111.4
X156.3Y-114.4
X156.3Y-117.4
X156.3Y-120.4
X157.0Y-96.0
X158.0Y-113.0
X158.155Y-83.845
X158.3Y-94.2
X158.5Y-80.25
X158.98Y-81.73
X159.0Y-83.5
X159.0Y-96.3
X159.3Y-78.4
X159.3Y-93.4
X159.3Y-117.4
X159.3Y-120.4
X159.3Y-123.4
X159.75Y-113.675
X159.8Y-101.9
X160.2Y-94.8
X160.7Y-97.4
X160.7Y-103.8
X161.0Y-87.52
X161.0Y-88.5
X161.0Y-111.75
X161.0Y-113.5
X161.8Y-98.5
X162.1Y-105.2
X162.3Y-78.4
X162.3Y-81.4
X162.3Y-84.4
X162.3Y-87.4
X162.3Y-96.4
X162.3Y-120.4
X162.3Y-123.4
X162.6Y-93.6
X162.8Y-96.5
X162.8Y-99.7
X163.1Y-98.0
X164.3Y-102.4
X165.3Y-72.4
X165.3Y-78.4
X165.3Y-93.4
X165.3Y-105.4
X165.3Y-108.4
X165.3Y-114.4
X165.3Y-120.4
X165.3Y-123.4
X166.39Y-110.75
X166.39Y-114.25
X168.3Y-72.4
X168.3Y-75.4
X168.3Y-78.4
X168.3Y-81.4
X168.3Y-87.4
X168.3Y-90.4
X168.3Y-93.4
X168.3Y-108.4
X168.4Y-84.25
X168.4Y-85.5
X168.44Y-109.8
X169.452Y-112.812
X171.3Y-72.4
X171.3Y-75.4
X171.3Y-78.4
X171.3Y-81.4
X171.3Y-93.4
X171.3Y-108.4
X171.3Y-117.4
X171.89Y-112.0
X171.89Y-113.0
X173.5Y-103.75
X174.3Y-78.4
X174.3Y-81.4
X174.3Y-90.4
X174.3Y-93.4
X174.3Y-96.4
X174.3Y-99.4
X174.3Y-105.4
X174.3Y-117.4
X174.3Y-120.4
X175.6Y-110.7
X176.8Y-109.5
X177.3Y-78.4
X177.3Y-81.4
X177.3Y-90.4
X177.3Y-96.4
X177.3Y-102.4
X177.3Y-105.4
X177.3Y-108.4
X177.3Y-114.4
X177.3Y-117.4
X177.9Y-87.675
T4
X168.5Y-121.25
X168.5Y-123.25
X170.5Y-121.25
X170.5Y-123.25
X172.5Y-121.25
X172.5Y-123.25
T5
X116.075Y-73.535
X116.075Y-76.075
X118.615Y-73.535
X118.615Y-76.075
X121.155Y-73.535
X121.155Y-76.075
X123.695Y-73.535
X123.695Y-76.075
X126.235Y-73.535
X126.235Y-76.075
X128.775Y-73.535
X128.775Y-76.075
X131.315Y-73.535
X131.315Y-76.075
X133.855Y-73.535
X133.855Y-76.075
X136.395Y-73.535
X136.395Y-76.075
X138.935Y-73.535
X138.935Y-76.075
X141.475Y-73.535
X141.475Y-76.075
X144.015Y-73.535
X144.015Y-76.075
X146.555Y-73.535
X146.555Y-76.075
X149.095Y-73.535
X149.095Y-76.075
X151.635Y-73.535
X151.635Y-76.075
X154.175Y-73.535
X154.175Y-76.075
X156.715Y-73.535
X156.715Y-76.075
X159.255Y-73.535
X159.255Y-76.075
X161.795Y-73.535
X161.795Y-76.075
X163.5Y-82.69
X163.5Y-85.23
X163.5Y-87.77
X163.5Y-90.31
X164.335Y-73.535
X164.335Y-76.075
T2
G00X103.325Y-100.68
M15
G01X102.525Y-100.68
M16
G05
G00X103.325Y-109.32
M15
G01X102.525Y-109.32
M16
G05
G00X107.655Y-100.68
M15
G01X106.555Y-100.68
M16
G05
G00X107.655Y-109.32
M15
G01X106.555Y-109.32
M16
G05
T3
G00X169.6Y-92.5
M15
G01X171.2Y-92.5
M16
G05
G00X169.6Y-107.0
M15
G01X171.2Y-107.0
M16
G05
G00X175.96Y-92.5
M15
G01X176.76Y-92.5
M16
G05
G00X175.96Y-107.0
M15
G01X176.76Y-107.0
M16
G05
M30
