%TF.GenerationSoftware,KiCad,Pcbnew,10.0.5*%
%TF.CreationDate,2026-08-04T22:37:28+08:00*%
%TF.ProjectId,ZYNQ_PI_Zero,5a594e51-5f50-4495-9f5a-65726f2e6b69,rev?*%
%TF.SameCoordinates,Original*%
%TF.FileFunction,Legend,Bot*%
%TF.FilePolarity,Positive*%
%FSLAX46Y46*%
G04 Gerber Fmt 4.6, Leading zero omitted, Abs format (unit mm)*
G04 Created by KiCad (PCBNEW 10.0.5) date 2026-08-04 22:37:28*
%MOMM*%
%LPD*%
G01*
G04 APERTURE LIST*
%ADD10C,0.120000*%
G04 APERTURE END LIST*
%TO.C,C419*%
D10*
X151490000Y-108109420D02*
X151490000Y-108390580D01*
X152510000Y-108109420D02*
X152510000Y-108390580D01*
%TO.C,C315*%
X116340000Y-94192164D02*
X116340000Y-94407836D01*
X117060000Y-94192164D02*
X117060000Y-94407836D01*
%TO.C,C428*%
X150109420Y-112240000D02*
X150390580Y-112240000D01*
X150109420Y-113260000D02*
X150390580Y-113260000D01*
%TO.C,R701*%
X111893641Y-84370000D02*
X111586359Y-84370000D01*
X111893641Y-85130000D02*
X111586359Y-85130000D01*
%TO.C,C448*%
X146240000Y-114609420D02*
X146240000Y-114890580D01*
X147260000Y-114609420D02*
X147260000Y-114890580D01*
%TO.C,C445*%
X155040000Y-98292164D02*
X155040000Y-98507836D01*
X155760000Y-98292164D02*
X155760000Y-98507836D01*
%TO.C,C312*%
X116892164Y-104840000D02*
X117107836Y-104840000D01*
X116892164Y-105560000D02*
X117107836Y-105560000D01*
%TO.C,C314*%
X127892164Y-104840000D02*
X128107836Y-104840000D01*
X127892164Y-105560000D02*
X128107836Y-105560000D01*
%TO.C,C453*%
X152740000Y-108109420D02*
X152740000Y-108390580D01*
X153760000Y-108109420D02*
X153760000Y-108390580D01*
%TO.C,R901*%
X149277500Y-90262742D02*
X149277500Y-90737258D01*
X150322500Y-90262742D02*
X150322500Y-90737258D01*
%TO.C,C410*%
X145290000Y-93459420D02*
X145290000Y-93740580D01*
X146310000Y-93459420D02*
X146310000Y-93740580D01*
%TO.C,C430*%
X153292164Y-96840000D02*
X153507836Y-96840000D01*
X153292164Y-97560000D02*
X153507836Y-97560000D01*
%TO.C,C442*%
X155692164Y-103240000D02*
X155907836Y-103240000D01*
X155692164Y-103960000D02*
X155907836Y-103960000D01*
%TO.C,R307*%
X142336359Y-99720000D02*
X142643641Y-99720000D01*
X142336359Y-100480000D02*
X142643641Y-100480000D01*
%TO.C,C422*%
X151592164Y-100940000D02*
X151807836Y-100940000D01*
X151592164Y-101660000D02*
X151807836Y-101660000D01*
%TO.C,C423*%
X150109420Y-113740000D02*
X150390580Y-113740000D01*
X150109420Y-114760000D02*
X150390580Y-114760000D01*
%TO.C,R328*%
X145420000Y-100746359D02*
X145420000Y-101053641D01*
X146180000Y-100746359D02*
X146180000Y-101053641D01*
%TO.C,C447*%
X147507836Y-105640000D02*
X147292164Y-105640000D01*
X147507836Y-106360000D02*
X147292164Y-106360000D01*
%TO.C,R329*%
X146120000Y-99353641D02*
X146120000Y-99046359D01*
X146880000Y-99353641D02*
X146880000Y-99046359D01*
%TO.C,R204*%
X148753641Y-93720000D02*
X148446359Y-93720000D01*
X148753641Y-94480000D02*
X148446359Y-94480000D01*
%TO.C,C317*%
X116340000Y-97592164D02*
X116340000Y-97807836D01*
X117060000Y-97592164D02*
X117060000Y-97807836D01*
%TO.C,C425*%
X150109420Y-110990000D02*
X150390580Y-110990000D01*
X150109420Y-112010000D02*
X150390580Y-112010000D01*
%TO.C,R301*%
X117153641Y-106120000D02*
X116846359Y-106120000D01*
X117153641Y-106880000D02*
X116846359Y-106880000D01*
%TO.C,C446*%
X154307836Y-95240000D02*
X154092164Y-95240000D01*
X154307836Y-95960000D02*
X154092164Y-95960000D01*
%TO.C,C456*%
X153990000Y-108109420D02*
X153990000Y-108390580D01*
X155010000Y-108109420D02*
X155010000Y-108390580D01*
%TO.C,C458*%
X151040000Y-97707836D02*
X151040000Y-97492164D01*
X151760000Y-97707836D02*
X151760000Y-97492164D01*
%TO.C,C449*%
X153292164Y-104040000D02*
X153507836Y-104040000D01*
X153292164Y-104760000D02*
X153507836Y-104760000D01*
%TO.C,R205*%
X148346359Y-101720000D02*
X148653641Y-101720000D01*
X148346359Y-102480000D02*
X148653641Y-102480000D01*
%TO.C,C459*%
X147692164Y-102540000D02*
X147907836Y-102540000D01*
X147692164Y-103260000D02*
X147907836Y-103260000D01*
%TO.C,R303*%
X146046359Y-104020000D02*
X146353641Y-104020000D01*
X146046359Y-104780000D02*
X146353641Y-104780000D01*
%TO.C,C441*%
X142859420Y-100590000D02*
X143140580Y-100590000D01*
X142859420Y-101610000D02*
X143140580Y-101610000D01*
%TO.C,C309*%
X118107836Y-91740000D02*
X117892164Y-91740000D01*
X118107836Y-92460000D02*
X117892164Y-92460000D01*
%TO.C,C461*%
X151940000Y-99892164D02*
X151940000Y-100107836D01*
X152660000Y-99892164D02*
X152660000Y-100107836D01*
%TO.C,C451*%
X143430000Y-99592164D02*
X143430000Y-99807836D01*
X144150000Y-99592164D02*
X144150000Y-99807836D01*
%TO.C,R305*%
X116846359Y-101120000D02*
X117153641Y-101120000D01*
X116846359Y-101880000D02*
X117153641Y-101880000D01*
%TO.C,C429*%
X152640000Y-102507836D02*
X152640000Y-102292164D01*
X153360000Y-102507836D02*
X153360000Y-102292164D01*
%TO.C,C310*%
X119907836Y-91740000D02*
X119692164Y-91740000D01*
X119907836Y-92460000D02*
X119692164Y-92460000D01*
%TO.C,C318*%
X127892164Y-103240000D02*
X128107836Y-103240000D01*
X127892164Y-103960000D02*
X128107836Y-103960000D01*
%TO.C,C460*%
X151592164Y-101740000D02*
X151807836Y-101740000D01*
X151592164Y-102460000D02*
X151807836Y-102460000D01*
%TO.C,C432*%
X148707836Y-99140000D02*
X148492164Y-99140000D01*
X148707836Y-99860000D02*
X148492164Y-99860000D01*
%TO.C,C450*%
X155840000Y-100692164D02*
X155840000Y-100907836D01*
X156560000Y-100692164D02*
X156560000Y-100907836D01*
%TO.C,C201*%
X150892164Y-98540000D02*
X151107836Y-98540000D01*
X150892164Y-99260000D02*
X151107836Y-99260000D01*
%TO.C,C457*%
X150192164Y-100140000D02*
X150407836Y-100140000D01*
X150192164Y-100860000D02*
X150407836Y-100860000D01*
%TO.C,C455*%
X147592164Y-96840000D02*
X147807836Y-96840000D01*
X147592164Y-97560000D02*
X147807836Y-97560000D01*
%TO.C,R703*%
X111893641Y-87370000D02*
X111586359Y-87370000D01*
X111893641Y-88130000D02*
X111586359Y-88130000D01*
%TO.C,C307*%
X116340000Y-92707836D02*
X116340000Y-92492164D01*
X117060000Y-92707836D02*
X117060000Y-92492164D01*
%TO.C,C454*%
X152640000Y-98507836D02*
X152640000Y-98292164D01*
X153360000Y-98507836D02*
X153360000Y-98292164D01*
%TO.C,C313*%
X147592164Y-97640000D02*
X147807836Y-97640000D01*
X147592164Y-98360000D02*
X147807836Y-98360000D01*
%TO.C,R306*%
X142336359Y-98920000D02*
X142643641Y-98920000D01*
X142336359Y-99680000D02*
X142643641Y-99680000D01*
%TO.C,C702*%
X114140000Y-85357836D02*
X114140000Y-85142164D01*
X114860000Y-85357836D02*
X114860000Y-85142164D01*
%TO.C,R304*%
X117153641Y-102370000D02*
X116846359Y-102370000D01*
X117153641Y-103130000D02*
X116846359Y-103130000D01*
%TO.C,C316*%
X116340000Y-96107836D02*
X116340000Y-95892164D01*
X117060000Y-96107836D02*
X117060000Y-95892164D01*
%TO.C,R302*%
X127846359Y-102020000D02*
X128153641Y-102020000D01*
X127846359Y-102780000D02*
X128153641Y-102780000D01*
%TO.C,C462*%
X148640000Y-100907836D02*
X148640000Y-100692164D01*
X149360000Y-100907836D02*
X149360000Y-100692164D01*
%TO.C,C311*%
X116892164Y-103640000D02*
X117107836Y-103640000D01*
X116892164Y-104360000D02*
X117107836Y-104360000D01*
%TO.C,C413*%
X149392164Y-96840000D02*
X149607836Y-96840000D01*
X149392164Y-97560000D02*
X149607836Y-97560000D01*
%TO.C,C444*%
X147490000Y-114609420D02*
X147490000Y-114890580D01*
X148510000Y-114609420D02*
X148510000Y-114890580D01*
%TO.C,C202*%
X147672164Y-100840000D02*
X147887836Y-100840000D01*
X147672164Y-101560000D02*
X147887836Y-101560000D01*
%TO.C,R704*%
X111893641Y-86370000D02*
X111586359Y-86370000D01*
X111893641Y-87130000D02*
X111586359Y-87130000D01*
%TO.C,R705*%
X111893641Y-85370000D02*
X111586359Y-85370000D01*
X111893641Y-86130000D02*
X111586359Y-86130000D01*
%TO.C,R702*%
X111893641Y-83370000D02*
X111586359Y-83370000D01*
X111893641Y-84130000D02*
X111586359Y-84130000D01*
%TD*%
M02*
