%TF.GenerationSoftware,KiCad,Pcbnew,10.0.5*%
%TF.CreationDate,2026-08-04T22:37:28+08:00*%
%TF.ProjectId,ZYNQ_PI_Zero,5a594e51-5f50-4495-9f5a-65726f2e6b69,rev?*%
%TF.SameCoordinates,Original*%
%TF.FileFunction,Legend,Top*%
%TF.FilePolarity,Positive*%
%FSLAX46Y46*%
G04 Gerber Fmt 4.6, Leading zero omitted, Abs format (unit mm)*
G04 Created by KiCad (PCBNEW 10.0.5) date 2026-08-04 22:37:28*
%MOMM*%
%LPD*%
G01*
G04 APERTURE LIST*
%ADD10C,0.000000*%
%ADD11C,0.200000*%
%ADD12C,0.300000*%
%ADD13C,0.400000*%
%ADD14C,0.120000*%
%ADD15C,0.250000*%
%ADD16C,0.127000*%
%ADD17C,0.152400*%
%ADD18C,0.254000*%
%ADD19C,0.500000*%
G04 APERTURE END LIST*
D10*
G36*
X120509865Y-91153202D02*
G01*
X120085390Y-91153202D01*
X120085390Y-89958742D01*
X120509865Y-89958742D01*
X120509865Y-91153202D01*
G37*
G36*
X133768126Y-106303421D02*
G01*
X133507440Y-106303421D01*
X133507440Y-104613179D01*
X133768126Y-104613179D01*
X133768126Y-106303421D01*
G37*
G36*
X135407908Y-106303421D02*
G01*
X135147227Y-106303421D01*
X135147227Y-104613179D01*
X135407908Y-104613179D01*
X135407908Y-106303421D01*
G37*
G36*
X167788216Y-95408756D02*
G01*
X165944821Y-95408756D01*
X165944821Y-94635717D01*
X167788216Y-94635717D01*
X167788216Y-95408756D01*
G37*
G36*
X134297901Y-106059554D02*
G01*
X134962225Y-106059554D01*
X134962225Y-106303421D01*
X134028810Y-106303421D01*
X134028810Y-104613179D01*
X134297901Y-104613179D01*
X134297901Y-106059554D01*
G37*
G36*
X141782047Y-104209539D02*
G01*
X142883653Y-104209539D01*
X142101601Y-105000000D01*
X141000000Y-105000000D01*
X141000000Y-103898400D01*
X141782047Y-103116347D01*
X141782047Y-104209539D01*
G37*
G36*
X143800252Y-104974774D02*
G01*
X143035016Y-104209539D01*
X143035016Y-102956573D01*
X141790457Y-102956573D01*
X141025231Y-102199747D01*
X143800252Y-102199747D01*
X143800252Y-104974774D01*
G37*
G36*
X166004284Y-94201631D02*
G01*
X166224305Y-94201631D01*
X166224305Y-94267040D01*
X166004284Y-94267040D01*
X166004284Y-94350291D01*
X165950765Y-94350291D01*
X165950765Y-94112428D01*
X166004284Y-94112428D01*
X166004284Y-94201631D01*
G37*
G36*
X119710193Y-91153288D02*
G01*
X119275491Y-91153288D01*
X119275579Y-90677097D01*
X119336012Y-90627906D01*
X119394723Y-90578644D01*
X119451707Y-90529350D01*
X119506947Y-90480069D01*
X119560427Y-90430840D01*
X119612139Y-90381704D01*
X119662064Y-90332702D01*
X119710193Y-90283883D01*
X119710193Y-91153288D01*
G37*
G36*
X132733798Y-105201819D02*
G01*
X133061759Y-104613179D01*
X133364482Y-104613179D01*
X132876749Y-105437275D01*
X133398120Y-106303421D01*
X133086983Y-106303421D01*
X132733798Y-105672733D01*
X132363795Y-106303421D01*
X132069471Y-106303421D01*
X132582434Y-105437275D01*
X132103110Y-104613179D01*
X132405840Y-104613179D01*
X132733798Y-105201819D01*
G37*
G36*
X135920864Y-104621590D02*
G01*
X136702923Y-105782053D01*
X136702923Y-104613179D01*
X136955193Y-104613179D01*
X136955193Y-106303421D01*
X136728147Y-106303421D01*
X136719742Y-106286603D01*
X135946097Y-105126138D01*
X135946097Y-106303421D01*
X135685407Y-106303421D01*
X135685407Y-104613179D01*
X135920864Y-104613179D01*
X135920864Y-104621590D01*
G37*
G36*
X137737247Y-105201819D02*
G01*
X138065209Y-104613179D01*
X138367935Y-104613179D01*
X137880202Y-105437275D01*
X138401570Y-106303421D01*
X138098840Y-106303421D01*
X137737247Y-105672733D01*
X137375650Y-106303421D01*
X137072922Y-106303421D01*
X137594291Y-105437275D01*
X137106560Y-104613179D01*
X137409289Y-104613179D01*
X137737247Y-105201819D01*
G37*
G36*
X167788216Y-103561322D02*
G01*
X167134109Y-103561322D01*
X167134109Y-104869538D01*
X167788216Y-104869538D01*
X167788216Y-105642575D01*
X165944821Y-105642575D01*
X165944821Y-104869538D01*
X166694070Y-104869538D01*
X166694070Y-103561322D01*
X165944821Y-103561322D01*
X165944821Y-102776396D01*
X167788216Y-102776396D01*
X167788216Y-103561322D01*
G37*
G36*
X136400189Y-103284529D02*
G01*
X137182241Y-102384748D01*
X137712017Y-102384748D01*
X137712017Y-104814999D01*
X137098150Y-104814999D01*
X137098150Y-103301350D01*
X136442236Y-104066579D01*
X136349735Y-104066579D01*
X135693819Y-103301349D01*
X135693819Y-104814999D01*
X135088359Y-104814999D01*
X135088359Y-102384748D01*
X135618137Y-102384748D01*
X136400189Y-103284529D01*
G37*
G36*
X134819265Y-104814999D02*
G01*
X134163356Y-104814999D01*
X133961534Y-104335677D01*
X132876749Y-104335677D01*
X132691755Y-104814999D01*
X132052654Y-104814999D01*
X132413811Y-103915218D01*
X133036527Y-103915218D01*
X133784948Y-103915218D01*
X133398120Y-102964982D01*
X133036527Y-103915218D01*
X132413811Y-103915218D01*
X133028116Y-102384748D01*
X133734486Y-102384748D01*
X134819265Y-104814999D01*
G37*
G36*
X113453862Y-77688290D02*
G01*
X113486070Y-77696591D01*
X113516877Y-77704864D01*
X113546308Y-77713087D01*
X113574367Y-77721246D01*
X113601081Y-77729320D01*
X113626457Y-77737301D01*
X113650520Y-77745166D01*
X112837596Y-78018451D01*
X112828496Y-78011761D01*
X112818911Y-78005211D01*
X112808872Y-77998823D01*
X112798407Y-77992615D01*
X112787558Y-77986605D01*
X112776344Y-77980808D01*
X112764803Y-77975229D01*
X112752981Y-77969904D01*
X113420238Y-77679968D01*
X113453862Y-77688290D01*
G37*
G36*
X112453050Y-77573994D02*
G01*
X112564803Y-77576902D01*
X112671304Y-77581646D01*
X112772667Y-77588016D01*
X112869007Y-77595799D01*
X112960438Y-77604784D01*
X113047071Y-77614768D01*
X112574027Y-77915796D01*
X112536112Y-77907922D01*
X112498015Y-77900900D01*
X112460018Y-77894695D01*
X112422426Y-77889242D01*
X112385534Y-77884502D01*
X112349629Y-77880415D01*
X112282008Y-77874006D01*
X112221929Y-77869614D01*
X112171766Y-77866830D01*
X112110682Y-77864469D01*
X112213340Y-77574534D01*
X112335942Y-77573135D01*
X112453050Y-77573994D01*
G37*
G36*
X109534580Y-76308363D02*
G01*
X109550452Y-76309466D01*
X109565568Y-76311245D01*
X109579944Y-76313655D01*
X109593598Y-76316637D01*
X109606543Y-76320159D01*
X109618792Y-76324158D01*
X109630364Y-76328602D01*
X109641280Y-76333425D01*
X109651548Y-76338601D01*
X109661190Y-76344051D01*
X109670220Y-76349755D01*
X109678653Y-76355657D01*
X109686504Y-76361701D01*
X109693790Y-76367854D01*
X109700528Y-76374051D01*
X109706736Y-76380256D01*
X109712429Y-76386419D01*
X109717620Y-76392486D01*
X109722322Y-76398416D01*
X109730346Y-76409651D01*
X109736621Y-76419765D01*
X109741275Y-76428359D01*
X109744449Y-76435042D01*
X109746825Y-76441158D01*
X109746825Y-77412230D01*
X109259908Y-77412230D01*
X109259908Y-76441158D01*
X109262805Y-76435440D01*
X109272135Y-76420350D01*
X109279518Y-76410273D01*
X109288878Y-76399025D01*
X109300334Y-76386991D01*
X109314012Y-76374575D01*
X109330029Y-76362155D01*
X109348512Y-76350125D01*
X109358711Y-76344374D01*
X109369570Y-76338876D01*
X109381107Y-76333665D01*
X109393340Y-76328797D01*
X109406282Y-76324313D01*
X109419942Y-76320278D01*
X109434343Y-76316724D01*
X109449495Y-76313712D01*
X109465410Y-76311284D01*
X109482116Y-76309481D01*
X109499618Y-76308370D01*
X109517935Y-76307985D01*
X109534580Y-76308363D01*
G37*
G36*
X166224305Y-93809164D02*
G01*
X166069694Y-93815110D01*
X166102006Y-93827910D01*
X166143655Y-93844471D01*
X166164988Y-93852914D01*
X166185258Y-93860987D01*
X166204033Y-93868439D01*
X166208773Y-93870475D01*
X166212405Y-93872080D01*
X166213885Y-93872762D01*
X166215173Y-93873390D01*
X166216303Y-93873982D01*
X166217311Y-93874552D01*
X166218218Y-93875120D01*
X166219055Y-93875705D01*
X166219853Y-93876321D01*
X166220640Y-93876985D01*
X166221451Y-93877725D01*
X166222310Y-93878547D01*
X166224305Y-93880519D01*
X166224558Y-93887300D01*
X166224695Y-93894084D01*
X166224728Y-93900867D01*
X166224675Y-93907649D01*
X166224509Y-93922542D01*
X166224305Y-93934042D01*
X166183794Y-93950392D01*
X166172562Y-93954944D01*
X166146982Y-93964977D01*
X166121317Y-93974646D01*
X166069694Y-93993505D01*
X166224305Y-93999451D01*
X166224305Y-94064860D01*
X165950765Y-94064860D01*
X165950765Y-93969718D01*
X166018035Y-93940359D01*
X166037350Y-93931916D01*
X166055876Y-93923842D01*
X166072954Y-93916386D01*
X166081663Y-93912747D01*
X166084916Y-93911436D01*
X166087943Y-93910276D01*
X166091121Y-93909123D01*
X166094831Y-93907841D01*
X166105373Y-93904309D01*
X165950765Y-93838898D01*
X165950765Y-93749701D01*
X166224305Y-93749701D01*
X166224305Y-93809164D01*
G37*
G36*
X166542709Y-95699459D02*
G01*
X166583511Y-95699458D01*
X166693852Y-95699530D01*
X166809321Y-95699576D01*
X167002993Y-95699682D01*
X167202391Y-95699806D01*
X167214954Y-95699813D01*
X167323147Y-95699852D01*
X167788216Y-95700132D01*
X167788216Y-96449383D01*
X166414591Y-96449383D01*
X166414591Y-97133224D01*
X167788216Y-97133224D01*
X167788216Y-97882476D01*
X166420535Y-97882476D01*
X166420535Y-98560367D01*
X167788216Y-98560367D01*
X167788216Y-99309619D01*
X165944821Y-99309619D01*
X165943673Y-98206934D01*
X165943521Y-97967284D01*
X165943502Y-97938301D01*
X165943004Y-97476463D01*
X165942585Y-97001674D01*
X165942561Y-96934568D01*
X165942559Y-96921230D01*
X165942277Y-96708895D01*
X165942121Y-96495265D01*
X165941984Y-96379580D01*
X165941890Y-96326572D01*
X165941942Y-96273572D01*
X165941931Y-96254445D01*
X165941848Y-96235317D01*
X165942048Y-96202099D01*
X165943245Y-96169599D01*
X165944330Y-96153584D01*
X165945791Y-96137715D01*
X165947682Y-96121972D01*
X165950036Y-96106352D01*
X165952902Y-96090831D01*
X165956322Y-96075400D01*
X165960339Y-96060054D01*
X165964994Y-96044774D01*
X165970340Y-96029550D01*
X165976409Y-96014364D01*
X165983252Y-95999209D01*
X165990904Y-95984074D01*
X165997124Y-95972121D01*
X166009973Y-95949246D01*
X166023691Y-95927184D01*
X166038269Y-95905957D01*
X166053704Y-95885586D01*
X166069977Y-95866103D01*
X166087082Y-95847519D01*
X166105005Y-95829867D01*
X166123743Y-95813160D01*
X166143277Y-95797428D01*
X166163605Y-95782691D01*
X166184713Y-95768979D01*
X166206592Y-95756304D01*
X166229230Y-95744692D01*
X166252621Y-95734167D01*
X166276750Y-95724760D01*
X166301607Y-95716483D01*
X166311852Y-95713654D01*
X166322136Y-95711152D01*
X166332457Y-95708951D01*
X166342809Y-95707042D01*
X166353195Y-95705402D01*
X166363606Y-95704007D01*
X166384515Y-95701882D01*
X166405514Y-95700517D01*
X166426587Y-95699753D01*
X166447716Y-95699439D01*
X166468879Y-95699417D01*
X166486123Y-95699400D01*
X166542709Y-95699459D01*
G37*
G36*
X113914370Y-77858403D02*
G01*
X113945105Y-77873736D01*
X113980494Y-77892910D01*
X114019123Y-77915851D01*
X114059582Y-77942500D01*
X114100475Y-77972797D01*
X114140388Y-78006661D01*
X114159539Y-78024914D01*
X114177917Y-78044041D01*
X114195341Y-78064027D01*
X114211636Y-78084865D01*
X114226630Y-78106557D01*
X114240152Y-78129076D01*
X114252020Y-78152426D01*
X114262057Y-78176601D01*
X114270084Y-78201584D01*
X114275938Y-78227374D01*
X114279429Y-78253960D01*
X114280386Y-78281335D01*
X114278635Y-78309490D01*
X114274000Y-78338418D01*
X114266296Y-78368107D01*
X114255360Y-78398557D01*
X114216828Y-78476200D01*
X114167814Y-78548755D01*
X114109089Y-78616395D01*
X114041412Y-78679291D01*
X113965564Y-78737614D01*
X113882302Y-78791543D01*
X113792388Y-78841247D01*
X113696602Y-78886891D01*
X113595710Y-78928646D01*
X113490477Y-78966696D01*
X113270051Y-79032347D01*
X113041484Y-79085215D01*
X112810893Y-79126679D01*
X112584440Y-79158120D01*
X112368252Y-79180898D01*
X111991249Y-79205990D01*
X111630705Y-79212866D01*
X111862368Y-78559481D01*
X111862368Y-78556702D01*
X111977477Y-78547096D01*
X112087455Y-78536329D01*
X112191992Y-78524198D01*
X112290762Y-78510488D01*
X112383460Y-78494991D01*
X112469754Y-78477502D01*
X112510401Y-78467938D01*
X112549337Y-78457793D01*
X112586508Y-78447045D01*
X112621885Y-78435665D01*
X112655421Y-78423626D01*
X112687084Y-78410901D01*
X112716831Y-78397471D01*
X112744617Y-78383298D01*
X112770418Y-78368363D01*
X112794175Y-78352633D01*
X112815859Y-78336092D01*
X112835431Y-78318706D01*
X112852848Y-78300445D01*
X112868070Y-78281296D01*
X112881058Y-78261216D01*
X112891776Y-78240193D01*
X112900185Y-78218195D01*
X112906229Y-78195191D01*
X112909895Y-78171161D01*
X112911121Y-78146075D01*
X112911056Y-78142188D01*
X112910868Y-78138343D01*
X112910558Y-78134533D01*
X112910127Y-78130756D01*
X112909579Y-78127021D01*
X112908925Y-78123328D01*
X112908174Y-78119678D01*
X112907309Y-78116080D01*
X112906351Y-78112531D01*
X112905296Y-78109023D01*
X112904155Y-78105580D01*
X112902928Y-78102189D01*
X112901619Y-78098853D01*
X112900240Y-78095569D01*
X112898774Y-78092357D01*
X112897248Y-78089203D01*
X113872483Y-77839500D01*
X113914370Y-77858403D01*
G37*
G36*
X167265341Y-99599709D02*
G01*
X167292306Y-99600614D01*
X167318860Y-99602291D01*
X167345006Y-99604820D01*
X167370739Y-99608274D01*
X167396048Y-99612730D01*
X167420934Y-99618269D01*
X167445394Y-99624962D01*
X167469424Y-99632891D01*
X167493018Y-99642137D01*
X167516178Y-99652764D01*
X167538896Y-99664857D01*
X167561164Y-99678502D01*
X167582986Y-99693760D01*
X167604356Y-99710717D01*
X167625267Y-99729447D01*
X167639553Y-99743708D01*
X167654769Y-99758714D01*
X167672821Y-99778480D01*
X167689383Y-99798724D01*
X167704506Y-99819441D01*
X167718231Y-99840624D01*
X167730604Y-99862275D01*
X167741662Y-99884378D01*
X167751454Y-99906931D01*
X167760020Y-99929925D01*
X167767407Y-99953358D01*
X167773653Y-99977219D01*
X167778805Y-100001503D01*
X167782901Y-100026208D01*
X167785993Y-100051325D01*
X167788117Y-100076843D01*
X167789322Y-100102761D01*
X167789645Y-100129073D01*
X167789678Y-100159468D01*
X167789594Y-100242663D01*
X167789574Y-100332501D01*
X167789470Y-100488040D01*
X167789329Y-100712924D01*
X167789113Y-101077806D01*
X167788871Y-101432209D01*
X167788861Y-101454507D01*
X167788790Y-101627163D01*
X167788216Y-102473124D01*
X166694070Y-102473124D01*
X166694070Y-101723875D01*
X167324395Y-101723875D01*
X167324395Y-100350244D01*
X166408643Y-100350244D01*
X166408643Y-102473124D01*
X165944821Y-102473124D01*
X165943608Y-101543630D01*
X165943514Y-101433839D01*
X165943494Y-101411762D01*
X165942987Y-101058083D01*
X165942580Y-100695044D01*
X165942253Y-100471117D01*
X165942121Y-100317462D01*
X165941984Y-100228873D01*
X165941890Y-100188248D01*
X165941942Y-100147622D01*
X165941931Y-100132999D01*
X165941848Y-100118375D01*
X165942275Y-100091275D01*
X165943954Y-100064667D01*
X165946873Y-100038540D01*
X165951025Y-100012905D01*
X165956405Y-99987743D01*
X165963007Y-99963070D01*
X165970823Y-99938872D01*
X165979846Y-99915150D01*
X165990073Y-99891901D01*
X166001497Y-99869125D01*
X166014104Y-99846820D01*
X166027891Y-99824981D01*
X166042859Y-99803610D01*
X166058994Y-99782699D01*
X166076286Y-99762255D01*
X166094734Y-99742269D01*
X166116810Y-99721658D01*
X166139283Y-99703031D01*
X166162161Y-99686298D01*
X166185464Y-99671373D01*
X166209202Y-99658160D01*
X166233391Y-99646573D01*
X166258041Y-99636515D01*
X166283165Y-99627907D01*
X166308777Y-99620647D01*
X166334889Y-99614653D01*
X166361515Y-99609828D01*
X166388666Y-99606086D01*
X166416360Y-99603337D01*
X166444603Y-99601485D01*
X166473412Y-99600448D01*
X166502800Y-99600132D01*
X166529078Y-99600072D01*
X166600000Y-99600000D01*
X166644462Y-99599966D01*
X166800018Y-99599893D01*
X166944294Y-99599741D01*
X167068745Y-99599637D01*
X167142817Y-99599553D01*
X167212601Y-99599539D01*
X167237971Y-99599498D01*
X167265341Y-99599709D01*
G37*
G36*
X123162674Y-89936071D02*
G01*
X123181318Y-89936649D01*
X123200310Y-89937598D01*
X123219534Y-89938909D01*
X123238870Y-89940581D01*
X123258193Y-89942600D01*
X123277388Y-89944963D01*
X123296326Y-89947658D01*
X123296326Y-90261796D01*
X123285731Y-90257278D01*
X123274893Y-90253014D01*
X123263824Y-90249011D01*
X123252531Y-90245270D01*
X123241034Y-90241800D01*
X123229332Y-90238607D01*
X123217433Y-90235693D01*
X123205357Y-90233063D01*
X123193104Y-90230726D01*
X123180684Y-90228682D01*
X123168113Y-90226939D01*
X123155393Y-90225501D01*
X123142545Y-90224375D01*
X123129567Y-90223562D01*
X123116474Y-90223072D01*
X123103274Y-90222908D01*
X123089744Y-90223174D01*
X123076302Y-90223963D01*
X123062968Y-90225267D01*
X123049759Y-90227067D01*
X123036701Y-90229353D01*
X123023819Y-90232110D01*
X123011126Y-90235333D01*
X122998662Y-90239002D01*
X122986436Y-90243104D01*
X122974473Y-90247634D01*
X122962799Y-90252571D01*
X122951437Y-90257910D01*
X122940413Y-90263630D01*
X122929735Y-90269726D01*
X122919442Y-90276182D01*
X122909544Y-90282984D01*
X122900073Y-90290122D01*
X122891048Y-90297582D01*
X122882491Y-90305354D01*
X122874429Y-90313421D01*
X122866880Y-90321775D01*
X122859869Y-90330402D01*
X122853417Y-90339289D01*
X122847548Y-90348422D01*
X122842283Y-90357787D01*
X122837648Y-90367378D01*
X122833665Y-90377175D01*
X122830350Y-90387171D01*
X122827738Y-90397349D01*
X122825842Y-90407702D01*
X122824688Y-90418214D01*
X122824297Y-90428870D01*
X122824297Y-91153202D01*
X122399642Y-91153202D01*
X122399642Y-89943413D01*
X122432903Y-89943604D01*
X122464383Y-89944168D01*
X122494129Y-89945078D01*
X122522194Y-89946309D01*
X122548624Y-89947849D01*
X122573464Y-89949669D01*
X122596770Y-89951750D01*
X122618586Y-89954069D01*
X122638964Y-89956604D01*
X122657953Y-89959333D01*
X122675603Y-89962236D01*
X122691959Y-89965286D01*
X122707070Y-89968467D01*
X122720988Y-89971758D01*
X122733761Y-89975129D01*
X122745437Y-89978568D01*
X122756065Y-89982047D01*
X122765696Y-89985543D01*
X122774377Y-89989039D01*
X122782157Y-89992510D01*
X122789085Y-89995935D01*
X122795213Y-89999289D01*
X122800583Y-90002558D01*
X122805248Y-90005712D01*
X122809259Y-90008733D01*
X122812668Y-90011601D01*
X122815514Y-90014291D01*
X122817851Y-90016784D01*
X122819726Y-90019049D01*
X122821191Y-90021074D01*
X122823084Y-90024308D01*
X122840846Y-90014183D01*
X122859058Y-90004595D01*
X122877701Y-89995564D01*
X122896728Y-89987108D01*
X122916121Y-89979237D01*
X122935844Y-89971968D01*
X122955868Y-89965322D01*
X122976158Y-89959306D01*
X122996692Y-89953942D01*
X123017428Y-89949243D01*
X123038346Y-89945226D01*
X123059408Y-89941902D01*
X123080585Y-89939292D01*
X123101848Y-89937405D01*
X123123160Y-89936263D01*
X123144500Y-89935878D01*
X123162674Y-89936071D01*
G37*
G36*
X111581216Y-77558820D02*
G01*
X111922019Y-77574534D01*
X111801336Y-77875569D01*
X111574102Y-77868219D01*
X111341112Y-77863938D01*
X111073900Y-77863602D01*
X110806492Y-77870487D01*
X110683345Y-77877657D01*
X110572909Y-77887856D01*
X110479436Y-77901498D01*
X110407184Y-77918985D01*
X110380342Y-77929292D01*
X110360405Y-77940724D01*
X110347887Y-77953316D01*
X110343338Y-77967125D01*
X110346180Y-77988333D01*
X110355212Y-78007616D01*
X110370025Y-78025170D01*
X110390233Y-78041198D01*
X110415415Y-78055905D01*
X110445186Y-78069496D01*
X110516855Y-78094121D01*
X110906390Y-78188213D01*
X111013400Y-78218717D01*
X111117825Y-78255235D01*
X111168067Y-78276253D01*
X111216455Y-78299390D01*
X111262591Y-78324841D01*
X111306063Y-78352800D01*
X111346488Y-78383477D01*
X111383442Y-78417081D01*
X111416537Y-78453792D01*
X111445372Y-78493836D01*
X111469536Y-78537401D01*
X111488630Y-78584692D01*
X111502259Y-78635916D01*
X111510015Y-78691263D01*
X111511279Y-78746714D01*
X111505960Y-78798181D01*
X111494433Y-78845821D01*
X111477049Y-78889777D01*
X111454181Y-78930193D01*
X111426192Y-78967219D01*
X111393455Y-79000996D01*
X111356331Y-79031660D01*
X111315185Y-79059370D01*
X111270389Y-79084261D01*
X111222307Y-79106491D01*
X111171303Y-79126202D01*
X111061996Y-79158622D01*
X110945406Y-79182697D01*
X110824452Y-79199586D01*
X110702077Y-79210451D01*
X110581205Y-79216453D01*
X110464771Y-79218761D01*
X110101965Y-79214254D01*
X109971943Y-79212945D01*
X109829411Y-79209486D01*
X109543601Y-79198998D01*
X109226614Y-79183733D01*
X109406959Y-78660744D01*
X109511863Y-78674272D01*
X109649829Y-78690004D01*
X109850871Y-78710688D01*
X109975151Y-78721964D01*
X110109544Y-78731755D01*
X110245960Y-78738293D01*
X110312390Y-78739790D01*
X110376288Y-78739819D01*
X110436645Y-78738161D01*
X110492441Y-78734580D01*
X110542676Y-78728883D01*
X110586327Y-78720831D01*
X110605365Y-78715855D01*
X110622386Y-78710209D01*
X110637254Y-78703870D01*
X110649837Y-78696803D01*
X110660027Y-78688985D01*
X110667681Y-78680385D01*
X110672678Y-78670982D01*
X110674890Y-78660744D01*
X110673357Y-78645928D01*
X110666637Y-78631843D01*
X110655069Y-78618381D01*
X110638999Y-78605436D01*
X110618779Y-78592895D01*
X110594731Y-78580659D01*
X110536560Y-78556663D01*
X110219526Y-78451269D01*
X110132865Y-78418288D01*
X110048710Y-78380940D01*
X110008426Y-78360354D01*
X109969796Y-78338365D01*
X109933159Y-78314852D01*
X109898861Y-78289704D01*
X109867241Y-78262824D01*
X109838635Y-78234101D01*
X109813401Y-78203428D01*
X109791869Y-78170695D01*
X109774377Y-78135803D01*
X109761271Y-78098634D01*
X109752905Y-78059096D01*
X109749605Y-78017067D01*
X109754975Y-77962705D01*
X109772401Y-77912655D01*
X109801067Y-77866736D01*
X109840160Y-77824794D01*
X109888897Y-77786652D01*
X109946480Y-77752142D01*
X110012094Y-77721092D01*
X110084946Y-77693342D01*
X110164236Y-77668710D01*
X110249156Y-77647033D01*
X110432704Y-77611863D01*
X110629182Y-77586473D01*
X110832177Y-77569505D01*
X111035280Y-77559618D01*
X111232093Y-77555445D01*
X111581216Y-77558820D01*
G37*
G36*
X109518752Y-75781130D02*
G01*
X109531852Y-75782023D01*
X109544729Y-75783483D01*
X109557380Y-75785514D01*
X109569789Y-75788094D01*
X109581937Y-75791207D01*
X109593812Y-75794846D01*
X109605398Y-75798996D01*
X109616679Y-75803655D01*
X109627645Y-75808791D01*
X109638277Y-75814407D01*
X109648563Y-75820482D01*
X109658492Y-75827010D01*
X109668044Y-75833972D01*
X109677205Y-75841363D01*
X109685962Y-75849157D01*
X109694303Y-75857352D01*
X109702211Y-75865931D01*
X109709666Y-75874889D01*
X109716662Y-75884206D01*
X109723185Y-75893863D01*
X109729217Y-75903860D01*
X109734737Y-75914178D01*
X109739744Y-75924807D01*
X109744208Y-75935729D01*
X109748133Y-75946937D01*
X109751489Y-75958421D01*
X109754260Y-75970158D01*
X109756457Y-75982135D01*
X109758033Y-75994360D01*
X109758992Y-76006798D01*
X109759311Y-76019441D01*
X109758992Y-76032209D01*
X109758033Y-76044752D01*
X109756457Y-76057064D01*
X109754260Y-76069127D01*
X109751489Y-76080929D01*
X109748133Y-76092454D01*
X109744208Y-76103702D01*
X109739744Y-76114661D01*
X109734737Y-76125307D01*
X109729217Y-76135639D01*
X109723185Y-76145633D01*
X109716662Y-76155287D01*
X109709666Y-76164596D01*
X109702211Y-76173528D01*
X109694303Y-76182078D01*
X109685962Y-76190243D01*
X109677205Y-76198010D01*
X109668044Y-76205358D01*
X109658492Y-76212278D01*
X109648563Y-76218761D01*
X109638277Y-76224799D01*
X109627645Y-76230369D01*
X109616679Y-76235469D01*
X109605398Y-76240082D01*
X109593812Y-76244192D01*
X109581937Y-76247795D01*
X109569789Y-76250881D01*
X109557380Y-76253425D01*
X109544729Y-76255430D01*
X109531852Y-76256873D01*
X109518752Y-76257753D01*
X109505452Y-76258047D01*
X109492149Y-76257745D01*
X109479052Y-76256857D01*
X109466171Y-76255395D01*
X109453519Y-76253366D01*
X109441112Y-76250794D01*
X109428963Y-76247675D01*
X109417086Y-76244034D01*
X109405503Y-76239882D01*
X109394223Y-76235234D01*
X109383257Y-76230087D01*
X109372622Y-76224476D01*
X109362332Y-76218394D01*
X109352409Y-76211869D01*
X109342854Y-76204906D01*
X109333695Y-76197522D01*
X109324937Y-76189725D01*
X109316597Y-76181528D01*
X109308692Y-76172948D01*
X109301230Y-76163992D01*
X109294233Y-76154679D01*
X109287713Y-76145014D01*
X109281688Y-76135019D01*
X109276160Y-76124701D01*
X109271157Y-76114076D01*
X109266686Y-76103152D01*
X109262770Y-76091943D01*
X109259411Y-76080466D01*
X109256631Y-76068727D01*
X109254443Y-76056745D01*
X109252866Y-76044527D01*
X109251909Y-76032089D01*
X109251586Y-76019441D01*
X109251909Y-76006677D01*
X109252885Y-75994130D01*
X109254479Y-75981824D01*
X109256684Y-75969762D01*
X109259500Y-75957956D01*
X109262886Y-75946424D01*
X109266845Y-75935180D01*
X109271354Y-75924220D01*
X109276393Y-75913573D01*
X109281966Y-75903243D01*
X109288038Y-75893244D01*
X109294597Y-75883593D01*
X109301639Y-75874286D01*
X109309139Y-75865357D01*
X109317083Y-75856804D01*
X109325453Y-75848636D01*
X109334241Y-75840877D01*
X109343431Y-75833527D01*
X109352999Y-75826603D01*
X109362944Y-75820118D01*
X109373241Y-75814084D01*
X109383867Y-75808517D01*
X109394822Y-75803410D01*
X109406089Y-75798803D01*
X109417641Y-75794692D01*
X109429476Y-75791086D01*
X109441575Y-75788000D01*
X109453917Y-75785455D01*
X109466489Y-75783452D01*
X109479278Y-75782011D01*
X109492269Y-75781130D01*
X109505452Y-75780833D01*
X109518752Y-75781130D01*
G37*
G36*
X139324034Y-102386363D02*
G01*
X139403104Y-102391146D01*
X139479703Y-102399016D01*
X139553806Y-102409895D01*
X139625422Y-102423699D01*
X139694530Y-102440345D01*
X139761136Y-102459759D01*
X139825214Y-102481847D01*
X139886775Y-102506541D01*
X139945799Y-102533749D01*
X140002288Y-102563391D01*
X140056222Y-102595391D01*
X140107601Y-102629661D01*
X140156421Y-102666118D01*
X140202664Y-102704694D01*
X140246335Y-102745294D01*
X140287411Y-102787841D01*
X140325893Y-102832250D01*
X140361782Y-102878444D01*
X140395050Y-102926338D01*
X140425709Y-102975851D01*
X140453736Y-103026908D01*
X140479134Y-103079412D01*
X140501893Y-103133294D01*
X140521998Y-103188473D01*
X140539450Y-103244867D01*
X140554242Y-103302386D01*
X140566354Y-103360950D01*
X140575793Y-103420489D01*
X140582546Y-103480909D01*
X140586601Y-103542134D01*
X140587951Y-103604078D01*
X140586669Y-103668961D01*
X140582804Y-103732697D01*
X140576341Y-103795231D01*
X140567263Y-103856500D01*
X140555539Y-103916445D01*
X140541170Y-103975009D01*
X140524130Y-104032125D01*
X140504389Y-104087736D01*
X140481940Y-104141784D01*
X140456766Y-104194206D01*
X140428847Y-104244946D01*
X140398152Y-104293941D01*
X140364686Y-104341132D01*
X140328410Y-104386458D01*
X140289316Y-104429856D01*
X140247384Y-104471273D01*
X140202589Y-104510644D01*
X140154923Y-104547912D01*
X140104357Y-104583012D01*
X140050886Y-104615891D01*
X139994477Y-104646479D01*
X139935118Y-104674726D01*
X139872789Y-104700566D01*
X139807478Y-104723942D01*
X139739159Y-104744794D01*
X139667816Y-104763059D01*
X139593430Y-104778675D01*
X139515982Y-104791595D01*
X139435454Y-104801743D01*
X139351831Y-104809069D01*
X139265088Y-104813505D01*
X139175213Y-104814999D01*
X138166114Y-104814999D01*
X138166114Y-104369314D01*
X138166114Y-102830435D01*
X138771574Y-102830435D01*
X138771574Y-104369314D01*
X139166805Y-104369314D01*
X139222340Y-104368120D01*
X139275457Y-104364600D01*
X139326197Y-104358836D01*
X139374605Y-104350919D01*
X139420715Y-104340930D01*
X139464581Y-104328962D01*
X139506245Y-104315093D01*
X139545744Y-104299413D01*
X139583121Y-104282008D01*
X139618427Y-104262966D01*
X139651698Y-104242373D01*
X139682982Y-104220314D01*
X139712321Y-104196875D01*
X139739756Y-104172139D01*
X139765328Y-104146201D01*
X139789087Y-104119140D01*
X139811066Y-104091045D01*
X139831314Y-104062002D01*
X139849883Y-104032092D01*
X139866805Y-104001412D01*
X139882121Y-103970039D01*
X139895878Y-103938064D01*
X139918899Y-103872645D01*
X139936208Y-103805848D01*
X139948132Y-103738364D01*
X139955039Y-103670876D01*
X139957263Y-103604078D01*
X139954577Y-103526104D01*
X139946393Y-103450122D01*
X139932546Y-103376549D01*
X139923441Y-103340804D01*
X139912852Y-103305815D01*
X139900769Y-103271642D01*
X139887158Y-103238335D01*
X139871996Y-103205949D01*
X139855272Y-103174522D01*
X139836955Y-103144123D01*
X139817032Y-103114797D01*
X139795477Y-103086602D01*
X139772269Y-103059587D01*
X139747380Y-103033801D01*
X139720794Y-103009300D01*
X139692494Y-102986134D01*
X139662453Y-102964361D01*
X139630650Y-102944023D01*
X139597066Y-102925184D01*
X139561673Y-102907886D01*
X139524460Y-102892191D01*
X139485396Y-102878145D01*
X139444460Y-102865801D01*
X139401636Y-102855213D01*
X139356900Y-102846431D01*
X139310227Y-102839511D01*
X139261601Y-102834507D01*
X139210998Y-102831463D01*
X139158396Y-102830435D01*
X138771574Y-102830435D01*
X138166114Y-102830435D01*
X138166114Y-102384748D01*
X139242488Y-102384748D01*
X139324034Y-102386363D01*
G37*
G36*
X112115422Y-75751697D02*
G01*
X112170556Y-75755719D01*
X112222106Y-75762214D01*
X112270184Y-75770996D01*
X112314916Y-75781900D01*
X112356428Y-75794742D01*
X112394827Y-75809340D01*
X112430254Y-75825529D01*
X112462809Y-75843128D01*
X112492621Y-75861966D01*
X112519809Y-75881854D01*
X112544504Y-75902627D01*
X112566811Y-75924104D01*
X112586862Y-75946107D01*
X112604781Y-75968471D01*
X112620667Y-75990998D01*
X112634664Y-76013538D01*
X112646878Y-76035896D01*
X112657442Y-76057899D01*
X112666471Y-76079377D01*
X112680394Y-76120045D01*
X112689621Y-76156475D01*
X112695121Y-76187265D01*
X112697847Y-76211003D01*
X112698874Y-76231690D01*
X112698874Y-76378734D01*
X112697409Y-76383684D01*
X112695246Y-76389358D01*
X112691831Y-76396729D01*
X112686946Y-76405441D01*
X112680371Y-76415166D01*
X112671872Y-76425569D01*
X112661250Y-76436304D01*
X112648257Y-76447046D01*
X112640817Y-76452307D01*
X112632694Y-76457444D01*
X112623878Y-76462409D01*
X112614337Y-76467172D01*
X112604028Y-76471676D01*
X112592945Y-76475887D01*
X112581048Y-76479761D01*
X112568315Y-76483252D01*
X112554718Y-76486320D01*
X112540228Y-76488927D01*
X112524811Y-76491033D01*
X112508442Y-76492578D01*
X112491104Y-76493548D01*
X112472753Y-76493879D01*
X112454361Y-76493536D01*
X112436880Y-76492552D01*
X112420293Y-76490960D01*
X112404570Y-76488810D01*
X112389703Y-76486140D01*
X112375656Y-76482996D01*
X112362421Y-76479418D01*
X112349961Y-76475452D01*
X112338270Y-76471145D01*
X112327313Y-76466524D01*
X112317082Y-76461651D01*
X112307546Y-76456563D01*
X112298684Y-76451305D01*
X112290476Y-76445916D01*
X112282908Y-76440440D01*
X112275941Y-76434921D01*
X112269570Y-76429395D01*
X112263759Y-76423924D01*
X112258501Y-76418535D01*
X112253765Y-76413270D01*
X112249531Y-76408181D01*
X112245779Y-76403311D01*
X112239638Y-76394385D01*
X112235158Y-76386839D01*
X112232167Y-76381027D01*
X112229991Y-76375957D01*
X112229991Y-76237240D01*
X112227002Y-76233361D01*
X112217569Y-76223150D01*
X112210199Y-76216322D01*
X112200941Y-76208706D01*
X112189710Y-76200561D01*
X112176409Y-76192153D01*
X112160942Y-76183745D01*
X112143220Y-76175597D01*
X112123151Y-76167983D01*
X112100647Y-76161153D01*
X112075618Y-76155389D01*
X112047967Y-76150938D01*
X112033130Y-76149299D01*
X112017609Y-76148078D01*
X112001384Y-76147328D01*
X111984446Y-76147063D01*
X111964938Y-76147605D01*
X111946692Y-76149189D01*
X111929672Y-76151732D01*
X111913834Y-76155174D01*
X111899130Y-76159445D01*
X111885527Y-76164479D01*
X111872978Y-76170202D01*
X111861436Y-76176546D01*
X111850868Y-76183440D01*
X111841228Y-76190822D01*
X111832468Y-76198623D01*
X111824556Y-76206763D01*
X111817439Y-76215178D01*
X111811080Y-76223807D01*
X111805430Y-76232565D01*
X111800463Y-76241400D01*
X111796118Y-76250232D01*
X111792365Y-76258992D01*
X111789159Y-76267619D01*
X111786454Y-76276035D01*
X111782376Y-76291979D01*
X111779812Y-76306256D01*
X111778398Y-76318318D01*
X111777811Y-76327629D01*
X111777750Y-76335732D01*
X111777750Y-77378933D01*
X111314413Y-77378933D01*
X111314413Y-76267755D01*
X111315404Y-76245520D01*
X111318354Y-76220001D01*
X111324446Y-76186908D01*
X111334827Y-76147747D01*
X111350622Y-76104034D01*
X111372979Y-76057290D01*
X111386967Y-76033256D01*
X111403023Y-76009037D01*
X111421281Y-75984813D01*
X111441897Y-75960783D01*
X111464990Y-75937125D01*
X111490730Y-75914039D01*
X111519239Y-75891712D01*
X111550659Y-75870324D01*
X111585149Y-75850080D01*
X111622832Y-75831166D01*
X111663859Y-75813765D01*
X111708376Y-75798064D01*
X111756517Y-75784263D01*
X111808419Y-75772549D01*
X111864240Y-75763108D01*
X111924110Y-75756126D01*
X111988176Y-75751800D01*
X112056580Y-75750317D01*
X112115422Y-75751697D01*
G37*
G36*
X126072735Y-89910865D02*
G01*
X126098752Y-89912451D01*
X126124437Y-89915065D01*
X126149745Y-89918675D01*
X126174649Y-89923259D01*
X126199108Y-89928785D01*
X126223092Y-89935228D01*
X126246565Y-89942560D01*
X126269489Y-89950756D01*
X126291834Y-89959794D01*
X126313560Y-89969633D01*
X126334630Y-89980256D01*
X126355017Y-89991632D01*
X126374683Y-90003741D01*
X126393586Y-90016547D01*
X126411701Y-90030024D01*
X126428990Y-90044151D01*
X126445413Y-90058898D01*
X126460941Y-90074234D01*
X126475539Y-90090140D01*
X126489168Y-90106582D01*
X126501800Y-90123533D01*
X126513389Y-90140975D01*
X126523913Y-90158869D01*
X126533325Y-90177193D01*
X126541597Y-90195920D01*
X126548691Y-90215027D01*
X126554574Y-90234476D01*
X126559214Y-90254253D01*
X126562569Y-90274322D01*
X126564611Y-90294659D01*
X126565297Y-90315236D01*
X126565297Y-91153202D01*
X126130855Y-91153202D01*
X126131722Y-90338361D01*
X126131449Y-90330441D01*
X126130643Y-90322636D01*
X126129319Y-90314955D01*
X126127492Y-90307406D01*
X126125179Y-90299994D01*
X126122404Y-90292738D01*
X126119173Y-90285638D01*
X126115504Y-90278702D01*
X126111421Y-90271947D01*
X126106933Y-90265375D01*
X126102059Y-90258997D01*
X126096818Y-90252821D01*
X126091225Y-90246857D01*
X126085290Y-90241114D01*
X126072486Y-90230324D01*
X126058533Y-90220522D01*
X126043563Y-90211778D01*
X126027710Y-90204164D01*
X126011104Y-90197749D01*
X125993872Y-90192601D01*
X125976160Y-90188796D01*
X125958089Y-90186404D01*
X125939785Y-90185493D01*
X125926826Y-90185909D01*
X125914225Y-90186988D01*
X125901992Y-90188711D01*
X125890137Y-90191052D01*
X125878650Y-90193980D01*
X125867541Y-90197478D01*
X125856818Y-90201515D01*
X125846476Y-90206074D01*
X125836522Y-90211125D01*
X125826951Y-90216640D01*
X125817778Y-90222598D01*
X125808996Y-90228974D01*
X125800619Y-90235742D01*
X125792645Y-90242880D01*
X125785065Y-90250361D01*
X125777899Y-90258161D01*
X125771141Y-90266251D01*
X125764806Y-90274612D01*
X125758880Y-90283215D01*
X125753379Y-90292039D01*
X125748296Y-90301054D01*
X125743636Y-90310238D01*
X125739414Y-90319570D01*
X125735619Y-90329017D01*
X125729335Y-90348175D01*
X125724822Y-90367510D01*
X125723232Y-90377180D01*
X125722097Y-90386823D01*
X125721413Y-90396411D01*
X125721185Y-90405916D01*
X125721185Y-91153202D01*
X125287866Y-91153202D01*
X125287866Y-89918036D01*
X125324216Y-89918268D01*
X125358418Y-89918940D01*
X125390567Y-89920020D01*
X125420702Y-89921484D01*
X125448909Y-89923304D01*
X125475231Y-89925451D01*
X125499750Y-89927894D01*
X125522511Y-89930604D01*
X125543601Y-89933556D01*
X125563067Y-89936716D01*
X125580980Y-89940059D01*
X125597405Y-89943553D01*
X125612406Y-89947175D01*
X125626043Y-89950889D01*
X125638389Y-89954674D01*
X125649505Y-89958495D01*
X125659442Y-89962324D01*
X125668285Y-89966137D01*
X125676093Y-89969901D01*
X125682913Y-89973584D01*
X125688835Y-89977167D01*
X125693904Y-89980614D01*
X125698196Y-89983896D01*
X125701772Y-89986985D01*
X125704688Y-89989857D01*
X125707021Y-89992477D01*
X125708833Y-89994823D01*
X125710180Y-89996858D01*
X125711756Y-89999895D01*
X125712265Y-90001358D01*
X125729450Y-89990943D01*
X125747089Y-89981084D01*
X125765168Y-89971794D01*
X125783655Y-89963090D01*
X125802533Y-89954991D01*
X125821780Y-89947510D01*
X125841380Y-89940665D01*
X125861310Y-89934471D01*
X125881541Y-89928946D01*
X125902067Y-89924103D01*
X125922854Y-89919961D01*
X125943884Y-89916537D01*
X125965134Y-89913845D01*
X125986599Y-89911902D01*
X126008239Y-89910724D01*
X126030040Y-89910329D01*
X126031042Y-89910344D01*
X126032054Y-89910384D01*
X126033058Y-89910445D01*
X126034078Y-89910512D01*
X126036113Y-89910660D01*
X126037143Y-89910719D01*
X126038181Y-89910761D01*
X126039215Y-89910719D01*
X126040248Y-89910658D01*
X126042291Y-89910512D01*
X126043317Y-89910445D01*
X126044344Y-89910384D01*
X126045373Y-89910344D01*
X126046405Y-89910329D01*
X126072735Y-89910865D01*
G37*
G36*
X121633218Y-89933448D02*
G01*
X121670620Y-89935261D01*
X121707799Y-89938301D01*
X121744798Y-89942589D01*
X121781656Y-89948146D01*
X121818420Y-89954987D01*
X121855135Y-89963127D01*
X121891842Y-89972592D01*
X121928583Y-89983393D01*
X121965410Y-89995553D01*
X122002354Y-90009088D01*
X122039468Y-90024012D01*
X122076795Y-90040353D01*
X122114377Y-90058119D01*
X122152256Y-90077334D01*
X122190474Y-90098015D01*
X122046094Y-90283536D01*
X122021207Y-90271934D01*
X121995789Y-90260947D01*
X121969870Y-90250595D01*
X121943457Y-90240891D01*
X121916579Y-90231861D01*
X121889249Y-90223519D01*
X121861490Y-90215884D01*
X121833325Y-90208975D01*
X121804765Y-90202810D01*
X121775837Y-90197408D01*
X121746555Y-90192785D01*
X121716939Y-90188961D01*
X121687011Y-90185959D01*
X121656792Y-90183786D01*
X121626295Y-90182474D01*
X121595546Y-90182028D01*
X121558683Y-90183322D01*
X121521487Y-90187246D01*
X121484335Y-90193885D01*
X121447594Y-90203307D01*
X121411648Y-90215584D01*
X121376862Y-90230797D01*
X121360026Y-90239528D01*
X121343617Y-90249022D01*
X121327690Y-90259287D01*
X121312285Y-90270328D01*
X121297446Y-90282162D01*
X121283232Y-90294795D01*
X121269683Y-90308234D01*
X121256843Y-90322492D01*
X121244764Y-90337576D01*
X121233487Y-90353498D01*
X121223066Y-90370268D01*
X121213541Y-90387888D01*
X121204961Y-90406376D01*
X121197375Y-90425739D01*
X121190826Y-90445984D01*
X121185365Y-90467118D01*
X121181034Y-90489157D01*
X121177883Y-90512108D01*
X121175959Y-90535979D01*
X121175306Y-90560779D01*
X121175951Y-90585565D01*
X121177848Y-90609418D01*
X121180956Y-90632353D01*
X121185231Y-90654379D01*
X121190623Y-90675499D01*
X121197092Y-90695732D01*
X121204590Y-90715080D01*
X121213076Y-90733554D01*
X121222504Y-90751165D01*
X121232824Y-90767922D01*
X121243997Y-90783834D01*
X121255975Y-90798909D01*
X121268715Y-90813156D01*
X121282170Y-90826588D01*
X121296295Y-90839211D01*
X121311050Y-90851035D01*
X121326382Y-90862072D01*
X121342248Y-90872324D01*
X121358610Y-90881811D01*
X121375414Y-90890535D01*
X121392626Y-90898506D01*
X121410189Y-90905738D01*
X121428065Y-90912235D01*
X121446206Y-90918008D01*
X121483112Y-90927424D01*
X121520538Y-90934055D01*
X121558140Y-90937980D01*
X121595546Y-90939267D01*
X121626333Y-90938886D01*
X121656943Y-90937738D01*
X121687344Y-90935838D01*
X121717512Y-90933199D01*
X121747431Y-90929829D01*
X121777068Y-90925742D01*
X121806402Y-90920945D01*
X121835402Y-90915455D01*
X121864050Y-90909274D01*
X121892320Y-90902420D01*
X121920185Y-90894899D01*
X121947623Y-90886726D01*
X121974607Y-90877913D01*
X122001113Y-90868466D01*
X122027115Y-90858401D01*
X122052592Y-90847721D01*
X122197231Y-91043464D01*
X122164665Y-91060191D01*
X122131259Y-91075995D01*
X122097041Y-91090856D01*
X122062049Y-91104751D01*
X122026304Y-91117654D01*
X121989842Y-91129554D01*
X121952689Y-91140420D01*
X121914879Y-91150233D01*
X121876439Y-91158976D01*
X121837401Y-91166621D01*
X121797792Y-91173148D01*
X121757643Y-91178539D01*
X121716984Y-91182765D01*
X121675849Y-91185814D01*
X121634260Y-91187656D01*
X121592252Y-91188276D01*
X121506517Y-91185251D01*
X121422427Y-91176320D01*
X121340516Y-91161720D01*
X121261327Y-91141678D01*
X121185389Y-91116426D01*
X121113238Y-91086197D01*
X121045413Y-91051216D01*
X120982456Y-91011720D01*
X120924895Y-90967936D01*
X120898304Y-90944510D01*
X120873266Y-90920099D01*
X120849851Y-90894726D01*
X120828111Y-90868427D01*
X120808129Y-90841232D01*
X120789964Y-90813168D01*
X120773683Y-90784258D01*
X120759361Y-90754542D01*
X120747054Y-90724039D01*
X120736837Y-90692781D01*
X120728772Y-90660798D01*
X120722929Y-90628117D01*
X120719370Y-90594766D01*
X120718171Y-90560779D01*
X120719370Y-90526775D01*
X120722929Y-90493408D01*
X120728773Y-90460711D01*
X120736842Y-90428710D01*
X120747066Y-90397435D01*
X120759381Y-90366912D01*
X120773718Y-90337176D01*
X120790014Y-90308249D01*
X120808202Y-90280166D01*
X120828213Y-90252954D01*
X120849982Y-90226635D01*
X120873441Y-90201250D01*
X120898525Y-90176820D01*
X120925169Y-90153372D01*
X120953307Y-90130944D01*
X120982868Y-90109558D01*
X121013789Y-90089239D01*
X121046001Y-90070027D01*
X121079442Y-90051946D01*
X121114043Y-90035020D01*
X121149737Y-90019283D01*
X121186457Y-90004763D01*
X121224141Y-89991490D01*
X121262719Y-89979490D01*
X121302119Y-89968794D01*
X121342279Y-89959432D01*
X121383141Y-89951430D01*
X121424633Y-89944818D01*
X121466684Y-89939626D01*
X121509230Y-89935878D01*
X121552206Y-89933611D01*
X121595546Y-89932847D01*
X121633218Y-89933448D01*
G37*
G36*
X119954114Y-88983983D02*
G01*
X119988166Y-88986426D01*
X120020584Y-88990630D01*
X120051325Y-88996609D01*
X120080358Y-89004375D01*
X120107647Y-89013953D01*
X120133159Y-89025347D01*
X120156854Y-89038568D01*
X120178702Y-89053637D01*
X120198668Y-89070562D01*
X120216710Y-89089358D01*
X120232801Y-89110045D01*
X120246242Y-89131446D01*
X120257630Y-89154212D01*
X120266974Y-89178297D01*
X120274296Y-89203661D01*
X120279601Y-89230275D01*
X120282907Y-89258096D01*
X120284228Y-89287091D01*
X120283576Y-89317218D01*
X120276400Y-89380731D01*
X120261493Y-89448332D01*
X120238952Y-89519732D01*
X120208884Y-89594626D01*
X120171408Y-89672712D01*
X120126608Y-89753705D01*
X120074612Y-89837299D01*
X120015510Y-89923193D01*
X119949406Y-90011105D01*
X119876420Y-90100717D01*
X119796644Y-90191744D01*
X119710193Y-90283884D01*
X119662064Y-90332680D01*
X119612139Y-90381669D01*
X119560427Y-90430802D01*
X119506947Y-90480037D01*
X119451707Y-90529330D01*
X119394723Y-90578633D01*
X119336012Y-90627906D01*
X119275579Y-90677098D01*
X119204195Y-90733294D01*
X119130598Y-90789305D01*
X119054821Y-90845059D01*
X118976854Y-90900470D01*
X118876086Y-90970441D01*
X118764832Y-91046442D01*
X118653897Y-91120155D01*
X118601930Y-91153554D01*
X118554105Y-91183256D01*
X118535224Y-91194515D01*
X118524977Y-91200701D01*
X118514923Y-91206573D01*
X118505090Y-91212119D01*
X118495513Y-91217312D01*
X118486229Y-91222146D01*
X118477272Y-91226597D01*
X118468675Y-91230645D01*
X118460478Y-91234269D01*
X118457286Y-91235568D01*
X118454277Y-91236649D01*
X118451452Y-91237516D01*
X118448804Y-91238182D01*
X118446330Y-91238652D01*
X118444039Y-91238943D01*
X118441922Y-91239053D01*
X118439969Y-91238997D01*
X118438192Y-91238783D01*
X118436586Y-91238419D01*
X118435142Y-91237912D01*
X118433875Y-91237275D01*
X118432771Y-91236513D01*
X118431827Y-91235636D01*
X118431042Y-91234654D01*
X118430423Y-91233576D01*
X118429966Y-91232411D01*
X118429662Y-91231166D01*
X118429512Y-91229847D01*
X118429526Y-91228464D01*
X118429686Y-91227034D01*
X118430001Y-91225554D01*
X118430466Y-91224042D01*
X118431077Y-91222503D01*
X118431836Y-91220945D01*
X118432746Y-91219380D01*
X118433797Y-91217811D01*
X118434981Y-91216253D01*
X118436319Y-91214713D01*
X118437798Y-91213197D01*
X118439416Y-91211717D01*
X118441165Y-91210278D01*
X118448879Y-91204351D01*
X118457075Y-91198267D01*
X118465720Y-91192031D01*
X118474796Y-91185646D01*
X118494099Y-91172460D01*
X118514782Y-91158746D01*
X118520074Y-91155380D01*
X118525423Y-91152032D01*
X118536266Y-91145320D01*
X118579041Y-91118878D01*
X118625866Y-91088630D01*
X118675381Y-91055615D01*
X118726226Y-91020868D01*
X118826481Y-90950336D01*
X118915794Y-90885311D01*
X118989913Y-90828996D01*
X119061987Y-90771596D01*
X119199738Y-90654101D01*
X119328524Y-90533955D01*
X119447837Y-90412277D01*
X119557159Y-90290197D01*
X119655989Y-90168835D01*
X119743803Y-90049315D01*
X119820090Y-89932762D01*
X119884337Y-89820303D01*
X119911787Y-89765961D01*
X119936035Y-89713063D01*
X119957021Y-89661750D01*
X119974668Y-89612160D01*
X119988928Y-89564442D01*
X119999723Y-89518726D01*
X120007001Y-89475160D01*
X120010694Y-89433881D01*
X120010734Y-89395030D01*
X120007051Y-89358750D01*
X119999600Y-89325174D01*
X119988302Y-89294453D01*
X119973091Y-89266723D01*
X119953916Y-89242127D01*
X119939344Y-89227622D01*
X119923433Y-89214308D01*
X119887722Y-89191206D01*
X119846956Y-89172818D01*
X119801313Y-89159114D01*
X119750991Y-89150077D01*
X119696159Y-89145691D01*
X119637003Y-89145926D01*
X119573699Y-89150773D01*
X119506438Y-89160207D01*
X119435397Y-89174214D01*
X119360762Y-89192775D01*
X119282704Y-89215865D01*
X119201414Y-89243470D01*
X119117075Y-89275565D01*
X119029865Y-89312135D01*
X118939959Y-89353163D01*
X118928688Y-89358572D01*
X118917736Y-89363582D01*
X118907114Y-89368227D01*
X118896806Y-89372540D01*
X118886813Y-89376551D01*
X118877139Y-89380293D01*
X118858719Y-89387115D01*
X118856563Y-89387833D01*
X118854445Y-89388410D01*
X118852376Y-89388852D01*
X118850359Y-89389165D01*
X118848404Y-89389344D01*
X118846512Y-89389406D01*
X118844703Y-89389338D01*
X118842979Y-89389157D01*
X118841350Y-89388858D01*
X118839824Y-89388447D01*
X118838410Y-89387929D01*
X118837109Y-89387300D01*
X118835937Y-89386576D01*
X118834896Y-89385752D01*
X118834009Y-89384832D01*
X118833267Y-89383821D01*
X118832680Y-89382723D01*
X118832264Y-89381537D01*
X118832029Y-89380268D01*
X118831973Y-89378931D01*
X118832111Y-89377511D01*
X118832449Y-89376019D01*
X118832997Y-89374460D01*
X118833756Y-89372840D01*
X118834745Y-89371153D01*
X118835973Y-89369412D01*
X118837437Y-89367616D01*
X118839150Y-89365765D01*
X118841120Y-89363867D01*
X118843363Y-89361926D01*
X118845873Y-89359943D01*
X118848671Y-89357925D01*
X118856094Y-89352933D01*
X118864112Y-89347786D01*
X118872681Y-89342520D01*
X118881760Y-89337174D01*
X118891307Y-89331769D01*
X118901288Y-89326343D01*
X118911657Y-89320934D01*
X118922380Y-89315570D01*
X119042246Y-89254234D01*
X119158352Y-89198850D01*
X119270431Y-89149538D01*
X119378192Y-89106392D01*
X119481353Y-89069528D01*
X119579644Y-89039054D01*
X119672784Y-89015086D01*
X119717327Y-89005576D01*
X119760479Y-88997730D01*
X119802204Y-88991562D01*
X119842465Y-88987097D01*
X119881226Y-88984330D01*
X119918451Y-88983287D01*
X119954114Y-88983983D01*
G37*
G36*
X124267085Y-89928847D02*
G01*
X124310049Y-89931115D01*
X124352582Y-89934864D01*
X124394621Y-89940057D01*
X124436101Y-89946668D01*
X124476960Y-89954668D01*
X124517115Y-89964032D01*
X124556515Y-89974729D01*
X124595092Y-89986728D01*
X124632771Y-90000000D01*
X124669496Y-90014524D01*
X124705185Y-90030257D01*
X124739788Y-90047182D01*
X124773236Y-90065265D01*
X124805449Y-90084480D01*
X124836376Y-90104795D01*
X124865939Y-90126181D01*
X124894081Y-90148613D01*
X124920729Y-90172057D01*
X124945819Y-90196488D01*
X124969287Y-90221872D01*
X124991058Y-90248190D01*
X125011076Y-90275402D01*
X125029269Y-90303488D01*
X125045569Y-90332413D01*
X125059913Y-90362151D01*
X125072230Y-90392673D01*
X125082459Y-90423949D01*
X125090527Y-90455950D01*
X125096372Y-90488647D01*
X125099931Y-90522012D01*
X125101133Y-90556017D01*
X125099931Y-90589997D01*
X125096372Y-90623338D01*
X125090527Y-90656013D01*
X125082459Y-90687993D01*
X125072230Y-90719247D01*
X125059913Y-90749747D01*
X125045569Y-90779464D01*
X125029269Y-90808367D01*
X125011076Y-90836433D01*
X124991058Y-90863627D01*
X124969287Y-90889924D01*
X124945819Y-90915295D01*
X124920729Y-90939709D01*
X124894081Y-90963137D01*
X124836376Y-91006925D01*
X124773236Y-91046428D01*
X124705185Y-91081412D01*
X124632771Y-91111650D01*
X124556515Y-91136905D01*
X124476960Y-91156951D01*
X124394621Y-91171553D01*
X124310049Y-91180487D01*
X124223764Y-91183513D01*
X124180421Y-91182751D01*
X124137443Y-91180487D01*
X124094894Y-91176744D01*
X124052843Y-91171553D01*
X124011351Y-91164948D01*
X123970483Y-91156951D01*
X123930315Y-91147595D01*
X123890908Y-91136905D01*
X123852323Y-91124913D01*
X123814633Y-91111650D01*
X123777904Y-91097138D01*
X123742203Y-91081412D01*
X123707595Y-91064497D01*
X123674152Y-91046428D01*
X123641925Y-91027223D01*
X123610995Y-91006925D01*
X123581427Y-90985550D01*
X123553286Y-90963137D01*
X123526632Y-90939709D01*
X123501542Y-90915295D01*
X123478073Y-90889924D01*
X123456297Y-90863627D01*
X123436276Y-90836433D01*
X123418085Y-90808367D01*
X123401783Y-90779464D01*
X123387440Y-90749747D01*
X123375122Y-90719247D01*
X123364891Y-90687993D01*
X123356824Y-90656013D01*
X123350973Y-90623338D01*
X123347422Y-90589997D01*
X123346220Y-90556017D01*
X123803525Y-90556017D01*
X123804174Y-90580802D01*
X123806099Y-90604655D01*
X123809249Y-90627592D01*
X123813578Y-90649616D01*
X123819037Y-90670739D01*
X123825579Y-90690969D01*
X123833168Y-90710318D01*
X123841746Y-90728790D01*
X123851268Y-90746402D01*
X123861686Y-90763160D01*
X123872961Y-90779071D01*
X123885039Y-90794147D01*
X123897875Y-90808393D01*
X123911419Y-90821823D01*
X123925630Y-90834448D01*
X123940464Y-90846272D01*
X123955867Y-90857307D01*
X123971794Y-90867565D01*
X123988206Y-90877049D01*
X124005044Y-90885772D01*
X124039827Y-90900978D01*
X124075773Y-90913247D01*
X124112520Y-90922663D01*
X124149677Y-90929291D01*
X124186886Y-90933217D01*
X124223764Y-90934511D01*
X124260622Y-90933217D01*
X124297816Y-90929291D01*
X124334970Y-90922663D01*
X124371709Y-90913247D01*
X124389805Y-90907472D01*
X124407656Y-90900978D01*
X124425216Y-90893743D01*
X124442443Y-90885772D01*
X124459282Y-90877049D01*
X124475685Y-90867565D01*
X124491616Y-90857307D01*
X124507026Y-90846272D01*
X124521857Y-90834448D01*
X124536072Y-90821823D01*
X124549622Y-90808393D01*
X124562460Y-90794147D01*
X124574546Y-90779071D01*
X124585816Y-90763160D01*
X124596240Y-90746402D01*
X124605765Y-90728790D01*
X124614342Y-90710318D01*
X124621930Y-90690969D01*
X124628476Y-90670739D01*
X124633942Y-90649616D01*
X124638274Y-90627592D01*
X124641424Y-90604655D01*
X124643346Y-90580802D01*
X124644000Y-90556017D01*
X124643346Y-90531208D01*
X124641424Y-90507330D01*
X124638274Y-90484376D01*
X124633942Y-90462332D01*
X124628476Y-90441191D01*
X124621930Y-90420943D01*
X124614342Y-90401580D01*
X124605765Y-90383091D01*
X124596240Y-90365467D01*
X124585816Y-90348700D01*
X124574546Y-90332775D01*
X124562460Y-90317691D01*
X124549622Y-90303434D01*
X124536072Y-90289994D01*
X124521857Y-90277364D01*
X124507026Y-90265531D01*
X124491616Y-90254493D01*
X124475685Y-90244232D01*
X124459282Y-90234740D01*
X124442443Y-90226013D01*
X124407656Y-90210804D01*
X124371709Y-90198529D01*
X124334970Y-90189114D01*
X124297816Y-90182484D01*
X124260622Y-90178557D01*
X124223764Y-90177266D01*
X124186886Y-90178557D01*
X124149677Y-90182484D01*
X124112520Y-90189114D01*
X124075773Y-90198529D01*
X124057679Y-90204306D01*
X124039827Y-90210804D01*
X124022264Y-90218037D01*
X124005044Y-90226013D01*
X123988206Y-90234740D01*
X123971794Y-90244232D01*
X123955867Y-90254493D01*
X123940464Y-90265531D01*
X123925630Y-90277364D01*
X123911419Y-90289994D01*
X123897875Y-90303434D01*
X123885039Y-90317691D01*
X123872961Y-90332775D01*
X123861686Y-90348700D01*
X123851268Y-90365467D01*
X123841746Y-90383091D01*
X123833168Y-90401580D01*
X123825579Y-90420943D01*
X123819037Y-90441191D01*
X123813578Y-90462332D01*
X123809249Y-90484376D01*
X123806099Y-90507330D01*
X123804174Y-90531208D01*
X123803525Y-90556017D01*
X123346220Y-90556017D01*
X123347422Y-90522012D01*
X123350973Y-90488647D01*
X123356824Y-90455950D01*
X123364891Y-90423949D01*
X123375122Y-90392673D01*
X123387440Y-90362151D01*
X123401783Y-90332413D01*
X123418085Y-90303488D01*
X123436276Y-90275402D01*
X123456297Y-90248190D01*
X123478073Y-90221872D01*
X123501542Y-90196488D01*
X123526632Y-90172057D01*
X123553286Y-90148613D01*
X123610995Y-90104795D01*
X123674152Y-90065265D01*
X123742203Y-90030257D01*
X123814633Y-90000000D01*
X123890908Y-89974729D01*
X123970483Y-89954668D01*
X124052843Y-89940057D01*
X124137443Y-89931115D01*
X124223764Y-89928085D01*
X124267085Y-89928847D01*
G37*
G36*
X111037398Y-75761149D02*
G01*
X111047457Y-75762623D01*
X111060502Y-75765097D01*
X111075938Y-75768895D01*
X111093160Y-75774316D01*
X111111585Y-75781662D01*
X111121052Y-75786151D01*
X111130603Y-75791244D01*
X111140147Y-75796962D01*
X111149617Y-75803350D01*
X111158940Y-75810452D01*
X111168042Y-75818306D01*
X111176840Y-75826949D01*
X111185267Y-75836410D01*
X111193242Y-75846730D01*
X111200695Y-75857962D01*
X111207556Y-75870122D01*
X111213745Y-75883263D01*
X111219184Y-75897423D01*
X111223803Y-75912628D01*
X111227521Y-75928934D01*
X111230272Y-75946360D01*
X111231981Y-75964954D01*
X111232563Y-75984762D01*
X111231981Y-76004579D01*
X111230272Y-76023226D01*
X111227521Y-76040731D01*
X111223803Y-76057125D01*
X111219184Y-76072458D01*
X111213745Y-76086761D01*
X111207556Y-76100061D01*
X111200695Y-76112407D01*
X111193242Y-76123826D01*
X111185267Y-76134364D01*
X111176840Y-76144030D01*
X111168036Y-76152894D01*
X111158940Y-76160970D01*
X111149617Y-76168307D01*
X111140147Y-76174931D01*
X111130603Y-76180884D01*
X111121052Y-76186193D01*
X111111585Y-76190904D01*
X111093160Y-76198661D01*
X111075938Y-76204433D01*
X111060502Y-76208519D01*
X111047457Y-76211199D01*
X111037397Y-76212751D01*
X111028637Y-76213653D01*
X110748419Y-76213653D01*
X110725099Y-76214097D01*
X110702482Y-76215416D01*
X110680566Y-76217589D01*
X110659356Y-76220600D01*
X110638859Y-76224432D01*
X110619072Y-76229052D01*
X110600000Y-76234455D01*
X110581643Y-76240621D01*
X110564010Y-76247518D01*
X110547092Y-76255143D01*
X110530902Y-76263468D01*
X110515441Y-76272473D01*
X110500706Y-76282138D01*
X110486707Y-76292447D01*
X110473439Y-76303387D01*
X110460909Y-76314924D01*
X110449123Y-76327044D01*
X110438074Y-76339740D01*
X110427771Y-76352980D01*
X110418218Y-76366738D01*
X110409412Y-76381013D01*
X110401355Y-76395774D01*
X110394055Y-76411004D01*
X110387519Y-76426682D01*
X110381736Y-76442792D01*
X110376717Y-76459316D01*
X110372467Y-76476231D01*
X110368980Y-76493519D01*
X110366265Y-76511162D01*
X110364316Y-76529141D01*
X110363152Y-76547427D01*
X110362761Y-76566012D01*
X110363152Y-76584609D01*
X110364316Y-76602918D01*
X110366265Y-76620937D01*
X110368980Y-76638627D01*
X110372467Y-76655979D01*
X110376717Y-76672968D01*
X110381736Y-76689575D01*
X110387519Y-76705775D01*
X110394055Y-76721563D01*
X110401355Y-76736896D01*
X110409412Y-76751779D01*
X110418218Y-76766164D01*
X110427771Y-76780052D01*
X110438074Y-76793419D01*
X110449123Y-76806235D01*
X110460909Y-76818488D01*
X110473439Y-76830156D01*
X110486707Y-76841223D01*
X110500706Y-76851661D01*
X110515441Y-76861455D01*
X110530902Y-76870580D01*
X110547092Y-76879016D01*
X110564010Y-76886744D01*
X110581643Y-76893751D01*
X110600000Y-76900000D01*
X110619072Y-76905492D01*
X110638859Y-76910185D01*
X110659356Y-76914080D01*
X110680566Y-76917143D01*
X110702482Y-76919351D01*
X110725099Y-76920695D01*
X110748419Y-76921142D01*
X111028637Y-76921142D01*
X111037397Y-76922870D01*
X111047457Y-76925287D01*
X111060502Y-76928972D01*
X111075938Y-76934094D01*
X111093160Y-76940826D01*
X111111585Y-76949342D01*
X111121052Y-76954326D01*
X111130603Y-76959814D01*
X111140147Y-76965846D01*
X111149617Y-76972418D01*
X111158940Y-76979575D01*
X111168036Y-76987323D01*
X111176840Y-76995695D01*
X111185267Y-77004702D01*
X111193242Y-77014377D01*
X111200695Y-77024733D01*
X111207556Y-77035795D01*
X111213745Y-77047581D01*
X111219184Y-77060121D01*
X111223803Y-77073429D01*
X111227521Y-77087526D01*
X111230272Y-77102432D01*
X111231981Y-77118183D01*
X111232563Y-77134785D01*
X111231981Y-77151449D01*
X111230272Y-77167395D01*
X111227521Y-77182618D01*
X111223803Y-77197151D01*
X111219184Y-77210987D01*
X111213745Y-77224157D01*
X111207556Y-77236658D01*
X111200695Y-77248512D01*
X111193242Y-77259731D01*
X111185267Y-77270324D01*
X111176840Y-77280313D01*
X111168036Y-77289699D01*
X111158940Y-77298499D01*
X111149617Y-77306734D01*
X111140147Y-77314413D01*
X111130603Y-77321538D01*
X111111585Y-77334208D01*
X111093160Y-77344858D01*
X111075938Y-77353581D01*
X111060502Y-77360488D01*
X111037397Y-77369261D01*
X111028637Y-77371996D01*
X110730380Y-77371996D01*
X110647471Y-77368555D01*
X110565119Y-77358305D01*
X110483995Y-77341368D01*
X110404752Y-77317854D01*
X110328051Y-77287886D01*
X110290858Y-77270519D01*
X110254556Y-77251583D01*
X110219218Y-77231094D01*
X110184921Y-77209065D01*
X110151772Y-77185511D01*
X110119821Y-77160445D01*
X110089178Y-77133883D01*
X110059904Y-77105840D01*
X110032098Y-77076338D01*
X110005830Y-77045376D01*
X109981197Y-77012981D01*
X109958265Y-76979161D01*
X109937129Y-76943933D01*
X109917870Y-76907317D01*
X109900569Y-76869321D01*
X109885299Y-76829964D01*
X109872157Y-76789257D01*
X109861224Y-76747217D01*
X109852565Y-76703862D01*
X109846288Y-76659196D01*
X109842457Y-76613240D01*
X109841159Y-76566012D01*
X109842457Y-76519029D01*
X109846288Y-76473288D01*
X109852565Y-76428810D01*
X109861224Y-76385608D01*
X109872157Y-76343697D01*
X109885299Y-76303091D01*
X109900569Y-76263812D01*
X109917870Y-76225877D01*
X109937129Y-76189298D01*
X109958265Y-76154092D01*
X109981197Y-76120280D01*
X110005830Y-76087872D01*
X110032098Y-76056883D01*
X110059904Y-76027340D01*
X110089178Y-75999242D01*
X110119821Y-75972620D01*
X110151772Y-75947487D01*
X110184921Y-75923860D01*
X110219218Y-75901748D01*
X110254556Y-75881173D01*
X110290858Y-75862153D01*
X110328051Y-75844692D01*
X110366037Y-75828834D01*
X110404752Y-75814566D01*
X110444089Y-75801913D01*
X110483995Y-75790902D01*
X110524364Y-75781533D01*
X110565119Y-75773837D01*
X110606184Y-75767822D01*
X110647471Y-75763498D01*
X110688900Y-75760896D01*
X110730380Y-75760023D01*
X111028637Y-75760023D01*
X111037398Y-75761149D01*
G37*
G36*
X108543981Y-75783124D02*
G01*
X108607877Y-75789912D01*
X108670158Y-75801070D01*
X108730417Y-75816491D01*
X108788236Y-75836050D01*
X108843210Y-75859626D01*
X108894912Y-75887096D01*
X108942922Y-75918344D01*
X108965421Y-75935353D01*
X108986844Y-75953249D01*
X109007142Y-75972040D01*
X109026257Y-75991697D01*
X109044136Y-76012214D01*
X109060740Y-76033563D01*
X109076003Y-76055741D01*
X109089885Y-76078726D01*
X109102321Y-76102504D01*
X109113272Y-76127062D01*
X109122685Y-76152388D01*
X109130493Y-76178460D01*
X109136656Y-76205267D01*
X109141128Y-76232797D01*
X109143850Y-76261027D01*
X109144767Y-76289951D01*
X109144767Y-78387460D01*
X108642585Y-78387460D01*
X108642585Y-76402318D01*
X108642409Y-76394553D01*
X108641868Y-76386856D01*
X108640979Y-76379251D01*
X108639723Y-76371750D01*
X108638103Y-76364351D01*
X108636130Y-76357071D01*
X108633800Y-76349927D01*
X108631098Y-76342928D01*
X108628042Y-76336081D01*
X108624622Y-76329401D01*
X108620839Y-76322894D01*
X108616691Y-76316585D01*
X108612181Y-76310465D01*
X108607302Y-76304556D01*
X108602063Y-76298875D01*
X108596461Y-76293421D01*
X108590491Y-76288213D01*
X108584157Y-76283258D01*
X108577453Y-76278571D01*
X108570380Y-76274165D01*
X108562942Y-76270041D01*
X108555133Y-76266220D01*
X108546963Y-76262706D01*
X108538412Y-76259521D01*
X108529498Y-76256664D01*
X108520216Y-76254151D01*
X108510555Y-76252000D01*
X108500531Y-76250210D01*
X108490130Y-76248799D01*
X108479359Y-76247780D01*
X108468216Y-76247155D01*
X108456695Y-76246943D01*
X108445177Y-76247155D01*
X108434038Y-76247780D01*
X108423261Y-76248799D01*
X108412863Y-76250210D01*
X108402836Y-76252000D01*
X108393183Y-76254151D01*
X108383898Y-76256664D01*
X108374983Y-76259521D01*
X108366437Y-76262706D01*
X108358260Y-76266220D01*
X108350455Y-76270041D01*
X108343017Y-76274165D01*
X108335944Y-76278571D01*
X108329237Y-76283258D01*
X108322904Y-76288213D01*
X108316934Y-76293421D01*
X108311329Y-76298875D01*
X108306091Y-76304556D01*
X108301211Y-76310465D01*
X108296706Y-76316585D01*
X108292559Y-76322894D01*
X108288773Y-76329401D01*
X108285352Y-76336081D01*
X108282299Y-76342928D01*
X108279598Y-76349927D01*
X108277266Y-76357071D01*
X108275284Y-76364351D01*
X108273676Y-76371750D01*
X108271522Y-76386856D01*
X108270805Y-76402318D01*
X108270805Y-78388852D01*
X107788045Y-78388852D01*
X107788045Y-76402318D01*
X107787866Y-76394553D01*
X107787328Y-76386856D01*
X107786435Y-76379251D01*
X107785183Y-76371750D01*
X107783564Y-76364351D01*
X107781594Y-76357071D01*
X107779258Y-76349927D01*
X107776555Y-76342928D01*
X107773502Y-76336081D01*
X107770081Y-76329401D01*
X107766302Y-76322894D01*
X107762148Y-76316585D01*
X107757645Y-76310465D01*
X107752762Y-76304556D01*
X107747530Y-76298875D01*
X107741921Y-76293421D01*
X107735956Y-76288213D01*
X107729614Y-76283258D01*
X107722911Y-76278571D01*
X107715843Y-76274165D01*
X107708402Y-76270041D01*
X107700596Y-76266220D01*
X107692426Y-76262706D01*
X107683874Y-76259521D01*
X107674960Y-76256664D01*
X107665674Y-76254151D01*
X107656020Y-76252000D01*
X107645990Y-76250210D01*
X107635594Y-76248799D01*
X107624820Y-76247780D01*
X107613670Y-76247155D01*
X107602158Y-76246943D01*
X107590759Y-76247155D01*
X107579724Y-76247780D01*
X107569039Y-76248799D01*
X107558720Y-76250210D01*
X107548765Y-76252000D01*
X107539157Y-76254151D01*
X107529912Y-76256664D01*
X107521024Y-76259521D01*
X107512497Y-76262706D01*
X107504332Y-76266220D01*
X107496527Y-76270041D01*
X107489086Y-76274165D01*
X107481998Y-76278571D01*
X107475276Y-76283258D01*
X107468915Y-76288213D01*
X107462915Y-76293421D01*
X107457274Y-76298875D01*
X107451997Y-76304556D01*
X107447082Y-76310465D01*
X107442531Y-76316585D01*
X107438342Y-76322894D01*
X107434513Y-76329401D01*
X107431044Y-76336081D01*
X107427954Y-76342928D01*
X107425215Y-76349927D01*
X107422842Y-76357071D01*
X107420830Y-76364351D01*
X107419189Y-76371750D01*
X107417912Y-76379251D01*
X107416995Y-76386856D01*
X107416267Y-76402318D01*
X107416267Y-78388852D01*
X106914086Y-78388852D01*
X106914086Y-76291341D01*
X106915004Y-76262293D01*
X106917724Y-76233939D01*
X106922193Y-76206297D01*
X106928357Y-76179389D01*
X106936175Y-76153223D01*
X106945579Y-76127812D01*
X106956533Y-76103162D01*
X106968967Y-76079306D01*
X106982850Y-76056258D01*
X106998113Y-76034010D01*
X107014713Y-76012611D01*
X107032594Y-75992041D01*
X107051713Y-75972332D01*
X107072014Y-75953501D01*
X107093435Y-75935560D01*
X107115930Y-75918520D01*
X107139455Y-75902404D01*
X107163949Y-75887214D01*
X107189361Y-75872972D01*
X107215641Y-75859698D01*
X107242751Y-75847399D01*
X107270619Y-75836094D01*
X107299195Y-75825789D01*
X107328439Y-75816513D01*
X107358290Y-75808273D01*
X107388694Y-75801079D01*
X107419613Y-75794956D01*
X107450982Y-75789912D01*
X107482748Y-75785962D01*
X107514873Y-75783124D01*
X107547293Y-75781410D01*
X107579958Y-75780833D01*
X107611191Y-75781770D01*
X107642400Y-75784500D01*
X107673509Y-75788977D01*
X107704416Y-75795098D01*
X107735051Y-75802799D01*
X107765335Y-75811996D01*
X107795173Y-75822618D01*
X107824462Y-75834591D01*
X107853136Y-75847831D01*
X107881121Y-75862256D01*
X107908304Y-75877794D01*
X107934618Y-75894376D01*
X107959974Y-75911910D01*
X107984286Y-75930325D01*
X108007462Y-75949547D01*
X108029429Y-75969500D01*
X108051405Y-75949547D01*
X108074631Y-75930325D01*
X108099001Y-75911910D01*
X108124427Y-75894376D01*
X108150828Y-75877794D01*
X108178102Y-75862256D01*
X108206163Y-75847831D01*
X108234910Y-75834591D01*
X108264267Y-75822618D01*
X108294127Y-75811996D01*
X108324409Y-75802799D01*
X108355018Y-75795098D01*
X108385865Y-75788977D01*
X108416849Y-75784500D01*
X108447886Y-75781770D01*
X108478891Y-75780833D01*
X108543981Y-75783124D01*
G37*
G36*
X126752004Y-89998898D02*
G01*
X126755611Y-89999043D01*
X126759075Y-89999286D01*
X126762373Y-89999615D01*
X126765510Y-90000033D01*
X126768500Y-90000533D01*
X126771343Y-90001109D01*
X126774024Y-90001758D01*
X126776568Y-90002479D01*
X126778966Y-90003265D01*
X126781224Y-90004116D01*
X126783344Y-90005023D01*
X126785329Y-90005984D01*
X126787174Y-90006994D01*
X126788895Y-90008054D01*
X126790482Y-90009153D01*
X126791968Y-90010312D01*
X126793357Y-90011544D01*
X126794660Y-90012856D01*
X126795863Y-90014247D01*
X126796436Y-90014969D01*
X126796985Y-90015715D01*
X126797507Y-90016478D01*
X126798006Y-90017262D01*
X126798482Y-90018064D01*
X126798931Y-90018889D01*
X126799367Y-90019731D01*
X126799772Y-90020599D01*
X126800514Y-90022388D01*
X126801157Y-90024262D01*
X126801701Y-90026222D01*
X126802152Y-90028264D01*
X126802506Y-90030391D01*
X126802754Y-90032607D01*
X126802908Y-90034913D01*
X126802959Y-90037303D01*
X126802925Y-90038963D01*
X126802821Y-90040581D01*
X126802649Y-90042157D01*
X126802416Y-90043693D01*
X126802117Y-90045191D01*
X126801761Y-90046642D01*
X126801332Y-90048057D01*
X126800858Y-90049429D01*
X126800323Y-90050761D01*
X126799739Y-90052051D01*
X126799092Y-90053301D01*
X126798399Y-90054511D01*
X126797662Y-90055681D01*
X126796867Y-90056814D01*
X126796025Y-90057902D01*
X126795146Y-90058956D01*
X126793264Y-90060940D01*
X126791212Y-90062767D01*
X126789017Y-90064436D01*
X126786695Y-90065949D01*
X126784256Y-90067309D01*
X126781711Y-90068516D01*
X126779078Y-90069573D01*
X126776365Y-90070475D01*
X126776365Y-90071515D01*
X126777475Y-90071743D01*
X126778557Y-90072022D01*
X126779622Y-90072353D01*
X126780663Y-90072737D01*
X126781684Y-90073170D01*
X126782675Y-90073658D01*
X126783643Y-90074194D01*
X126784588Y-90074783D01*
X126785511Y-90075425D01*
X126786407Y-90076117D01*
X126787271Y-90076861D01*
X126788115Y-90077656D01*
X126788934Y-90078506D01*
X126789726Y-90079408D01*
X126790489Y-90080361D01*
X126791229Y-90081367D01*
X126791941Y-90082425D01*
X126792625Y-90083533D01*
X126793283Y-90084696D01*
X126793910Y-90085908D01*
X126794509Y-90087178D01*
X126795077Y-90088495D01*
X126795621Y-90089866D01*
X126796131Y-90091294D01*
X126796614Y-90092771D01*
X126797066Y-90094301D01*
X126797494Y-90095888D01*
X126797883Y-90097522D01*
X126798244Y-90099210D01*
X126798571Y-90100953D01*
X126799141Y-90104599D01*
X126800373Y-90111937D01*
X126801581Y-90118171D01*
X126802760Y-90123404D01*
X126803898Y-90127746D01*
X126804983Y-90131299D01*
X126806001Y-90134170D01*
X126806946Y-90136466D01*
X126807807Y-90138291D01*
X126785024Y-90138291D01*
X126784424Y-90137385D01*
X126783819Y-90136288D01*
X126783219Y-90135011D01*
X126782621Y-90133559D01*
X126782019Y-90131927D01*
X126781420Y-90130123D01*
X126780830Y-90128157D01*
X126780243Y-90126027D01*
X126779660Y-90123732D01*
X126779087Y-90121287D01*
X126778521Y-90118687D01*
X126777963Y-90115941D01*
X126777417Y-90113050D01*
X126776879Y-90110022D01*
X126776357Y-90106859D01*
X126775846Y-90103561D01*
X126775184Y-90100420D01*
X126774798Y-90098949D01*
X126774380Y-90097533D01*
X126773930Y-90096182D01*
X126773440Y-90094889D01*
X126772915Y-90093654D01*
X126772357Y-90092482D01*
X126771759Y-90091363D01*
X126771125Y-90090301D01*
X126770451Y-90089294D01*
X126769739Y-90088345D01*
X126768988Y-90087449D01*
X126768194Y-90086608D01*
X126767361Y-90085815D01*
X126766493Y-90085078D01*
X126765576Y-90084391D01*
X126764621Y-90083754D01*
X126763624Y-90083165D01*
X126762580Y-90082628D01*
X126761497Y-90082139D01*
X126760362Y-90081693D01*
X126759188Y-90081297D01*
X126757969Y-90080942D01*
X126756698Y-90080635D01*
X126755383Y-90080372D01*
X126754023Y-90080149D01*
X126752613Y-90079969D01*
X126749647Y-90079731D01*
X126746483Y-90079655D01*
X126731332Y-90079655D01*
X126731332Y-90138291D01*
X126709588Y-90138291D01*
X126709588Y-90062853D01*
X126731332Y-90062853D01*
X126747090Y-90062853D01*
X126750413Y-90062777D01*
X126753657Y-90062542D01*
X126756799Y-90062143D01*
X126759823Y-90061574D01*
X126762709Y-90060830D01*
X126765435Y-90059914D01*
X126767993Y-90058805D01*
X126769202Y-90058178D01*
X126770356Y-90057503D01*
X126771461Y-90056782D01*
X126772510Y-90056008D01*
X126773503Y-90055185D01*
X126774437Y-90054311D01*
X126775306Y-90053383D01*
X126776113Y-90052404D01*
X126776853Y-90051374D01*
X126777528Y-90050284D01*
X126778130Y-90049142D01*
X126778659Y-90047944D01*
X126779116Y-90046689D01*
X126779487Y-90045378D01*
X126779784Y-90044012D01*
X126780004Y-90042584D01*
X126780132Y-90041099D01*
X126780174Y-90039556D01*
X126780151Y-90038434D01*
X126780076Y-90037315D01*
X126779941Y-90036203D01*
X126779757Y-90035094D01*
X126779514Y-90033996D01*
X126779215Y-90032913D01*
X126778859Y-90031835D01*
X126778441Y-90030777D01*
X126777963Y-90029736D01*
X126777424Y-90028713D01*
X126776818Y-90027714D01*
X126776144Y-90026739D01*
X126775410Y-90025788D01*
X126774605Y-90024866D01*
X126773734Y-90023975D01*
X126772795Y-90023120D01*
X126771780Y-90022297D01*
X126770690Y-90021512D01*
X126769529Y-90020766D01*
X126768293Y-90020063D01*
X126766981Y-90019401D01*
X126765583Y-90018784D01*
X126764116Y-90018220D01*
X126762565Y-90017705D01*
X126760931Y-90017240D01*
X126759215Y-90016832D01*
X126757410Y-90016481D01*
X126755525Y-90016187D01*
X126753553Y-90015955D01*
X126751486Y-90015788D01*
X126749337Y-90015685D01*
X126747090Y-90015650D01*
X126744529Y-90015672D01*
X126742169Y-90015740D01*
X126739986Y-90015841D01*
X126737979Y-90015975D01*
X126736119Y-90016132D01*
X126734398Y-90016308D01*
X126731332Y-90016688D01*
X126731332Y-90062853D01*
X126709588Y-90062853D01*
X126709588Y-90016688D01*
X126709588Y-90002049D01*
X126718146Y-90000892D01*
X126722515Y-90000352D01*
X126727049Y-89999865D01*
X126731817Y-89999450D01*
X126736884Y-89999127D01*
X126742329Y-89998922D01*
X126748220Y-89998846D01*
X126752004Y-89998898D01*
G37*
G36*
X113574744Y-75761149D02*
G01*
X113624447Y-75764460D01*
X113672033Y-75769913D01*
X113717545Y-75777436D01*
X113761010Y-75786967D01*
X113802456Y-75798442D01*
X113841919Y-75811801D01*
X113879440Y-75826983D01*
X113915043Y-75843917D01*
X113948754Y-75862555D01*
X113980626Y-75882821D01*
X114010670Y-75904656D01*
X114038932Y-75927995D01*
X114065445Y-75952782D01*
X114090236Y-75978949D01*
X114113341Y-76006435D01*
X114134790Y-76035179D01*
X114154619Y-76065112D01*
X114172858Y-76096175D01*
X114189541Y-76128306D01*
X114204704Y-76161445D01*
X114218380Y-76195525D01*
X114230591Y-76230483D01*
X114241373Y-76266258D01*
X114258808Y-76340011D01*
X114270938Y-76416274D01*
X114278027Y-76494551D01*
X114280328Y-76574335D01*
X114277999Y-76654149D01*
X114270825Y-76732024D01*
X114258574Y-76807510D01*
X114240985Y-76880179D01*
X114230116Y-76915313D01*
X114217817Y-76949575D01*
X114204063Y-76982916D01*
X114188809Y-77015267D01*
X114172047Y-77046582D01*
X114153724Y-77076804D01*
X114133820Y-77105868D01*
X114112297Y-77133740D01*
X114089133Y-77160345D01*
X114064291Y-77185640D01*
X114037741Y-77209560D01*
X114009452Y-77232056D01*
X113979398Y-77253073D01*
X113947529Y-77272549D01*
X113913827Y-77290431D01*
X113878271Y-77306666D01*
X113840815Y-77321203D01*
X113801431Y-77333977D01*
X113760079Y-77344941D01*
X113716755Y-77354038D01*
X113671397Y-77361202D01*
X113623991Y-77366392D01*
X113574500Y-77369548D01*
X113522897Y-77370615D01*
X113471893Y-77369555D01*
X113422912Y-77366407D01*
X113375931Y-77361241D01*
X113330916Y-77354095D01*
X113287847Y-77345033D01*
X113246683Y-77334109D01*
X113207419Y-77321373D01*
X113170016Y-77306888D01*
X113134451Y-77290693D01*
X113100699Y-77272870D01*
X113068721Y-77253446D01*
X113038511Y-77232495D01*
X113010027Y-77210059D01*
X112983253Y-77186203D01*
X112958155Y-77160977D01*
X112934704Y-77134435D01*
X112912886Y-77106630D01*
X112892661Y-77077623D01*
X112874012Y-77047464D01*
X112856915Y-77016216D01*
X112841324Y-76983923D01*
X112827234Y-76950645D01*
X112814616Y-76916435D01*
X112803434Y-76881347D01*
X112793670Y-76845442D01*
X112785293Y-76808774D01*
X112772593Y-76733349D01*
X112765128Y-76655521D01*
X112762691Y-76575728D01*
X113187190Y-76575728D01*
X113188197Y-76620787D01*
X113191309Y-76662880D01*
X113196643Y-76701987D01*
X113200189Y-76720433D01*
X113204329Y-76738138D01*
X113209084Y-76755106D01*
X113214467Y-76771340D01*
X113220506Y-76786840D01*
X113227204Y-76801604D01*
X113234570Y-76815630D01*
X113242625Y-76828936D01*
X113251398Y-76841505D01*
X113260885Y-76853345D01*
X113271105Y-76864464D01*
X113282070Y-76874847D01*
X113293818Y-76884511D01*
X113306332Y-76893450D01*
X113319645Y-76901666D01*
X113333773Y-76909159D01*
X113348718Y-76915931D01*
X113364511Y-76921990D01*
X113381158Y-76927333D01*
X113398678Y-76931953D01*
X113417077Y-76935865D01*
X113436377Y-76939058D01*
X113456597Y-76941542D01*
X113477748Y-76943315D01*
X113499845Y-76944374D01*
X113522897Y-76944731D01*
X113545930Y-76944389D01*
X113567966Y-76943360D01*
X113589022Y-76941642D01*
X113609115Y-76939230D01*
X113628258Y-76936120D01*
X113646477Y-76932306D01*
X113663783Y-76927800D01*
X113680190Y-76922575D01*
X113695728Y-76916637D01*
X113710412Y-76909996D01*
X113724251Y-76902630D01*
X113737268Y-76894544D01*
X113749471Y-76885731D01*
X113760894Y-76876190D01*
X113771549Y-76865914D01*
X113781440Y-76854904D01*
X113790607Y-76843156D01*
X113799045Y-76830661D01*
X113806791Y-76817420D01*
X113813851Y-76803435D01*
X113820245Y-76788686D01*
X113825984Y-76773188D01*
X113831109Y-76756917D01*
X113835610Y-76739896D01*
X113839517Y-76722099D01*
X113842844Y-76703537D01*
X113847844Y-76664071D01*
X113850739Y-76621477D01*
X113851673Y-76575728D01*
X113850739Y-76529922D01*
X113847854Y-76486704D01*
X113842875Y-76446126D01*
X113835673Y-76408234D01*
X113826120Y-76373083D01*
X113820413Y-76356550D01*
X113814069Y-76340724D01*
X113807069Y-76325608D01*
X113799395Y-76311206D01*
X113791031Y-76297527D01*
X113781960Y-76284578D01*
X113772168Y-76272359D01*
X113761632Y-76260889D01*
X113750346Y-76250165D01*
X113738278Y-76240197D01*
X113725425Y-76230994D01*
X113711761Y-76222549D01*
X113697281Y-76214883D01*
X113681954Y-76207998D01*
X113665769Y-76201896D01*
X113648712Y-76196589D01*
X113630752Y-76192080D01*
X113611900Y-76188378D01*
X113592122Y-76185484D01*
X113571399Y-76183417D01*
X113549712Y-76182164D01*
X113527054Y-76181743D01*
X113503380Y-76182178D01*
X113480719Y-76183476D01*
X113459052Y-76185619D01*
X113438374Y-76188607D01*
X113418648Y-76192424D01*
X113399873Y-76197064D01*
X113382031Y-76202520D01*
X113365095Y-76208781D01*
X113349058Y-76215829D01*
X113333893Y-76223668D01*
X113319588Y-76232280D01*
X113306129Y-76241660D01*
X113293488Y-76251803D01*
X113281664Y-76262690D01*
X113270623Y-76274306D01*
X113260362Y-76286658D01*
X113250849Y-76299726D01*
X113242084Y-76313513D01*
X113234033Y-76327991D01*
X113226686Y-76343162D01*
X113220028Y-76359013D01*
X113214040Y-76375542D01*
X113208706Y-76392735D01*
X113204000Y-76410576D01*
X113199917Y-76429069D01*
X113196439Y-76448186D01*
X113191201Y-76488301D01*
X113188165Y-76530835D01*
X113187190Y-76575728D01*
X112762691Y-76575728D01*
X112765022Y-76495695D01*
X112772193Y-76417201D01*
X112784459Y-76340755D01*
X112802070Y-76266848D01*
X112825285Y-76195976D01*
X112839068Y-76161839D01*
X112854348Y-76128649D01*
X112871159Y-76096468D01*
X112889526Y-76065357D01*
X112909487Y-76035386D01*
X112931058Y-76006618D01*
X112954296Y-75979098D01*
X112979215Y-75952895D01*
X113005853Y-75928091D01*
X113034244Y-75904729D01*
X113064416Y-75882877D01*
X113096387Y-75862599D01*
X113130219Y-75843955D01*
X113165916Y-75827004D01*
X113203535Y-75811814D01*
X113243078Y-75798453D01*
X113284600Y-75786974D01*
X113328126Y-75777436D01*
X113373688Y-75769914D01*
X113421314Y-75764460D01*
X113471039Y-75761149D01*
X113522897Y-75760023D01*
X113574744Y-75761149D01*
G37*
G36*
X126760849Y-89945220D02*
G01*
X126766981Y-89945688D01*
X126773015Y-89946460D01*
X126778952Y-89947526D01*
X126784778Y-89948884D01*
X126790490Y-89950519D01*
X126796079Y-89952430D01*
X126801541Y-89954605D01*
X126806858Y-89957040D01*
X126812036Y-89959728D01*
X126817063Y-89962654D01*
X126821924Y-89965819D01*
X126826619Y-89969211D01*
X126831148Y-89972827D01*
X126835492Y-89976656D01*
X126839646Y-89980691D01*
X126843602Y-89984923D01*
X126847359Y-89989348D01*
X126850903Y-89993957D01*
X126854236Y-89998742D01*
X126857337Y-90003695D01*
X126860210Y-90008809D01*
X126862848Y-90014079D01*
X126865226Y-90019493D01*
X126867359Y-90025045D01*
X126869232Y-90030729D01*
X126870839Y-90036541D01*
X126872168Y-90042465D01*
X126873212Y-90048499D01*
X126873967Y-90054636D01*
X126874429Y-90060868D01*
X126874585Y-90067185D01*
X126874429Y-90073601D01*
X126873967Y-90079920D01*
X126873212Y-90086141D01*
X126872166Y-90092249D01*
X126870835Y-90098238D01*
X126869228Y-90104102D01*
X126867356Y-90109838D01*
X126865218Y-90115434D01*
X126862829Y-90120883D01*
X126860193Y-90126178D01*
X126857316Y-90131315D01*
X126854209Y-90136282D01*
X126850871Y-90141081D01*
X126847313Y-90145696D01*
X126843554Y-90150126D01*
X126839574Y-90154357D01*
X126835414Y-90158389D01*
X126831053Y-90162210D01*
X126826512Y-90165814D01*
X126821797Y-90169199D01*
X126816918Y-90172352D01*
X126811867Y-90175264D01*
X126806670Y-90177936D01*
X126801320Y-90180359D01*
X126795833Y-90182520D01*
X126790208Y-90184416D01*
X126784466Y-90186039D01*
X126778602Y-90187383D01*
X126772636Y-90188440D01*
X126766549Y-90189205D01*
X126760373Y-90189669D01*
X126754107Y-90189825D01*
X126747893Y-90189669D01*
X126741762Y-90189205D01*
X126735716Y-90188440D01*
X126729761Y-90187383D01*
X126723919Y-90186039D01*
X126718184Y-90184416D01*
X126712570Y-90182520D01*
X126707079Y-90180359D01*
X126701727Y-90177936D01*
X126696512Y-90175264D01*
X126691447Y-90172352D01*
X126686541Y-90169199D01*
X126681802Y-90165814D01*
X126677231Y-90162210D01*
X126672842Y-90158389D01*
X126668642Y-90154357D01*
X126664639Y-90150126D01*
X126660835Y-90145696D01*
X126657242Y-90141081D01*
X126653872Y-90136282D01*
X126650725Y-90131315D01*
X126647807Y-90126178D01*
X126645137Y-90120883D01*
X126642708Y-90115434D01*
X126640545Y-90109838D01*
X126638636Y-90104102D01*
X126637007Y-90098238D01*
X126635656Y-90092249D01*
X126634590Y-90086141D01*
X126633819Y-90079920D01*
X126633359Y-90073601D01*
X126633198Y-90067185D01*
X126656500Y-90067185D01*
X126656622Y-90072585D01*
X126657002Y-90077908D01*
X126657628Y-90083149D01*
X126658488Y-90088294D01*
X126659590Y-90093343D01*
X126660906Y-90098292D01*
X126662445Y-90103128D01*
X126664204Y-90107850D01*
X126666168Y-90112448D01*
X126668331Y-90116923D01*
X126670702Y-90121263D01*
X126673248Y-90125460D01*
X126675986Y-90129511D01*
X126678897Y-90133415D01*
X126681975Y-90137158D01*
X126685229Y-90140737D01*
X126688633Y-90144145D01*
X126692198Y-90147380D01*
X126695905Y-90150435D01*
X126699753Y-90153294D01*
X126703735Y-90155964D01*
X126707840Y-90158434D01*
X126712074Y-90160695D01*
X126716418Y-90162746D01*
X126720879Y-90164578D01*
X126725441Y-90166183D01*
X126730099Y-90167560D01*
X126734842Y-90168701D01*
X126739677Y-90169596D01*
X126744592Y-90170245D01*
X126749573Y-90170638D01*
X126754625Y-90170770D01*
X126759688Y-90170691D01*
X126764674Y-90170345D01*
X126769588Y-90169737D01*
X126774418Y-90168874D01*
X126779159Y-90167762D01*
X126783808Y-90166411D01*
X126788357Y-90164825D01*
X126792804Y-90163012D01*
X126797136Y-90160971D01*
X126801349Y-90158717D01*
X126805443Y-90156256D01*
X126809405Y-90153590D01*
X126813232Y-90150728D01*
X126816918Y-90147676D01*
X126820454Y-90144441D01*
X126823841Y-90141032D01*
X126827066Y-90137447D01*
X126830124Y-90133703D01*
X126833016Y-90129800D01*
X126835729Y-90125748D01*
X126838260Y-90121550D01*
X126840599Y-90117214D01*
X126842746Y-90112744D01*
X126844693Y-90108155D01*
X126846432Y-90103443D01*
X126847959Y-90098622D01*
X126849268Y-90093694D01*
X126850353Y-90088668D01*
X126851201Y-90083549D01*
X126851822Y-90078344D01*
X126852192Y-90073059D01*
X126852322Y-90067702D01*
X126852192Y-90062345D01*
X126851822Y-90057062D01*
X126851201Y-90051858D01*
X126850353Y-90046739D01*
X126849268Y-90041715D01*
X126847959Y-90036788D01*
X126846432Y-90031964D01*
X126844693Y-90027255D01*
X126842746Y-90022664D01*
X126840599Y-90018192D01*
X126838260Y-90013854D01*
X126835729Y-90009652D01*
X126833016Y-90005600D01*
X126830124Y-90001687D01*
X126827066Y-89997933D01*
X126823841Y-89994344D01*
X126820454Y-89990919D01*
X126816918Y-89987672D01*
X126813232Y-89984607D01*
X126809405Y-89981729D01*
X126805443Y-89979043D01*
X126801349Y-89976558D01*
X126797136Y-89974279D01*
X126792804Y-89972214D01*
X126788357Y-89970366D01*
X126783808Y-89968746D01*
X126779159Y-89967358D01*
X126774418Y-89966208D01*
X126769588Y-89965301D01*
X126764674Y-89964648D01*
X126759688Y-89964247D01*
X126754625Y-89964116D01*
X126754107Y-89964116D01*
X126749099Y-89964247D01*
X126744158Y-89964646D01*
X126739289Y-89965301D01*
X126734495Y-89966206D01*
X126729782Y-89967356D01*
X126725163Y-89968743D01*
X126720633Y-89970361D01*
X126716202Y-89972204D01*
X126711881Y-89974268D01*
X126707671Y-89976541D01*
X126703587Y-89979021D01*
X126699624Y-89981700D01*
X126695795Y-89984573D01*
X126692109Y-89987630D01*
X126688556Y-89990865D01*
X126685163Y-89994278D01*
X126681928Y-89997857D01*
X126678852Y-90001594D01*
X126675947Y-90005489D01*
X126673219Y-90009527D01*
X126670677Y-90013707D01*
X126668315Y-90018025D01*
X126666154Y-90022469D01*
X126664195Y-90027035D01*
X126662439Y-90031719D01*
X126660902Y-90036510D01*
X126659586Y-90041404D01*
X126658487Y-90046391D01*
X126657628Y-90051472D01*
X126657002Y-90056634D01*
X126656622Y-90061874D01*
X126656500Y-90067185D01*
X126633198Y-90067185D01*
X126633359Y-90060868D01*
X126633819Y-90054636D01*
X126634590Y-90048499D01*
X126635656Y-90042465D01*
X126637007Y-90036541D01*
X126638636Y-90030729D01*
X126640545Y-90025045D01*
X126642708Y-90019493D01*
X126645137Y-90014079D01*
X126647807Y-90008809D01*
X126650725Y-90003695D01*
X126653872Y-89998742D01*
X126657242Y-89993957D01*
X126660835Y-89989348D01*
X126664639Y-89984923D01*
X126668642Y-89980691D01*
X126672842Y-89976656D01*
X126677231Y-89972827D01*
X126681802Y-89969211D01*
X126686541Y-89965819D01*
X126691447Y-89962654D01*
X126696512Y-89959728D01*
X126701727Y-89957040D01*
X126707079Y-89954605D01*
X126712570Y-89952430D01*
X126718184Y-89950519D01*
X126723919Y-89948884D01*
X126729761Y-89947526D01*
X126735716Y-89946460D01*
X126741762Y-89945688D01*
X126747893Y-89945220D01*
X126754107Y-89945063D01*
X126754625Y-89945063D01*
X126760849Y-89945220D01*
G37*
G36*
X118676585Y-89466247D02*
G01*
X118678364Y-89466475D01*
X118679970Y-89466858D01*
X118681403Y-89467375D01*
X118682676Y-89468027D01*
X118683782Y-89468798D01*
X118684719Y-89469686D01*
X118685485Y-89470677D01*
X118686099Y-89471760D01*
X118686556Y-89472933D01*
X118686846Y-89474185D01*
X118686984Y-89475505D01*
X118686959Y-89476885D01*
X118686785Y-89478319D01*
X118686460Y-89479795D01*
X118685981Y-89481308D01*
X118685355Y-89482842D01*
X118684578Y-89484399D01*
X118683650Y-89485963D01*
X118682578Y-89487526D01*
X118681362Y-89489078D01*
X118680009Y-89490613D01*
X118678512Y-89492122D01*
X118676873Y-89493597D01*
X118675100Y-89495026D01*
X118659372Y-89506913D01*
X118650943Y-89513104D01*
X118642113Y-89519427D01*
X118632868Y-89525857D01*
X118623178Y-89532368D01*
X118613045Y-89538933D01*
X118602437Y-89545520D01*
X118554595Y-89575279D01*
X118506541Y-89606573D01*
X118458269Y-89639327D01*
X118409747Y-89673478D01*
X118360954Y-89708956D01*
X118311876Y-89745695D01*
X118262487Y-89783622D01*
X118212767Y-89822676D01*
X118225019Y-89830580D01*
X118236966Y-89838895D01*
X118248608Y-89847606D01*
X118259933Y-89856705D01*
X118270932Y-89866183D01*
X118281594Y-89876029D01*
X118291907Y-89886233D01*
X118301861Y-89896780D01*
X118311444Y-89907673D01*
X118320657Y-89918890D01*
X118329474Y-89930427D01*
X118337892Y-89942267D01*
X118345900Y-89954408D01*
X118353492Y-89966839D01*
X118360654Y-89979546D01*
X118367371Y-89992523D01*
X118549258Y-90378373D01*
X118552967Y-90385226D01*
X118557031Y-90391680D01*
X118561449Y-90397725D01*
X118566196Y-90403366D01*
X118571254Y-90408589D01*
X118576612Y-90413391D01*
X118582254Y-90417763D01*
X118588169Y-90421701D01*
X118594331Y-90425199D01*
X118600731Y-90428251D01*
X118607365Y-90430849D01*
X118614194Y-90432987D01*
X118621224Y-90434663D01*
X118628433Y-90435867D01*
X118635801Y-90436594D01*
X118643320Y-90436838D01*
X118647095Y-90436776D01*
X118650846Y-90436594D01*
X118654552Y-90436291D01*
X118658219Y-90435867D01*
X118661844Y-90435321D01*
X118665431Y-90434663D01*
X118668965Y-90433886D01*
X118672456Y-90432987D01*
X118675898Y-90431977D01*
X118679290Y-90430849D01*
X118682624Y-90429607D01*
X118685904Y-90428251D01*
X118689131Y-90426780D01*
X118692299Y-90425199D01*
X118695411Y-90423509D01*
X118698457Y-90421701D01*
X118701436Y-90419787D01*
X118704354Y-90417763D01*
X118707204Y-90415632D01*
X118709982Y-90413391D01*
X118712692Y-90411043D01*
X118715327Y-90408589D01*
X118717892Y-90406030D01*
X118720373Y-90403366D01*
X118722782Y-90400599D01*
X118725109Y-90397725D01*
X118727355Y-90394753D01*
X118729519Y-90391680D01*
X118731593Y-90388500D01*
X118733581Y-90385226D01*
X118735478Y-90381849D01*
X118737289Y-90378373D01*
X118919171Y-89992523D01*
X118932823Y-89967241D01*
X118948135Y-89943037D01*
X118965034Y-89919978D01*
X118983438Y-89898146D01*
X119003270Y-89877618D01*
X119024457Y-89858471D01*
X119046916Y-89840781D01*
X119070579Y-89824625D01*
X119095358Y-89810080D01*
X119121188Y-89797229D01*
X119147978Y-89786134D01*
X119175660Y-89776892D01*
X119204163Y-89769564D01*
X119233396Y-89764236D01*
X119263287Y-89760987D01*
X119293763Y-89759883D01*
X119309233Y-89760166D01*
X119324563Y-89760999D01*
X119339733Y-89762382D01*
X119354742Y-89764298D01*
X119369579Y-89766740D01*
X119384229Y-89769700D01*
X119398685Y-89773172D01*
X119412939Y-89777130D01*
X119426981Y-89781583D01*
X119440796Y-89786510D01*
X119454386Y-89791906D01*
X119467741Y-89797760D01*
X119480835Y-89804064D01*
X119493669Y-89810806D01*
X119506236Y-89817978D01*
X119518523Y-89825565D01*
X119530518Y-89833566D01*
X119542218Y-89841967D01*
X119553605Y-89850757D01*
X119564680Y-89859929D01*
X119575419Y-89869471D01*
X119585825Y-89879377D01*
X119595887Y-89889632D01*
X119605588Y-89900228D01*
X119614926Y-89911161D01*
X119623888Y-89922410D01*
X119632465Y-89933977D01*
X119640638Y-89945845D01*
X119648418Y-89958008D01*
X119655782Y-89970453D01*
X119662721Y-89983173D01*
X119669226Y-89996158D01*
X119670437Y-89999259D01*
X119671510Y-90002334D01*
X119672420Y-90005386D01*
X119673162Y-90008421D01*
X119673722Y-90011449D01*
X119674092Y-90014474D01*
X119674259Y-90017503D01*
X119674206Y-90020539D01*
X119673928Y-90023594D01*
X119673410Y-90026672D01*
X119672640Y-90029777D01*
X119671610Y-90032917D01*
X119670309Y-90036099D01*
X119668715Y-90039329D01*
X119666834Y-90042614D01*
X119664633Y-90045958D01*
X119625375Y-90100813D01*
X119583222Y-90156074D01*
X119538282Y-90211687D01*
X119490665Y-90267598D01*
X119440475Y-90323754D01*
X119387827Y-90380098D01*
X119332820Y-90436576D01*
X119275579Y-90493133D01*
X119275665Y-90256423D01*
X119180045Y-90459878D01*
X119159400Y-90500932D01*
X119136808Y-90539805D01*
X119112311Y-90576433D01*
X119085960Y-90610752D01*
X119057811Y-90642693D01*
X119027905Y-90672199D01*
X118996297Y-90699199D01*
X118963027Y-90723628D01*
X118928159Y-90745427D01*
X118891734Y-90764527D01*
X118853805Y-90780867D01*
X118814420Y-90794380D01*
X118773629Y-90805001D01*
X118731482Y-90812667D01*
X118688026Y-90817313D01*
X118643318Y-90818879D01*
X118620798Y-90818486D01*
X118598584Y-90817313D01*
X118576694Y-90815371D01*
X118555118Y-90812667D01*
X118533872Y-90809207D01*
X118512959Y-90805001D01*
X118492384Y-90800056D01*
X118472156Y-90794380D01*
X118452284Y-90787979D01*
X118432766Y-90780867D01*
X118413614Y-90773048D01*
X118394831Y-90764527D01*
X118376419Y-90755317D01*
X118358398Y-90745427D01*
X118340764Y-90734861D01*
X118323524Y-90723628D01*
X118306686Y-90711738D01*
X118290256Y-90699199D01*
X118274236Y-90686012D01*
X118258645Y-90672199D01*
X118243476Y-90657756D01*
X118228734Y-90642693D01*
X118214442Y-90627024D01*
X118200582Y-90610752D01*
X118187178Y-90593885D01*
X118174234Y-90576433D01*
X118149729Y-90539805D01*
X118127142Y-90500932D01*
X118106495Y-90459878D01*
X118010883Y-90256423D01*
X118010970Y-91184117D01*
X117949189Y-91217810D01*
X117889563Y-91248993D01*
X117832073Y-91277715D01*
X117776707Y-91303986D01*
X117723451Y-91327839D01*
X117672323Y-91349299D01*
X117623288Y-91368390D01*
X117576349Y-91385144D01*
X117576349Y-90385216D01*
X117497784Y-90465380D01*
X117424027Y-90544190D01*
X117355339Y-90621450D01*
X117292020Y-90696957D01*
X117234338Y-90770520D01*
X117182584Y-90841938D01*
X117137024Y-90911013D01*
X117097947Y-90977548D01*
X117080919Y-91009807D01*
X117065617Y-91041351D01*
X117052083Y-91072163D01*
X117040337Y-91102221D01*
X117030420Y-91131490D01*
X117022374Y-91159952D01*
X117016223Y-91187585D01*
X117012005Y-91214360D01*
X117009759Y-91240253D01*
X117009513Y-91265243D01*
X117011316Y-91289297D01*
X117015178Y-91312401D01*
X117021154Y-91334520D01*
X117029278Y-91355638D01*
X117039578Y-91375726D01*
X117052096Y-91394758D01*
X117068622Y-91415014D01*
X117086813Y-91433186D01*
X117106665Y-91449275D01*
X117128144Y-91463303D01*
X117151252Y-91475276D01*
X117175974Y-91485200D01*
X117202298Y-91493088D01*
X117230206Y-91498961D01*
X117290741Y-91504669D01*
X117357487Y-91502427D01*
X117430326Y-91492308D01*
X117509181Y-91474405D01*
X117593943Y-91448809D01*
X117684512Y-91415598D01*
X117780789Y-91374871D01*
X117882675Y-91326708D01*
X117990073Y-91271201D01*
X118102881Y-91208434D01*
X118221000Y-91138497D01*
X118344333Y-91061477D01*
X118365336Y-91048287D01*
X118385342Y-91036117D01*
X118394921Y-91030478D01*
X118404181Y-91025157D01*
X118413110Y-91020181D01*
X118421680Y-91015573D01*
X118423706Y-91014573D01*
X118425724Y-91013713D01*
X118427718Y-91012999D01*
X118429674Y-91012419D01*
X118431586Y-91011973D01*
X118433449Y-91011665D01*
X118435251Y-91011484D01*
X118436985Y-91011435D01*
X118438639Y-91011511D01*
X118440211Y-91011713D01*
X118441694Y-91012038D01*
X118443063Y-91012480D01*
X118444327Y-91013043D01*
X118445467Y-91013717D01*
X118446482Y-91014510D01*
X118447358Y-91015411D01*
X118448086Y-91016419D01*
X118448662Y-91017537D01*
X118449071Y-91018758D01*
X118449311Y-91020082D01*
X118449372Y-91021504D01*
X118449238Y-91023026D01*
X118448909Y-91024641D01*
X118448372Y-91026351D01*
X118447623Y-91028149D01*
X118446649Y-91030041D01*
X118445444Y-91032013D01*
X118443997Y-91034078D01*
X118442303Y-91036218D01*
X118440342Y-91038441D01*
X118438120Y-91040742D01*
X118435616Y-91043116D01*
X118428927Y-91049077D01*
X118421660Y-91055257D01*
X118413868Y-91061615D01*
X118405590Y-91068135D01*
X118396860Y-91074778D01*
X118387729Y-91081517D01*
X118378236Y-91088326D01*
X118368413Y-91095167D01*
X118279407Y-91154914D01*
X118189959Y-91213000D01*
X118100395Y-91269144D01*
X118011055Y-91323043D01*
X118011055Y-91773509D01*
X117576349Y-91773509D01*
X117576349Y-91548490D01*
X117511241Y-91575757D01*
X117447638Y-91600247D01*
X117385724Y-91621813D01*
X117325655Y-91640292D01*
X117267590Y-91655527D01*
X117211703Y-91667376D01*
X117158148Y-91675674D01*
X117132308Y-91678438D01*
X117107103Y-91680259D01*
X117082565Y-91681117D01*
X117058718Y-91680985D01*
X117035570Y-91679850D01*
X117013158Y-91677695D01*
X116991491Y-91674493D01*
X116970593Y-91670230D01*
X116950483Y-91664884D01*
X116931178Y-91658436D01*
X116912707Y-91650870D01*
X116895094Y-91642160D01*
X116878342Y-91632289D01*
X116862481Y-91621242D01*
X116847536Y-91608990D01*
X116833518Y-91595525D01*
X116820460Y-91580827D01*
X116808374Y-91564862D01*
X116794007Y-91541358D01*
X116782491Y-91516146D01*
X116773769Y-91489285D01*
X116767818Y-91460815D01*
X116764596Y-91430808D01*
X116764063Y-91399304D01*
X116766195Y-91366363D01*
X116770948Y-91332037D01*
X116778279Y-91296382D01*
X116788157Y-91259452D01*
X116815417Y-91181981D01*
X116852436Y-91100055D01*
X116898907Y-91014111D01*
X116954561Y-90924576D01*
X117019083Y-90831889D01*
X117092198Y-90736480D01*
X117173604Y-90638777D01*
X117263015Y-90539220D01*
X117360134Y-90438239D01*
X117464678Y-90336267D01*
X117576349Y-90233733D01*
X117576349Y-90176397D01*
X117576891Y-90154932D01*
X117578497Y-90133752D01*
X117581141Y-90112884D01*
X117584800Y-90092353D01*
X117589435Y-90072186D01*
X117595036Y-90052408D01*
X117601575Y-90033044D01*
X117609018Y-90014124D01*
X117617348Y-89995668D01*
X117626529Y-89977705D01*
X117636543Y-89960265D01*
X117647367Y-89943364D01*
X117658964Y-89927038D01*
X117671313Y-89911308D01*
X117684391Y-89896203D01*
X117698170Y-89881747D01*
X117712626Y-89867964D01*
X117727720Y-89854884D01*
X117743451Y-89842526D01*
X117759769Y-89830925D01*
X117776669Y-89820102D01*
X117794101Y-89810080D01*
X117812070Y-89800896D01*
X117830516Y-89792565D01*
X117849437Y-89785119D01*
X117868800Y-89778579D01*
X117888573Y-89772972D01*
X117908742Y-89768329D01*
X117929266Y-89764675D01*
X117950135Y-89762031D01*
X117971312Y-89760423D01*
X117992779Y-89759883D01*
X118002701Y-89759999D01*
X118012575Y-89760348D01*
X118022384Y-89760922D01*
X118032132Y-89761724D01*
X118041817Y-89762749D01*
X118051433Y-89763994D01*
X118060985Y-89765457D01*
X118070454Y-89767133D01*
X118079863Y-89769029D01*
X118089179Y-89771134D01*
X118098430Y-89773443D01*
X118107598Y-89775963D01*
X118116679Y-89778681D01*
X118125671Y-89781599D01*
X118134578Y-89784718D01*
X118143397Y-89788029D01*
X118166277Y-89772193D01*
X118189300Y-89756419D01*
X118237239Y-89724125D01*
X118285611Y-89692365D01*
X118383285Y-89630238D01*
X118481514Y-89569621D01*
X118579483Y-89510097D01*
X118589827Y-89503951D01*
X118600100Y-89498120D01*
X118610235Y-89492620D01*
X118620134Y-89487480D01*
X118629745Y-89482703D01*
X118638979Y-89478321D01*
X118647772Y-89474335D01*
X118656050Y-89470775D01*
X118659240Y-89469504D01*
X118662256Y-89468455D01*
X118665091Y-89467614D01*
X118667742Y-89466974D01*
X118670216Y-89466527D01*
X118672519Y-89466260D01*
X118674640Y-89466171D01*
X118676585Y-89466247D01*
G37*
D11*
G36*
X167647314Y-84035303D02*
G01*
X167374067Y-84035303D01*
X167509317Y-83660146D01*
X167647314Y-84035303D01*
G37*
G36*
X169139496Y-84560650D02*
G01*
X165399566Y-84560650D01*
X165399566Y-84121277D01*
X165510677Y-84121277D01*
X165516763Y-84202392D01*
X165532975Y-84268532D01*
X165557970Y-84322400D01*
X165591277Y-84366130D01*
X165633659Y-84401417D01*
X165684556Y-84427299D01*
X165745702Y-84443690D01*
X165819400Y-84449539D01*
X165902209Y-84442962D01*
X165969031Y-84424756D01*
X166022977Y-84396355D01*
X166069351Y-84356759D01*
X166104578Y-84310044D01*
X166129528Y-84255183D01*
X166140689Y-84209547D01*
X166148445Y-84146850D01*
X166151387Y-84062903D01*
X166151387Y-83593712D01*
X166294453Y-83593712D01*
X166591635Y-83593712D01*
X166591635Y-84430000D01*
X166793807Y-84430000D01*
X167014725Y-84430000D01*
X167229231Y-84430000D01*
X167311907Y-84203342D01*
X167712160Y-84203342D01*
X167799599Y-84430000D01*
X168019601Y-84430000D01*
X167818523Y-83926371D01*
X168091836Y-83926371D01*
X168098512Y-84021452D01*
X168118146Y-84110338D01*
X168150576Y-84194122D01*
X168183893Y-84252585D01*
X168224007Y-84303180D01*
X168271209Y-84346647D01*
X168326126Y-84383410D01*
X168385446Y-84411712D01*
X168450317Y-84432349D01*
X168521540Y-84445123D01*
X168600044Y-84449539D01*
X168681650Y-84444430D01*
X168762872Y-84429033D01*
X168844287Y-84403011D01*
X168922968Y-84367962D01*
X168983285Y-84331938D01*
X169028385Y-84295239D01*
X169028385Y-83894619D01*
X168592595Y-83894619D01*
X168592595Y-84062658D01*
X168824137Y-84062658D01*
X168824137Y-84191191D01*
X168775013Y-84223828D01*
X168714533Y-84252374D01*
X168650140Y-84271406D01*
X168587099Y-84277592D01*
X168524524Y-84271692D01*
X168470038Y-84254713D01*
X168422038Y-84226964D01*
X168379432Y-84187711D01*
X168346931Y-84141139D01*
X168322220Y-84082541D01*
X168306103Y-84009266D01*
X168300236Y-83918066D01*
X168305956Y-83833937D01*
X168321741Y-83765849D01*
X168346113Y-83710895D01*
X168378455Y-83666741D01*
X168420215Y-83630177D01*
X168468337Y-83603952D01*
X168524072Y-83587694D01*
X168589175Y-83581988D01*
X168646075Y-83587110D01*
X168694109Y-83601631D01*
X168734988Y-83624975D01*
X168769607Y-83656876D01*
X168796023Y-83695572D01*
X168814611Y-83742212D01*
X169015440Y-83703133D01*
X168995201Y-83636813D01*
X168966047Y-83579620D01*
X168928009Y-83530263D01*
X168880496Y-83487894D01*
X168826884Y-83455685D01*
X168761986Y-83431360D01*
X168683615Y-83415678D01*
X168589175Y-83410041D01*
X168494509Y-83416175D01*
X168415440Y-83433319D01*
X168349390Y-83460111D01*
X168289417Y-83496656D01*
X168237888Y-83539793D01*
X168194035Y-83589811D01*
X168157415Y-83647323D01*
X168129206Y-83709236D01*
X168108746Y-83775911D01*
X168096160Y-83848029D01*
X168091836Y-83926371D01*
X167818523Y-83926371D01*
X167618615Y-83425673D01*
X167404781Y-83425673D01*
X167168016Y-84035303D01*
X167014725Y-84430000D01*
X166793807Y-84430000D01*
X166793807Y-83593712D01*
X167090318Y-83593712D01*
X167090318Y-83425673D01*
X166294453Y-83425673D01*
X166294453Y-83593712D01*
X166151387Y-83593712D01*
X166151387Y-83425673D01*
X165949887Y-83425673D01*
X165949887Y-84077313D01*
X165945628Y-84160147D01*
X165935325Y-84210517D01*
X165921860Y-84238757D01*
X165900270Y-84259392D01*
X165869497Y-84272640D01*
X165826239Y-84277592D01*
X165784657Y-84271338D01*
X165752175Y-84253571D01*
X165726527Y-84223553D01*
X165715355Y-84198513D01*
X165706447Y-84159551D01*
X165701248Y-84101737D01*
X165510677Y-84121277D01*
X165399566Y-84121277D01*
X165399566Y-83298930D01*
X169139496Y-83298930D01*
X169139496Y-84560650D01*
G37*
G36*
X166235201Y-86187620D02*
G01*
X166287722Y-86203820D01*
X166333989Y-86230277D01*
X166375052Y-86267657D01*
X166406416Y-86312097D01*
X166430287Y-86368249D01*
X166445877Y-86438727D01*
X166451561Y-86526737D01*
X166446418Y-86607973D01*
X166432083Y-86675542D01*
X166407316Y-86736430D01*
X166373709Y-86786123D01*
X166311288Y-86743247D01*
X166247836Y-86708767D01*
X166183077Y-86682198D01*
X166126413Y-86799434D01*
X166188727Y-86826411D01*
X166251404Y-86863060D01*
X166211508Y-86873915D01*
X166168728Y-86877592D01*
X166111804Y-86871995D01*
X166061264Y-86855733D01*
X166015753Y-86828849D01*
X165974371Y-86790397D01*
X165942898Y-86745231D01*
X165918926Y-86688202D01*
X165903266Y-86616670D01*
X165897557Y-86527409D01*
X165903248Y-86439646D01*
X165918876Y-86369195D01*
X165942840Y-86312903D01*
X165974371Y-86268206D01*
X166015644Y-86230550D01*
X166062049Y-86203928D01*
X166114625Y-86187644D01*
X166174895Y-86181988D01*
X166235201Y-86187620D01*
G37*
G36*
X168151663Y-86195938D02*
G01*
X168196920Y-86200673D01*
X168228073Y-86209825D01*
X168254925Y-86224799D01*
X168278192Y-86245858D01*
X168295763Y-86271582D01*
X168306533Y-86301770D01*
X168310310Y-86337632D01*
X168304447Y-86380514D01*
X168287412Y-86416889D01*
X168260384Y-86446222D01*
X168224214Y-86466898D01*
X168174046Y-86477802D01*
X168064358Y-86482896D01*
X167953716Y-86482896D01*
X167953716Y-86193712D01*
X168051413Y-86193712D01*
X168151663Y-86195938D01*
G37*
G36*
X168991728Y-87242716D02*
G01*
X165578107Y-87242716D01*
X165578107Y-86529790D01*
X165689218Y-86529790D01*
X165695178Y-86630160D01*
X165712066Y-86716865D01*
X165738773Y-86791876D01*
X165774747Y-86856863D01*
X165820010Y-86913129D01*
X165874657Y-86961004D01*
X165936877Y-86998579D01*
X166007762Y-87026173D01*
X166088785Y-87043469D01*
X166181734Y-87049539D01*
X166260521Y-87044571D01*
X166332853Y-87030098D01*
X166399659Y-87006491D01*
X166534237Y-87094602D01*
X166578682Y-87115729D01*
X166623691Y-87131605D01*
X166698185Y-86983105D01*
X166613837Y-86946255D01*
X166536252Y-86898658D01*
X166573535Y-86850167D01*
X166602433Y-86801919D01*
X166623691Y-86753639D01*
X166636684Y-86709553D01*
X166767306Y-86709553D01*
X166783389Y-86791537D01*
X166809376Y-86859641D01*
X166844516Y-86916138D01*
X166888878Y-86962711D01*
X166941561Y-86998712D01*
X167006034Y-87025790D01*
X167084713Y-87043247D01*
X167180565Y-87049539D01*
X167267181Y-87044997D01*
X167339061Y-87032394D01*
X167398490Y-87012964D01*
X167453054Y-86983801D01*
X167497743Y-86946677D01*
X167533740Y-86901100D01*
X167560484Y-86849248D01*
X167576268Y-86795732D01*
X167581550Y-86739656D01*
X167576737Y-86677353D01*
X167563149Y-86624673D01*
X167541556Y-86579921D01*
X167511704Y-86540069D01*
X167475069Y-86506224D01*
X167438559Y-86482896D01*
X167751544Y-86482896D01*
X167751544Y-87030000D01*
X167953716Y-87030000D01*
X168678384Y-87030000D01*
X168880617Y-87030000D01*
X168880617Y-86025673D01*
X168678384Y-86025673D01*
X168678384Y-87030000D01*
X167953716Y-87030000D01*
X167953716Y-86650935D01*
X168085546Y-86650935D01*
X168214759Y-86646746D01*
X168295289Y-86636524D01*
X168347242Y-86619250D01*
X168400191Y-86588958D01*
X168432004Y-86562537D01*
X168460323Y-86529805D01*
X168485249Y-86489979D01*
X168503211Y-86446722D01*
X168514639Y-86395429D01*
X168518710Y-86334518D01*
X168511692Y-86256553D01*
X168491994Y-86192310D01*
X168460642Y-86139063D01*
X168418110Y-86093884D01*
X168370368Y-86061514D01*
X168316477Y-86040755D01*
X168244670Y-86030581D01*
X168076020Y-86025673D01*
X167751544Y-86025673D01*
X167751544Y-86482896D01*
X167438559Y-86482896D01*
X167430914Y-86478011D01*
X167349838Y-86444167D01*
X167212683Y-86405287D01*
X167112816Y-86377694D01*
X167055650Y-86355373D01*
X167026875Y-86337693D01*
X167004152Y-86309382D01*
X166996833Y-86276693D01*
X167000442Y-86252306D01*
X167010945Y-86231888D01*
X167028951Y-86214412D01*
X167064010Y-86195182D01*
X167109126Y-86182668D01*
X167166948Y-86178080D01*
X167223057Y-86182488D01*
X167264613Y-86194234D01*
X167294993Y-86211847D01*
X167318867Y-86237315D01*
X167337648Y-86273265D01*
X167350680Y-86322672D01*
X167552913Y-86314856D01*
X167544475Y-86247213D01*
X167524902Y-86188752D01*
X167494563Y-86137783D01*
X167452835Y-86093145D01*
X167403487Y-86059002D01*
X167341644Y-86033071D01*
X167264580Y-86016181D01*
X167168963Y-86010041D01*
X167092569Y-86014312D01*
X167027437Y-86026325D01*
X166971920Y-86045151D01*
X166920790Y-86072755D01*
X166879521Y-86106753D01*
X166846868Y-86147428D01*
X166822611Y-86193691D01*
X166808303Y-86241472D01*
X166803515Y-86291592D01*
X166809323Y-86349430D01*
X166826347Y-86401782D01*
X166854754Y-86449916D01*
X166895717Y-86494680D01*
X166943086Y-86528170D01*
X167016351Y-86561872D01*
X167123900Y-86594881D01*
X167285772Y-86639333D01*
X167332512Y-86660653D01*
X167358557Y-86682076D01*
X167374062Y-86708917D01*
X167379378Y-86741610D01*
X167374106Y-86775725D01*
X167358153Y-86807092D01*
X167329858Y-86836864D01*
X167294502Y-86858212D01*
X167246674Y-86872326D01*
X167182641Y-86877592D01*
X167122729Y-86872033D01*
X167074712Y-86856595D01*
X167036095Y-86832224D01*
X167005452Y-86798410D01*
X166981198Y-86752095D01*
X166964044Y-86690013D01*
X166767306Y-86709553D01*
X166636684Y-86709553D01*
X166643240Y-86687307D01*
X166655570Y-86611927D01*
X166659900Y-86526188D01*
X166653969Y-86426897D01*
X166637151Y-86341000D01*
X166610528Y-86266563D01*
X166574630Y-86201955D01*
X166529413Y-86145901D01*
X166474802Y-86097923D01*
X166413324Y-86060453D01*
X166344006Y-86033080D01*
X166265519Y-86016007D01*
X166176238Y-86010041D01*
X166086120Y-86016057D01*
X166006970Y-86033266D01*
X165937137Y-86060845D01*
X165875269Y-86098580D01*
X165820376Y-86146878D01*
X165774937Y-86203297D01*
X165738855Y-86268340D01*
X165712091Y-86343288D01*
X165695182Y-86429790D01*
X165689360Y-86527409D01*
X165689218Y-86529790D01*
X165578107Y-86529790D01*
X165578107Y-85898930D01*
X168991728Y-85898930D01*
X168991728Y-87242716D01*
G37*
G36*
X167769131Y-88696778D02*
G01*
X167821580Y-88703360D01*
X167874058Y-88721821D01*
X167915125Y-88750865D01*
X167946995Y-88791211D01*
X167972522Y-88848562D01*
X167987107Y-88918099D01*
X167993039Y-89028203D01*
X167987208Y-89138955D01*
X167972522Y-89212972D01*
X167956119Y-89257080D01*
X167938352Y-89288644D01*
X167919583Y-89310364D01*
X167883701Y-89335246D01*
X167837944Y-89352313D01*
X167794510Y-89359050D01*
X167715701Y-89361960D01*
X167564698Y-89361960D01*
X167564698Y-88693712D01*
X167655556Y-88693712D01*
X167769131Y-88696778D01*
G37*
G36*
X168313160Y-89660650D02*
G01*
X166267849Y-89660650D01*
X166267849Y-89209553D01*
X166378960Y-89209553D01*
X166395043Y-89291537D01*
X166421030Y-89359641D01*
X166456169Y-89416138D01*
X166500532Y-89462711D01*
X166553215Y-89498712D01*
X166617688Y-89525790D01*
X166696367Y-89543247D01*
X166792219Y-89549539D01*
X166878834Y-89544997D01*
X166950715Y-89532394D01*
X167010144Y-89512964D01*
X167064707Y-89483801D01*
X167109397Y-89446677D01*
X167145394Y-89401100D01*
X167165581Y-89361960D01*
X167362526Y-89361960D01*
X167362526Y-89530000D01*
X167742995Y-89530000D01*
X167849256Y-89524009D01*
X167921964Y-89508750D01*
X167979784Y-89485995D01*
X168026608Y-89459172D01*
X168064052Y-89428578D01*
X168105862Y-89380228D01*
X168141684Y-89321616D01*
X168171336Y-89251196D01*
X168187774Y-89190596D01*
X168198305Y-89119848D01*
X168202049Y-89037423D01*
X168197967Y-88943424D01*
X168186643Y-88865058D01*
X168169260Y-88800080D01*
X168143514Y-88738101D01*
X168111632Y-88684157D01*
X168073639Y-88637353D01*
X168028854Y-88597461D01*
X167978776Y-88566772D01*
X167922636Y-88544846D01*
X167849602Y-88531249D01*
X167732065Y-88525673D01*
X167362526Y-88525673D01*
X167362526Y-89361960D01*
X167165581Y-89361960D01*
X167172138Y-89349248D01*
X167187922Y-89295732D01*
X167193204Y-89239656D01*
X167188391Y-89177353D01*
X167174803Y-89124673D01*
X167153210Y-89079921D01*
X167123358Y-89040069D01*
X167086723Y-89006224D01*
X167042568Y-88978011D01*
X166961492Y-88944167D01*
X166824337Y-88905287D01*
X166724470Y-88877694D01*
X166667304Y-88855373D01*
X166638529Y-88837693D01*
X166615806Y-88809382D01*
X166608487Y-88776693D01*
X166612096Y-88752306D01*
X166622599Y-88731888D01*
X166640605Y-88714412D01*
X166675664Y-88695182D01*
X166720780Y-88682668D01*
X166778602Y-88678080D01*
X166834711Y-88682488D01*
X166876267Y-88694234D01*
X166906646Y-88711847D01*
X166930521Y-88737315D01*
X166949302Y-88773265D01*
X166962334Y-88822672D01*
X167164567Y-88814856D01*
X167156128Y-88747213D01*
X167136556Y-88688752D01*
X167106217Y-88637783D01*
X167064488Y-88593145D01*
X167015141Y-88559002D01*
X166953298Y-88533071D01*
X166876234Y-88516181D01*
X166780617Y-88510041D01*
X166704223Y-88514312D01*
X166639091Y-88526325D01*
X166583574Y-88545151D01*
X166532444Y-88572755D01*
X166491175Y-88606753D01*
X166458522Y-88647428D01*
X166434265Y-88693691D01*
X166419957Y-88741472D01*
X166415169Y-88791592D01*
X166420977Y-88849430D01*
X166438000Y-88901782D01*
X166466407Y-88949916D01*
X166507370Y-88994680D01*
X166554740Y-89028170D01*
X166628005Y-89061872D01*
X166735554Y-89094881D01*
X166897426Y-89139333D01*
X166944166Y-89160653D01*
X166970211Y-89182076D01*
X166985716Y-89208917D01*
X166991032Y-89241610D01*
X166985760Y-89275725D01*
X166969807Y-89307092D01*
X166941512Y-89336864D01*
X166906156Y-89358212D01*
X166858328Y-89372326D01*
X166794295Y-89377592D01*
X166734383Y-89372033D01*
X166686365Y-89356595D01*
X166647749Y-89332224D01*
X166617106Y-89298410D01*
X166592852Y-89252095D01*
X166575697Y-89190013D01*
X166378960Y-89209553D01*
X166267849Y-89209553D01*
X166267849Y-88398930D01*
X168313160Y-88398930D01*
X168313160Y-89660650D01*
G37*
D12*
G36*
X104177655Y-112231470D02*
G01*
X104256838Y-112255799D01*
X104326002Y-112295380D01*
X104386815Y-112351119D01*
X104433138Y-112417451D01*
X104468469Y-112501503D01*
X104491585Y-112607249D01*
X104500021Y-112739556D01*
X104491406Y-112873175D01*
X104467739Y-112980543D01*
X104431447Y-113066417D01*
X104383701Y-113134680D01*
X104321129Y-113192560D01*
X104251736Y-113233189D01*
X104174084Y-113257866D01*
X104086030Y-113266388D01*
X103998045Y-113257835D01*
X103920129Y-113233023D01*
X103850183Y-113192089D01*
X103786802Y-113133673D01*
X103738137Y-113064726D01*
X103701412Y-112979232D01*
X103677627Y-112873665D01*
X103669016Y-112743678D01*
X103677539Y-112610987D01*
X103700927Y-112504645D01*
X103736737Y-112419847D01*
X103783779Y-112352676D01*
X103845433Y-112296135D01*
X103915155Y-112256083D01*
X103994564Y-112231529D01*
X104086030Y-112222983D01*
X104177655Y-112231470D01*
G37*
G36*
X102511583Y-112245167D02*
G01*
X102590256Y-112255040D01*
X102668973Y-112282732D01*
X102730573Y-112326297D01*
X102778378Y-112386816D01*
X102816669Y-112472843D01*
X102838546Y-112577149D01*
X102847444Y-112742304D01*
X102838697Y-112908433D01*
X102816669Y-113019459D01*
X102792064Y-113085620D01*
X102765414Y-113132966D01*
X102737260Y-113165546D01*
X102683437Y-113202869D01*
X102614802Y-113228469D01*
X102549650Y-113238576D01*
X102431437Y-113242941D01*
X102204932Y-113242941D01*
X102204932Y-112240568D01*
X102341220Y-112240568D01*
X102511583Y-112245167D01*
G37*
G36*
X107874940Y-113690976D02*
G01*
X101735007Y-113690976D01*
X101735007Y-113242941D01*
X101901674Y-113242941D01*
X101901674Y-113495000D01*
X102472378Y-113495000D01*
X102631770Y-113486014D01*
X102740832Y-113463126D01*
X102827561Y-113428992D01*
X102897797Y-113388759D01*
X102953964Y-113342867D01*
X103016679Y-113270342D01*
X103070412Y-113182424D01*
X103114890Y-113076795D01*
X103139547Y-112985894D01*
X103155343Y-112879772D01*
X103160960Y-112756134D01*
X103160865Y-112753936D01*
X103356507Y-112753936D01*
X103365399Y-112899639D01*
X103390695Y-113026529D01*
X103430906Y-113137311D01*
X103485363Y-113234265D01*
X103554252Y-113319145D01*
X103637015Y-113391667D01*
X103729978Y-113448267D01*
X103834581Y-113489578D01*
X103952798Y-113515320D01*
X104087037Y-113524309D01*
X104219404Y-113515328D01*
X104311671Y-113495000D01*
X105053598Y-113495000D01*
X105335332Y-113495000D01*
X105335332Y-112501511D01*
X105940932Y-113495000D01*
X106245289Y-113495000D01*
X106565766Y-113495000D01*
X107708273Y-113495000D01*
X107708273Y-113242941D01*
X106869024Y-113242941D01*
X106869024Y-112826751D01*
X107623185Y-112826751D01*
X107623185Y-112574692D01*
X106869024Y-112574692D01*
X106869024Y-112240568D01*
X107679605Y-112240568D01*
X107679605Y-111988510D01*
X106565766Y-111988510D01*
X106565766Y-113495000D01*
X106245289Y-113495000D01*
X106245289Y-111988510D01*
X105963463Y-111988510D01*
X105963463Y-112997019D01*
X105348704Y-111988510D01*
X105053598Y-111988510D01*
X105053598Y-113495000D01*
X104311671Y-113495000D01*
X104336354Y-113489562D01*
X104440220Y-113448126D01*
X104532906Y-113391222D01*
X104615792Y-113318137D01*
X104684518Y-113232954D01*
X104738953Y-113135302D01*
X104779226Y-113023355D01*
X104804604Y-112894752D01*
X104813538Y-112746700D01*
X104804520Y-112597370D01*
X104778917Y-112467834D01*
X104738314Y-112355240D01*
X104683462Y-112257178D01*
X104614235Y-112171783D01*
X104530724Y-112098476D01*
X104437467Y-112041412D01*
X104333093Y-111999873D01*
X104215711Y-111974057D01*
X104083007Y-111965062D01*
X103961835Y-111972125D01*
X103854539Y-111992349D01*
X103759233Y-112024688D01*
X103691785Y-112058799D01*
X103627159Y-112103755D01*
X103564968Y-112160518D01*
X103485658Y-112258072D01*
X103425200Y-112367239D01*
X103388581Y-112473686D01*
X103364976Y-112601294D01*
X103357076Y-112743678D01*
X103356507Y-112753936D01*
X103160865Y-112753936D01*
X103154836Y-112615137D01*
X103137851Y-112497588D01*
X103111775Y-112400120D01*
X103073157Y-112307151D01*
X103025333Y-112226235D01*
X102968344Y-112156030D01*
X102901167Y-112096191D01*
X102826050Y-112050159D01*
X102741839Y-112017269D01*
X102632289Y-111996874D01*
X102455983Y-111988510D01*
X101901674Y-111988510D01*
X101901674Y-113242941D01*
X101735007Y-113242941D01*
X101735007Y-111798395D01*
X107874940Y-111798395D01*
X107874940Y-113690976D01*
G37*
G36*
X121752861Y-79993908D02*
G01*
X121820747Y-80001010D01*
X121867477Y-80014738D01*
X121907755Y-80037198D01*
X121942655Y-80068787D01*
X121969012Y-80107374D01*
X121985166Y-80152655D01*
X121990832Y-80206448D01*
X121982038Y-80270771D01*
X121956485Y-80325334D01*
X121915943Y-80369333D01*
X121861688Y-80400347D01*
X121786436Y-80416703D01*
X121621903Y-80424344D01*
X121455940Y-80424344D01*
X121455940Y-79990568D01*
X121602486Y-79990568D01*
X121752861Y-79993908D01*
G37*
G36*
X127825644Y-79995167D02*
G01*
X127904317Y-80005040D01*
X127983034Y-80032732D01*
X128044635Y-80076297D01*
X128092439Y-80136816D01*
X128130730Y-80222843D01*
X128152607Y-80327149D01*
X128161505Y-80492304D01*
X128152759Y-80658433D01*
X128130730Y-80769459D01*
X128106126Y-80835620D01*
X128079476Y-80882966D01*
X128051321Y-80915546D01*
X127997499Y-80952869D01*
X127928864Y-80978469D01*
X127863712Y-80988576D01*
X127745498Y-80992941D01*
X127518994Y-80992941D01*
X127518994Y-79990568D01*
X127655281Y-79990568D01*
X127825644Y-79995167D01*
G37*
G36*
X128641688Y-81440976D02*
G01*
X120986015Y-81440976D01*
X120986015Y-80424344D01*
X121152682Y-80424344D01*
X121152682Y-81245000D01*
X121455940Y-81245000D01*
X121455940Y-80764330D01*
X122475348Y-80764330D01*
X122499473Y-80887306D01*
X122538454Y-80989462D01*
X122591163Y-81074207D01*
X122657706Y-81144066D01*
X122736732Y-81198069D01*
X122833441Y-81238685D01*
X122951459Y-81264871D01*
X123095237Y-81274309D01*
X123225160Y-81267496D01*
X123332982Y-81248592D01*
X123343968Y-81245000D01*
X124543108Y-81245000D01*
X125600619Y-81245000D01*
X125817232Y-81245000D01*
X126959739Y-81245000D01*
X126959739Y-80992941D01*
X127215736Y-80992941D01*
X127215736Y-81245000D01*
X127786440Y-81245000D01*
X127945831Y-81236014D01*
X128054893Y-81213126D01*
X128141623Y-81178992D01*
X128211859Y-81138759D01*
X128268025Y-81092867D01*
X128330740Y-81020342D01*
X128384473Y-80932424D01*
X128428951Y-80826795D01*
X128453608Y-80735894D01*
X128469405Y-80629772D01*
X128475021Y-80506134D01*
X128468897Y-80365137D01*
X128451912Y-80247588D01*
X128425837Y-80150120D01*
X128387218Y-80057151D01*
X128339395Y-79976235D01*
X128282405Y-79906030D01*
X128215229Y-79846191D01*
X128140112Y-79800159D01*
X128055901Y-79767269D01*
X127946350Y-79746874D01*
X127770045Y-79738510D01*
X127215736Y-79738510D01*
X127215736Y-80992941D01*
X126959739Y-80992941D01*
X126120490Y-80992941D01*
X126120490Y-80576751D01*
X126874651Y-80576751D01*
X126874651Y-80324692D01*
X126120490Y-80324692D01*
X126120490Y-79990568D01*
X126931071Y-79990568D01*
X126931071Y-79738510D01*
X125817232Y-79738510D01*
X125817232Y-81245000D01*
X125600619Y-81245000D01*
X125600619Y-80992941D01*
X124846458Y-80992941D01*
X124846458Y-79756095D01*
X124543108Y-79756095D01*
X124543108Y-81245000D01*
X123343968Y-81245000D01*
X123422125Y-81219446D01*
X123503970Y-81175702D01*
X123571004Y-81120016D01*
X123625000Y-81051651D01*
X123665115Y-80973872D01*
X123688791Y-80893598D01*
X123696715Y-80809484D01*
X123689496Y-80716030D01*
X123669114Y-80637010D01*
X123636723Y-80569882D01*
X123591946Y-80510104D01*
X123536994Y-80459336D01*
X123470760Y-80417016D01*
X123349146Y-80366250D01*
X123143414Y-80307931D01*
X122993614Y-80266541D01*
X122907864Y-80233059D01*
X122864702Y-80206540D01*
X122830618Y-80164073D01*
X122819639Y-80115040D01*
X122825053Y-80078459D01*
X122840808Y-80047833D01*
X122867816Y-80021618D01*
X122920405Y-79992774D01*
X122988078Y-79974003D01*
X123074812Y-79967121D01*
X123158975Y-79973732D01*
X123221309Y-79991351D01*
X123266878Y-80017771D01*
X123302690Y-80055973D01*
X123330862Y-80109898D01*
X123350409Y-80184009D01*
X123653759Y-80172285D01*
X123641101Y-80070819D01*
X123611743Y-79983129D01*
X123566234Y-79906675D01*
X123503641Y-79839718D01*
X123429620Y-79788503D01*
X123336855Y-79749607D01*
X123221259Y-79724272D01*
X123077834Y-79715062D01*
X122963243Y-79721469D01*
X122865545Y-79739488D01*
X122782270Y-79767727D01*
X122705575Y-79809133D01*
X122643672Y-79860130D01*
X122594692Y-79921142D01*
X122558306Y-79990537D01*
X122536844Y-80062209D01*
X122529662Y-80137389D01*
X122538375Y-80224146D01*
X122563909Y-80302673D01*
X122606520Y-80374875D01*
X122667964Y-80442021D01*
X122739019Y-80492256D01*
X122848916Y-80542808D01*
X123010240Y-80592322D01*
X123253048Y-80659000D01*
X123323158Y-80690980D01*
X123362225Y-80723114D01*
X123385483Y-80763376D01*
X123393457Y-80812415D01*
X123385548Y-80863588D01*
X123361619Y-80910638D01*
X123319177Y-80955297D01*
X123266142Y-80987318D01*
X123194401Y-81008489D01*
X123098351Y-81016388D01*
X123008483Y-81008049D01*
X122936457Y-80984893D01*
X122878532Y-80948336D01*
X122832568Y-80897616D01*
X122796187Y-80828143D01*
X122770455Y-80735020D01*
X122475348Y-80764330D01*
X121455940Y-80764330D01*
X121455940Y-80676402D01*
X121653685Y-80676402D01*
X121847505Y-80670119D01*
X121968300Y-80654787D01*
X122046229Y-80628875D01*
X122125654Y-80583437D01*
X122173372Y-80543806D01*
X122215850Y-80494708D01*
X122253240Y-80434968D01*
X122280182Y-80370084D01*
X122297325Y-80293144D01*
X122303432Y-80201777D01*
X122292904Y-80084830D01*
X122263358Y-79988465D01*
X122216329Y-79908594D01*
X122152532Y-79840826D01*
X122080918Y-79792271D01*
X122000082Y-79761133D01*
X121892372Y-79745872D01*
X121639397Y-79738510D01*
X121152682Y-79738510D01*
X121152682Y-80424344D01*
X120986015Y-80424344D01*
X120986015Y-79548395D01*
X128641688Y-79548395D01*
X128641688Y-81440976D01*
G37*
G36*
X132002861Y-79993908D02*
G01*
X132070747Y-80001010D01*
X132117477Y-80014738D01*
X132157755Y-80037198D01*
X132192655Y-80068787D01*
X132219012Y-80107374D01*
X132235166Y-80152655D01*
X132240832Y-80206448D01*
X132232038Y-80270771D01*
X132206485Y-80325334D01*
X132165943Y-80369333D01*
X132111688Y-80400347D01*
X132036436Y-80416703D01*
X131871903Y-80424344D01*
X131705940Y-80424344D01*
X131705940Y-79990568D01*
X131852486Y-79990568D01*
X132002861Y-79993908D01*
G37*
G36*
X137920306Y-79995167D02*
G01*
X137998979Y-80005040D01*
X138077695Y-80032732D01*
X138139296Y-80076297D01*
X138187101Y-80136816D01*
X138225392Y-80222843D01*
X138247269Y-80327149D01*
X138256167Y-80492304D01*
X138247420Y-80658433D01*
X138225392Y-80769459D01*
X138200787Y-80835620D01*
X138174137Y-80882966D01*
X138145983Y-80915546D01*
X138092160Y-80952869D01*
X138023525Y-80978469D01*
X137958373Y-80988576D01*
X137840160Y-80992941D01*
X137613655Y-80992941D01*
X137613655Y-79990568D01*
X137749943Y-79990568D01*
X137920306Y-79995167D01*
G37*
G36*
X138736350Y-81411667D02*
G01*
X131236015Y-81411667D01*
X131236015Y-80424344D01*
X131402682Y-80424344D01*
X131402682Y-81245000D01*
X131705940Y-81245000D01*
X132810345Y-81245000D01*
X133867855Y-81245000D01*
X134637770Y-81245000D01*
X135695280Y-81245000D01*
X135911893Y-81245000D01*
X137054400Y-81245000D01*
X137054400Y-80992941D01*
X137310397Y-80992941D01*
X137310397Y-81245000D01*
X137881101Y-81245000D01*
X138040493Y-81236014D01*
X138149555Y-81213126D01*
X138236284Y-81178992D01*
X138306520Y-81138759D01*
X138362687Y-81092867D01*
X138425402Y-81020342D01*
X138479135Y-80932424D01*
X138523613Y-80826795D01*
X138548270Y-80735894D01*
X138564066Y-80629772D01*
X138569683Y-80506134D01*
X138563559Y-80365137D01*
X138546574Y-80247588D01*
X138520498Y-80150120D01*
X138481880Y-80057151D01*
X138434056Y-79976235D01*
X138377067Y-79906030D01*
X138309890Y-79846191D01*
X138234773Y-79800159D01*
X138150562Y-79767269D01*
X138041012Y-79746874D01*
X137864706Y-79738510D01*
X137310397Y-79738510D01*
X137310397Y-80992941D01*
X137054400Y-80992941D01*
X136215151Y-80992941D01*
X136215151Y-80576751D01*
X136969312Y-80576751D01*
X136969312Y-80324692D01*
X136215151Y-80324692D01*
X136215151Y-79990568D01*
X137025732Y-79990568D01*
X137025732Y-79738510D01*
X135911893Y-79738510D01*
X135911893Y-81245000D01*
X135695280Y-81245000D01*
X135695280Y-80992941D01*
X134941120Y-80992941D01*
X134941120Y-79756095D01*
X134637770Y-79756095D01*
X134637770Y-81245000D01*
X133867855Y-81245000D01*
X133867855Y-80992941D01*
X133113695Y-80992941D01*
X133113695Y-79756095D01*
X132810345Y-79756095D01*
X132810345Y-81245000D01*
X131705940Y-81245000D01*
X131705940Y-80676402D01*
X131903685Y-80676402D01*
X132097505Y-80670119D01*
X132218300Y-80654787D01*
X132296229Y-80628875D01*
X132375654Y-80583437D01*
X132423372Y-80543806D01*
X132465850Y-80494708D01*
X132503240Y-80434968D01*
X132530182Y-80370084D01*
X132547325Y-80293144D01*
X132553432Y-80201777D01*
X132542904Y-80084830D01*
X132513358Y-79988465D01*
X132466329Y-79908594D01*
X132402532Y-79840826D01*
X132330918Y-79792271D01*
X132250082Y-79761133D01*
X132142372Y-79745872D01*
X131889397Y-79738510D01*
X131402682Y-79738510D01*
X131402682Y-80424344D01*
X131236015Y-80424344D01*
X131236015Y-79571843D01*
X138736350Y-79571843D01*
X138736350Y-81411667D01*
G37*
D13*
G36*
X122615016Y-115171300D02*
G01*
X117499062Y-115171300D01*
X117499062Y-113409371D01*
X117721284Y-113409371D01*
X117721284Y-113761081D01*
X117904683Y-113685456D01*
X118069328Y-113587702D01*
X118217219Y-113467257D01*
X118217219Y-114910000D01*
X118601168Y-114910000D01*
X118601168Y-112901346D01*
X119053995Y-112901346D01*
X119769870Y-114910000D01*
X120201570Y-114910000D01*
X120382824Y-114402463D01*
X121045673Y-114402463D01*
X121072500Y-114524214D01*
X121116337Y-114629659D01*
X121176804Y-114721319D01*
X121254745Y-114800945D01*
X121345714Y-114864151D01*
X121449714Y-114910208D01*
X121569124Y-114938980D01*
X121706960Y-114949078D01*
X121843159Y-114937747D01*
X121962942Y-114905141D01*
X122069254Y-114852165D01*
X122164284Y-114778124D01*
X122249302Y-114680778D01*
X122312118Y-114579144D01*
X122356661Y-114471721D01*
X122383618Y-114357224D01*
X122392794Y-114234057D01*
X122380839Y-114085932D01*
X122346657Y-113957345D01*
X122291545Y-113844872D01*
X122215108Y-113745938D01*
X122120192Y-113662757D01*
X122017718Y-113604738D01*
X121905884Y-113569815D01*
X121782065Y-113557871D01*
X121694247Y-113564797D01*
X121607128Y-113585727D01*
X121519748Y-113621374D01*
X121579832Y-113284319D01*
X122304012Y-113284319D01*
X122304012Y-112924794D01*
X121288817Y-112924794D01*
X121092079Y-113965390D01*
X121403611Y-114011186D01*
X121474609Y-113943625D01*
X121546853Y-113898064D01*
X121621460Y-113871528D01*
X121700122Y-113862686D01*
X121784151Y-113873554D01*
X121854793Y-113904898D01*
X121915300Y-113957452D01*
X121958721Y-114025472D01*
X121987314Y-114117691D01*
X121997976Y-114241507D01*
X121987128Y-114374050D01*
X121958173Y-114472197D01*
X121914567Y-114544002D01*
X121853571Y-114600657D01*
X121786627Y-114633277D01*
X121711113Y-114644263D01*
X121643877Y-114635903D01*
X121582529Y-114611071D01*
X121525244Y-114568548D01*
X121479600Y-114513491D01*
X121447163Y-114445890D01*
X121428279Y-114362896D01*
X121045673Y-114402463D01*
X120382824Y-114402463D01*
X120918911Y-112901346D01*
X120489898Y-112901346D01*
X119999459Y-114386343D01*
X119492533Y-112901346D01*
X119053995Y-112901346D01*
X118601168Y-112901346D01*
X118289637Y-112901346D01*
X118234981Y-113016371D01*
X118155415Y-113123032D01*
X118047836Y-113222526D01*
X117926332Y-113308822D01*
X117818097Y-113369766D01*
X117721284Y-113409371D01*
X117499062Y-113409371D01*
X117499062Y-112679124D01*
X122615016Y-112679124D01*
X122615016Y-115171300D01*
G37*
G36*
X133754911Y-113232871D02*
G01*
X133812840Y-113266123D01*
X133858147Y-113324575D01*
X133902355Y-113442222D01*
X133926793Y-113601265D01*
X133937892Y-113925945D01*
X133925815Y-114252398D01*
X133898325Y-114425300D01*
X133859045Y-114527826D01*
X133813450Y-114584302D01*
X133755010Y-114617573D01*
X133689131Y-114628632D01*
X133623404Y-114617724D01*
X133565544Y-114585034D01*
X133535353Y-114551661D01*
X133505256Y-114495995D01*
X133476029Y-114409668D01*
X133451588Y-114250532D01*
X133440491Y-113925945D01*
X133452547Y-113599222D01*
X133480059Y-113425125D01*
X133519311Y-113322584D01*
X133564811Y-113266123D01*
X133623337Y-113232843D01*
X133689131Y-113221793D01*
X133754911Y-113232871D01*
G37*
G36*
X134561771Y-115171300D02*
G01*
X129499062Y-115171300D01*
X129499062Y-113409371D01*
X129721284Y-113409371D01*
X129721284Y-113761081D01*
X129904683Y-113685456D01*
X130069328Y-113587702D01*
X130217219Y-113467257D01*
X130217219Y-114910000D01*
X130601168Y-114910000D01*
X130601168Y-112901346D01*
X131053995Y-112901346D01*
X131769870Y-114910000D01*
X132201570Y-114910000D01*
X132554484Y-113921793D01*
X133038834Y-113921793D01*
X133038994Y-113925945D01*
X133048440Y-114170407D01*
X133074418Y-114366637D01*
X133113047Y-114519287D01*
X133161446Y-114636201D01*
X133217742Y-114724131D01*
X133315334Y-114823352D01*
X133424581Y-114892591D01*
X133547900Y-114934561D01*
X133689131Y-114949078D01*
X133831053Y-114935369D01*
X133951316Y-114896329D01*
X134054280Y-114833058D01*
X134142812Y-114743914D01*
X134206319Y-114645694D01*
X134259819Y-114520685D01*
X134301716Y-114363427D01*
X134329430Y-114167559D01*
X134339549Y-113925945D01*
X134329451Y-113683341D01*
X134301834Y-113487299D01*
X134260162Y-113330484D01*
X134207060Y-113206360D01*
X134144155Y-113109319D01*
X134054811Y-113018772D01*
X133951315Y-112954657D01*
X133830858Y-112915184D01*
X133689131Y-112901346D01*
X133547274Y-112915053D01*
X133427050Y-112954090D01*
X133324104Y-113017360D01*
X133235572Y-113106510D01*
X133171997Y-113204773D01*
X133118485Y-113329615D01*
X133076614Y-113486420D01*
X133048935Y-113681465D01*
X133038834Y-113921793D01*
X132554484Y-113921793D01*
X132918911Y-112901346D01*
X132489898Y-112901346D01*
X131999459Y-114386343D01*
X131492533Y-112901346D01*
X131053995Y-112901346D01*
X130601168Y-112901346D01*
X130289637Y-112901346D01*
X130234981Y-113016371D01*
X130155415Y-113123032D01*
X130047836Y-113222526D01*
X129926332Y-113308822D01*
X129818097Y-113369766D01*
X129721284Y-113409371D01*
X129499062Y-113409371D01*
X129499062Y-112679124D01*
X134561771Y-112679124D01*
X134561771Y-115171300D01*
G37*
G36*
X145769176Y-114005369D02*
G01*
X145835181Y-114033823D01*
X145892707Y-114081650D01*
X145935753Y-114143301D01*
X145962472Y-114218063D01*
X145971964Y-114309528D01*
X145962163Y-114415213D01*
X145935457Y-114496235D01*
X145894050Y-114558168D01*
X145837481Y-114606092D01*
X145772840Y-114634492D01*
X145697435Y-114644263D01*
X145620284Y-114634168D01*
X145553518Y-114604699D01*
X145494469Y-114554748D01*
X145450927Y-114490506D01*
X145423275Y-114409034D01*
X145413258Y-114305498D01*
X145420865Y-114231356D01*
X145443594Y-114161108D01*
X145482257Y-114093374D01*
X145534981Y-114039906D01*
X145603191Y-114007258D01*
X145691939Y-113995554D01*
X145769176Y-114005369D01*
G37*
G36*
X145758840Y-113213869D02*
G01*
X145815091Y-113235717D01*
X145861933Y-113271374D01*
X145897373Y-113318461D01*
X145919182Y-113375408D01*
X145926901Y-113445031D01*
X145918957Y-113519215D01*
X145896804Y-113578249D01*
X145861322Y-113625526D01*
X145813975Y-113661083D01*
X145756632Y-113682983D01*
X145686444Y-113690739D01*
X145617119Y-113683076D01*
X145560410Y-113661427D01*
X145513520Y-113626259D01*
X145478488Y-113579411D01*
X145456557Y-113520603D01*
X145448674Y-113446374D01*
X145456441Y-113376781D01*
X145478432Y-113319613D01*
X145514253Y-113272107D01*
X145561684Y-113236183D01*
X145619438Y-113214024D01*
X145690474Y-113206161D01*
X145758840Y-113213869D01*
G37*
G36*
X146573984Y-115171300D02*
G01*
X141499062Y-115171300D01*
X141499062Y-113409371D01*
X141721284Y-113409371D01*
X141721284Y-113761081D01*
X141904683Y-113685456D01*
X142069328Y-113587702D01*
X142217219Y-113467257D01*
X142217219Y-114910000D01*
X142601168Y-114910000D01*
X142601168Y-112901346D01*
X143053995Y-112901346D01*
X143769870Y-114910000D01*
X144201570Y-114910000D01*
X144404718Y-114341158D01*
X145034804Y-114341158D01*
X145048971Y-114484528D01*
X145089511Y-114607145D01*
X145155598Y-114713251D01*
X145249249Y-114805586D01*
X145343330Y-114867044D01*
X145449050Y-114911677D01*
X145568468Y-114939407D01*
X145704152Y-114949078D01*
X145849372Y-114937297D01*
X145973931Y-114903781D01*
X146081496Y-114850001D01*
X146174808Y-114775666D01*
X146251445Y-114683581D01*
X146306224Y-114579462D01*
X146339990Y-114460953D01*
X146351762Y-114324794D01*
X146341802Y-114215448D01*
X146312827Y-114117408D01*
X146265055Y-114028405D01*
X146199979Y-113951141D01*
X146116503Y-113886102D01*
X146011653Y-113833011D01*
X146093922Y-113788070D01*
X146161179Y-113732823D01*
X146215230Y-113666803D01*
X146255217Y-113591461D01*
X146279376Y-113509297D01*
X146287648Y-113418531D01*
X146277411Y-113309254D01*
X146247768Y-113212592D01*
X146199044Y-113126013D01*
X146129867Y-113047770D01*
X146047339Y-112986255D01*
X145948296Y-112940707D01*
X145829437Y-112911709D01*
X145686566Y-112901346D01*
X145542108Y-112911768D01*
X145422607Y-112940856D01*
X145323660Y-112986411D01*
X145241800Y-113047770D01*
X145173270Y-113125931D01*
X145124949Y-113212483D01*
X145095527Y-113309176D01*
X145085362Y-113418531D01*
X145087833Y-113446374D01*
X145092959Y-113504141D01*
X145115425Y-113584166D01*
X145153018Y-113659965D01*
X145204989Y-113725984D01*
X145275957Y-113783641D01*
X145369539Y-113833011D01*
X145260992Y-113891217D01*
X145177529Y-113960995D01*
X145115404Y-114042693D01*
X145070700Y-114136068D01*
X145043889Y-114235014D01*
X145037856Y-114305498D01*
X145034804Y-114341158D01*
X144404718Y-114341158D01*
X144918911Y-112901346D01*
X144489898Y-112901346D01*
X143999459Y-114386343D01*
X143492533Y-112901346D01*
X143053995Y-112901346D01*
X142601168Y-112901346D01*
X142289637Y-112901346D01*
X142234981Y-113016371D01*
X142155415Y-113123032D01*
X142047836Y-113222526D01*
X141926332Y-113308822D01*
X141818097Y-113369766D01*
X141721284Y-113409371D01*
X141499062Y-113409371D01*
X141499062Y-112679124D01*
X146573984Y-112679124D01*
X146573984Y-115171300D01*
G37*
G36*
X155329479Y-113171300D02*
G01*
X150132924Y-113171300D01*
X150132924Y-112370833D01*
X150355146Y-112370833D01*
X150379670Y-112496640D01*
X150422462Y-112606772D01*
X150483176Y-112703718D01*
X150562752Y-112789221D01*
X150656505Y-112858225D01*
X150761410Y-112907824D01*
X150879572Y-112938433D01*
X151013747Y-112949078D01*
X151154236Y-112936919D01*
X151279158Y-112901724D01*
X151391434Y-112844116D01*
X151493196Y-112762965D01*
X151578432Y-112663709D01*
X151637902Y-112556931D01*
X151673680Y-112440806D01*
X151685903Y-112312704D01*
X151673954Y-112195048D01*
X151639470Y-112092599D01*
X151582711Y-112002149D01*
X151506896Y-111927047D01*
X151416101Y-111872097D01*
X151307449Y-111836552D01*
X151417842Y-111764201D01*
X151497798Y-111686829D01*
X151552408Y-111604068D01*
X151584783Y-111514438D01*
X151595778Y-111415478D01*
X151587135Y-111325635D01*
X151561435Y-111241052D01*
X151518048Y-111160166D01*
X151455094Y-111081842D01*
X151364122Y-111003866D01*
X151260063Y-110948003D01*
X151140351Y-110913444D01*
X151001413Y-110901346D01*
X151803995Y-110901346D01*
X152519870Y-112910000D01*
X152951570Y-112910000D01*
X153144120Y-112370833D01*
X153776500Y-112370833D01*
X153801024Y-112496640D01*
X153843816Y-112606772D01*
X153904530Y-112703718D01*
X153984106Y-112789221D01*
X154077859Y-112858225D01*
X154182764Y-112907824D01*
X154300926Y-112938433D01*
X154435101Y-112949078D01*
X154575589Y-112936919D01*
X154700512Y-112901724D01*
X154812788Y-112844116D01*
X154914549Y-112762965D01*
X154999786Y-112663709D01*
X155059256Y-112556931D01*
X155095034Y-112440806D01*
X155107257Y-112312704D01*
X155095308Y-112195048D01*
X155060823Y-112092599D01*
X155004064Y-112002149D01*
X154928249Y-111927047D01*
X154837455Y-111872097D01*
X154728803Y-111836552D01*
X154839196Y-111764201D01*
X154919152Y-111686829D01*
X154973762Y-111604068D01*
X155006137Y-111514438D01*
X155017131Y-111415478D01*
X155008489Y-111325635D01*
X154982789Y-111241052D01*
X154939402Y-111160166D01*
X154876448Y-111081842D01*
X154785475Y-111003866D01*
X154681417Y-110948003D01*
X154561705Y-110913444D01*
X154422766Y-110901346D01*
X154313951Y-110908601D01*
X154214911Y-110929674D01*
X154124180Y-110963995D01*
X154040429Y-111011927D01*
X153971814Y-111069085D01*
X153916573Y-111135819D01*
X153873513Y-111211680D01*
X153836009Y-111307758D01*
X153805198Y-111427934D01*
X154159106Y-111487529D01*
X154176451Y-111403594D01*
X154205029Y-111338914D01*
X154243736Y-111289570D01*
X154293595Y-111251812D01*
X154349016Y-111229439D01*
X154411898Y-111221793D01*
X154475869Y-111228897D01*
X154528256Y-111248979D01*
X154571632Y-111281632D01*
X154604448Y-111324830D01*
X154624669Y-111377346D01*
X154631838Y-111441856D01*
X154622324Y-111516921D01*
X154595084Y-111579077D01*
X154549773Y-111631388D01*
X154491029Y-111668740D01*
X154413689Y-111691937D01*
X154312124Y-111698555D01*
X154269748Y-112008621D01*
X154369295Y-111986417D01*
X154445969Y-111979923D01*
X154517018Y-111989388D01*
X154579537Y-112017229D01*
X154635868Y-112064797D01*
X154677947Y-112125660D01*
X154704328Y-112200982D01*
X154713782Y-112294752D01*
X154703913Y-112393896D01*
X154676364Y-112473726D01*
X154632449Y-112538384D01*
X154573481Y-112588927D01*
X154507612Y-112618543D01*
X154432292Y-112628632D01*
X154361763Y-112619828D01*
X154299639Y-112594031D01*
X154243736Y-112550352D01*
X154200332Y-112493541D01*
X154168042Y-112419466D01*
X154148115Y-112323817D01*
X153776500Y-112370833D01*
X153144120Y-112370833D01*
X153668911Y-110901346D01*
X153239898Y-110901346D01*
X152749459Y-112386343D01*
X152242533Y-110901346D01*
X151803995Y-110901346D01*
X151001413Y-110901346D01*
X150892597Y-110908601D01*
X150793557Y-110929674D01*
X150702826Y-110963995D01*
X150619075Y-111011927D01*
X150550460Y-111069085D01*
X150495219Y-111135819D01*
X150452159Y-111211680D01*
X150414655Y-111307758D01*
X150383845Y-111427934D01*
X150737752Y-111487529D01*
X150755097Y-111403594D01*
X150783675Y-111338914D01*
X150822383Y-111289570D01*
X150872241Y-111251812D01*
X150927663Y-111229439D01*
X150990544Y-111221793D01*
X151054515Y-111228897D01*
X151106903Y-111248979D01*
X151150279Y-111281632D01*
X151183094Y-111324830D01*
X151203315Y-111377346D01*
X151210484Y-111441856D01*
X151200970Y-111516921D01*
X151173730Y-111579077D01*
X151128419Y-111631388D01*
X151069675Y-111668740D01*
X150992335Y-111691937D01*
X150890771Y-111698555D01*
X150848394Y-112008621D01*
X150947941Y-111986417D01*
X151024616Y-111979923D01*
X151095664Y-111989388D01*
X151158183Y-112017229D01*
X151214515Y-112064797D01*
X151256593Y-112125660D01*
X151282974Y-112200982D01*
X151292428Y-112294752D01*
X151282559Y-112393896D01*
X151255010Y-112473726D01*
X151211095Y-112538384D01*
X151152127Y-112588927D01*
X151086258Y-112618543D01*
X151010938Y-112628632D01*
X150940409Y-112619828D01*
X150878286Y-112594031D01*
X150822383Y-112550352D01*
X150778979Y-112493541D01*
X150746688Y-112419466D01*
X150726762Y-112323817D01*
X150355146Y-112370833D01*
X150132924Y-112370833D01*
X150132924Y-110679124D01*
X155329479Y-110679124D01*
X155329479Y-113171300D01*
G37*
G36*
X174321144Y-118870607D02*
G01*
X173774651Y-118870607D01*
X174045150Y-118120293D01*
X174321144Y-118870607D01*
G37*
G36*
X177305508Y-119921300D02*
G01*
X169825649Y-119921300D01*
X169825649Y-119042554D01*
X170047871Y-119042554D01*
X170060042Y-119204784D01*
X170092467Y-119337065D01*
X170142456Y-119444801D01*
X170209071Y-119532260D01*
X170293834Y-119602834D01*
X170395628Y-119654598D01*
X170517920Y-119687381D01*
X170665317Y-119699078D01*
X170830934Y-119685925D01*
X170964578Y-119649512D01*
X171072470Y-119592711D01*
X171165218Y-119513518D01*
X171235673Y-119420088D01*
X171285572Y-119310366D01*
X171307894Y-119219094D01*
X171323406Y-119093701D01*
X171329291Y-118925806D01*
X171329291Y-117987424D01*
X171615422Y-117987424D01*
X172209787Y-117987424D01*
X172209787Y-119660000D01*
X172614131Y-119660000D01*
X173055966Y-119660000D01*
X173484979Y-119660000D01*
X173650331Y-119206685D01*
X174450837Y-119206685D01*
X174625715Y-119660000D01*
X175065718Y-119660000D01*
X174663562Y-118652742D01*
X175210188Y-118652742D01*
X175223540Y-118842904D01*
X175262809Y-119020676D01*
X175327669Y-119188244D01*
X175394302Y-119305170D01*
X175474530Y-119406360D01*
X175568935Y-119493295D01*
X175678768Y-119566821D01*
X175797409Y-119623424D01*
X175927150Y-119664699D01*
X176069597Y-119690247D01*
X176226605Y-119699078D01*
X176389817Y-119688861D01*
X176552260Y-119658066D01*
X176715090Y-119606022D01*
X176872452Y-119535925D01*
X176993086Y-119463876D01*
X177083286Y-119390478D01*
X177083286Y-118589239D01*
X176211706Y-118589239D01*
X176211706Y-118925317D01*
X176674790Y-118925317D01*
X176674790Y-119182383D01*
X176576542Y-119247657D01*
X176455582Y-119304748D01*
X176326796Y-119342812D01*
X176200715Y-119355184D01*
X176075565Y-119343384D01*
X175966593Y-119309427D01*
X175870592Y-119253929D01*
X175785380Y-119175422D01*
X175720379Y-119082278D01*
X175670957Y-118965082D01*
X175638723Y-118818532D01*
X175626988Y-118636133D01*
X175638428Y-118467874D01*
X175669998Y-118331699D01*
X175718742Y-118221790D01*
X175783426Y-118133482D01*
X175866947Y-118060355D01*
X175963191Y-118007905D01*
X176074661Y-117975388D01*
X176204867Y-117963977D01*
X176318666Y-117974220D01*
X176414734Y-118003263D01*
X176496493Y-118049951D01*
X176565731Y-118113752D01*
X176618563Y-118191144D01*
X176655739Y-118284424D01*
X177057397Y-118206266D01*
X177016919Y-118073626D01*
X176958611Y-117959240D01*
X176882535Y-117860526D01*
X176787508Y-117775788D01*
X176680285Y-117711371D01*
X176550488Y-117662720D01*
X176393747Y-117631356D01*
X176204867Y-117620083D01*
X176015535Y-117632351D01*
X175857397Y-117666639D01*
X175725296Y-117720223D01*
X175605350Y-117793313D01*
X175502293Y-117879586D01*
X175414586Y-117979622D01*
X175341346Y-118094647D01*
X175284929Y-118218472D01*
X175244008Y-118351823D01*
X175218836Y-118496059D01*
X175210188Y-118652742D01*
X174663562Y-118652742D01*
X174263747Y-117651346D01*
X173836078Y-117651346D01*
X173362547Y-118870607D01*
X173055966Y-119660000D01*
X172614131Y-119660000D01*
X172614131Y-117987424D01*
X173207152Y-117987424D01*
X173207152Y-117651346D01*
X171615422Y-117651346D01*
X171615422Y-117987424D01*
X171329291Y-117987424D01*
X171329291Y-117651346D01*
X170926290Y-117651346D01*
X170926290Y-118954626D01*
X170917772Y-119120295D01*
X170897167Y-119221035D01*
X170870237Y-119277515D01*
X170827057Y-119318784D01*
X170765511Y-119345280D01*
X170678995Y-119355184D01*
X170595830Y-119342677D01*
X170530866Y-119307143D01*
X170479570Y-119247107D01*
X170457226Y-119197027D01*
X170439410Y-119119102D01*
X170429012Y-119003475D01*
X170047871Y-119042554D01*
X169825649Y-119042554D01*
X169825649Y-117397861D01*
X177305508Y-117397861D01*
X177305508Y-119921300D01*
G37*
G36*
X165125825Y-124184456D02*
G01*
X165192379Y-124214654D01*
X165244109Y-124263136D01*
X165278353Y-124327983D01*
X165294851Y-124426995D01*
X165303265Y-124691416D01*
X165303265Y-124990614D01*
X164787424Y-124990614D01*
X164787424Y-124675052D01*
X164794385Y-124379884D01*
X164823565Y-124290883D01*
X164874131Y-124227599D01*
X164918937Y-124198381D01*
X164973333Y-124180125D01*
X165039849Y-124173621D01*
X165125825Y-124184456D01*
G37*
G36*
X166721300Y-125617302D02*
G01*
X164197861Y-125617302D01*
X164197861Y-124543893D01*
X164451346Y-124543893D01*
X164451346Y-124675052D01*
X164451346Y-125395080D01*
X166460000Y-125395080D01*
X166460000Y-124990614D01*
X165623712Y-124990614D01*
X165623712Y-124908670D01*
X165630460Y-124778795D01*
X165646304Y-124705094D01*
X165677261Y-124644142D01*
X165729469Y-124583461D01*
X165812968Y-124516386D01*
X166023538Y-124370359D01*
X166460000Y-124078000D01*
X166460000Y-123594399D01*
X166069211Y-123838886D01*
X165855540Y-123979959D01*
X165744002Y-124069207D01*
X165658240Y-124163358D01*
X165575840Y-124285729D01*
X165547620Y-124154609D01*
X165506493Y-124047291D01*
X165453800Y-123959942D01*
X165389849Y-123889567D01*
X165312508Y-123832386D01*
X165225652Y-123791234D01*
X165127488Y-123765801D01*
X165015669Y-123756943D01*
X164899199Y-123766993D01*
X164794219Y-123796245D01*
X164698520Y-123844382D01*
X164614469Y-123910058D01*
X164550822Y-123987238D01*
X164505568Y-124077390D01*
X164478552Y-124177168D01*
X164459003Y-124327400D01*
X164451346Y-124543893D01*
X164197861Y-124543893D01*
X164197861Y-121890928D01*
X164451346Y-121890928D01*
X164451346Y-123376046D01*
X166460000Y-123376046D01*
X166460000Y-121852704D01*
X166123921Y-121852704D01*
X166123921Y-122971702D01*
X165569002Y-122971702D01*
X165569002Y-121966154D01*
X165232923Y-121966154D01*
X165232923Y-122971702D01*
X164787424Y-122971702D01*
X164787424Y-121890928D01*
X164451346Y-121890928D01*
X164197861Y-121890928D01*
X164197861Y-120809176D01*
X164420083Y-120809176D01*
X164428625Y-120961965D01*
X164452651Y-121092229D01*
X164490303Y-121203262D01*
X164545511Y-121305522D01*
X164613507Y-121388060D01*
X164694856Y-121453367D01*
X164787383Y-121501881D01*
X164882945Y-121530496D01*
X164983185Y-121540073D01*
X165098861Y-121528456D01*
X165203564Y-121494409D01*
X165299833Y-121437595D01*
X165389361Y-121355669D01*
X165456341Y-121260930D01*
X165523745Y-121114400D01*
X165589762Y-120899302D01*
X165678667Y-120575558D01*
X165721306Y-120482079D01*
X165764152Y-120429989D01*
X165817834Y-120398979D01*
X165883220Y-120388346D01*
X165951451Y-120398891D01*
X166014184Y-120430796D01*
X166073729Y-120487386D01*
X166116425Y-120558099D01*
X166144652Y-120653754D01*
X166155184Y-120781821D01*
X166144066Y-120901645D01*
X166113190Y-120997679D01*
X166064448Y-121074912D01*
X165996821Y-121136198D01*
X165904191Y-121184707D01*
X165780027Y-121219016D01*
X165819106Y-121612491D01*
X165983074Y-121580324D01*
X166119283Y-121528351D01*
X166232276Y-121458071D01*
X166325422Y-121369347D01*
X166397425Y-121263980D01*
X166451580Y-121135034D01*
X166486495Y-120977676D01*
X166499078Y-120785973D01*
X166489995Y-120612741D01*
X166464789Y-120468980D01*
X166425928Y-120350122D01*
X166367602Y-120240995D01*
X166293355Y-120151617D01*
X166202201Y-120079623D01*
X166098497Y-120026135D01*
X165991464Y-119994567D01*
X165879312Y-119984002D01*
X165754707Y-119993628D01*
X165649346Y-120020804D01*
X165559842Y-120063991D01*
X165480139Y-120123694D01*
X165412448Y-120196964D01*
X165356022Y-120285275D01*
X165288334Y-120447427D01*
X165210575Y-120721737D01*
X165155389Y-120921470D01*
X165110746Y-121035803D01*
X165075387Y-121093353D01*
X165018765Y-121138798D01*
X164953387Y-121153436D01*
X164904612Y-121146219D01*
X164863777Y-121125212D01*
X164828824Y-121089200D01*
X164790365Y-121019082D01*
X164765337Y-120928851D01*
X164756161Y-120813206D01*
X164764976Y-120700988D01*
X164788468Y-120617877D01*
X164823695Y-120557117D01*
X164874631Y-120509369D01*
X164946531Y-120471807D01*
X165045345Y-120445743D01*
X165029713Y-120041277D01*
X164894426Y-120058153D01*
X164777505Y-120097298D01*
X164675567Y-120157977D01*
X164586290Y-120241434D01*
X164518005Y-120340128D01*
X164466142Y-120463815D01*
X164432363Y-120617943D01*
X164420083Y-120809176D01*
X164197861Y-120809176D01*
X164197861Y-118158897D01*
X164451346Y-118158897D01*
X164451346Y-119644016D01*
X166460000Y-119644016D01*
X166460000Y-118120673D01*
X166123921Y-118120673D01*
X166123921Y-119239672D01*
X165569002Y-119239672D01*
X165569002Y-118234124D01*
X165232923Y-118234124D01*
X165232923Y-119239672D01*
X164787424Y-119239672D01*
X164787424Y-118158897D01*
X164451346Y-118158897D01*
X164197861Y-118158897D01*
X164197861Y-117921493D01*
X164451346Y-117921493D01*
X164787424Y-117921493D01*
X164787424Y-117327128D01*
X166460000Y-117327128D01*
X166460000Y-116922784D01*
X164787424Y-116922784D01*
X164787424Y-116329762D01*
X164451346Y-116329762D01*
X164451346Y-117921493D01*
X164197861Y-117921493D01*
X164197861Y-116107540D01*
X166721300Y-116107540D01*
X166721300Y-125617302D01*
G37*
%TO.C,J202*%
D14*
X162120000Y-81310000D02*
X163500000Y-81310000D01*
X162120000Y-82690000D02*
X162120000Y-81310000D01*
X162120000Y-83960000D02*
X162120000Y-91690000D01*
X162120000Y-83960000D02*
X164880000Y-83960000D01*
X162120000Y-91690000D02*
X164880000Y-91690000D01*
X164880000Y-83960000D02*
X164880000Y-91690000D01*
%TO.C,R214*%
X159846359Y-84120000D02*
X160153641Y-84120000D01*
X159846359Y-84880000D02*
X160153641Y-84880000D01*
%TO.C,C403*%
X126690000Y-118607836D02*
X126690000Y-118392164D01*
X127410000Y-118607836D02*
X127410000Y-118392164D01*
%TO.C,C414*%
X138690000Y-118607836D02*
X138690000Y-118392164D01*
X139410000Y-118607836D02*
X139410000Y-118392164D01*
%TO.C,R201*%
X112596359Y-113307500D02*
X112903641Y-113307500D01*
X112596359Y-114067500D02*
X112903641Y-114067500D01*
%TO.C,C302*%
X116092164Y-97740000D02*
X116307836Y-97740000D01*
X116092164Y-98460000D02*
X116307836Y-98460000D01*
%TO.C,C401*%
X126040000Y-122109420D02*
X126040000Y-122390580D01*
X127060000Y-122109420D02*
X127060000Y-122390580D01*
%TO.C,Q602*%
X169630000Y-112690000D02*
X171150000Y-112690000D01*
X169630000Y-112740000D02*
X169630000Y-112690000D01*
X169630000Y-114640000D02*
X169630000Y-113860000D01*
X169630000Y-115810000D02*
X169630000Y-115760000D01*
X171150000Y-112690000D02*
X171150000Y-113690000D01*
X171150000Y-114810000D02*
X171150000Y-115810000D01*
X171150000Y-115810000D02*
X169630000Y-115810000D01*
X169090000Y-113870000D02*
X169330000Y-114200000D01*
X168850000Y-114200000D01*
X169090000Y-113870000D01*
G36*
X169330000Y-114200000D02*
G01*
X168850000Y-114200000D01*
X169090000Y-113870000D01*
X169330000Y-114200000D01*
G37*
%TO.C,R210*%
X156120000Y-81096359D02*
X156120000Y-81403641D01*
X156880000Y-81096359D02*
X156880000Y-81403641D01*
%TO.C,U401*%
D15*
X131825000Y-121250000D02*
G75*
G02*
X131575000Y-121250000I-125000J0D01*
G01*
X131575000Y-121250000D02*
G75*
G02*
X131825000Y-121250000I125000J0D01*
G01*
%TO.C,C409*%
D14*
X152640580Y-116240000D02*
X152359420Y-116240000D01*
X152640580Y-117260000D02*
X152359420Y-117260000D01*
%TO.C,U301*%
D16*
X118300000Y-93000000D02*
X118300000Y-96500000D01*
X118300000Y-93000000D02*
X120300000Y-93000000D01*
X118300000Y-107000000D02*
X118300000Y-103500000D01*
X118300000Y-107000000D02*
X120300000Y-107000000D01*
X126300000Y-93000000D02*
X124300000Y-93000000D01*
X126300000Y-93000000D02*
X126300000Y-96500000D01*
X126300000Y-107000000D02*
X124300000Y-107000000D01*
X126300000Y-107000000D02*
X126300000Y-103500000D01*
D11*
X117900000Y-94000000D02*
G75*
G02*
X117700000Y-94000000I-100000J0D01*
G01*
X117700000Y-94000000D02*
G75*
G02*
X117900000Y-94000000I100000J0D01*
G01*
%TO.C,C437*%
D14*
X154490000Y-115109420D02*
X154490000Y-115390580D01*
X155510000Y-115109420D02*
X155510000Y-115390580D01*
%TO.C,C426*%
X142440580Y-122490000D02*
X142159420Y-122490000D01*
X142440580Y-123510000D02*
X142159420Y-123510000D01*
%TO.C,R402*%
X104762742Y-98727500D02*
X105237258Y-98727500D01*
X104762742Y-99772500D02*
X105237258Y-99772500D01*
%TO.C,R610*%
X176420000Y-110346359D02*
X176420000Y-110653641D01*
X177180000Y-110346359D02*
X177180000Y-110653641D01*
%TO.C,R207*%
X153877500Y-81012742D02*
X153877500Y-81487258D01*
X154922500Y-81012742D02*
X154922500Y-81487258D01*
%TO.C,R606*%
X172236359Y-112620000D02*
X172543641Y-112620000D01*
X172236359Y-113380000D02*
X172543641Y-113380000D01*
%TO.C,U403*%
D17*
X153719200Y-120177800D02*
G75*
G02*
X153719200Y-119822200I227576J177800D01*
G01*
X153719200Y-120177800D02*
G75*
G02*
X153719200Y-119822200I227576J177800D01*
G01*
%TO.C,Q201*%
D14*
X109940000Y-115740000D02*
X110940000Y-115740000D01*
X109940000Y-117260000D02*
X109940000Y-115740000D01*
X109990000Y-117260000D02*
X109940000Y-117260000D01*
X111890000Y-117260000D02*
X111110000Y-117260000D01*
X112060000Y-115740000D02*
X113060000Y-115740000D01*
X113060000Y-115740000D02*
X113060000Y-117260000D01*
X113060000Y-117260000D02*
X113010000Y-117260000D01*
X111120000Y-117800000D02*
X111450000Y-117560000D01*
X111450000Y-118040000D01*
X111120000Y-117800000D01*
G36*
X111450000Y-118040000D02*
G01*
X111120000Y-117800000D01*
X111450000Y-117560000D01*
X111450000Y-118040000D01*
G37*
%TO.C,L403*%
D16*
X144700000Y-119050000D02*
X145230000Y-119050000D01*
X144700000Y-123450000D02*
X144700000Y-119050000D01*
X144700000Y-123450000D02*
X145230000Y-123450000D01*
X148370000Y-119050000D02*
X148900000Y-119050000D01*
X148900000Y-119050000D02*
X148900000Y-123450000D01*
X148900000Y-123450000D02*
X148370000Y-123450000D01*
%TO.C,R601*%
D14*
X167543641Y-111370000D02*
X167236359Y-111370000D01*
X167543641Y-112130000D02*
X167236359Y-112130000D01*
%TO.C,R209*%
X157120000Y-81096359D02*
X157120000Y-81403641D01*
X157880000Y-81096359D02*
X157880000Y-81403641D01*
%TO.C,D602*%
X169140000Y-86850000D02*
X169140000Y-90150000D01*
X169140000Y-86850000D02*
X174650000Y-86850000D01*
X169140000Y-90150000D02*
X174650000Y-90150000D01*
%TO.C,R206*%
X149987258Y-113977500D02*
X149512742Y-113977500D01*
X149987258Y-115022500D02*
X149512742Y-115022500D01*
%TO.C,U201*%
X144390000Y-106610000D02*
X144390000Y-94390000D01*
X145390000Y-93390000D02*
X157610000Y-93390000D01*
X157610000Y-93390000D02*
X157610000Y-106610000D01*
X157610000Y-106610000D02*
X144390000Y-106610000D01*
X144390000Y-93390000D02*
X143890000Y-93390000D01*
X144390000Y-92890000D01*
X144390000Y-93390000D01*
G36*
X144390000Y-93390000D02*
G01*
X143890000Y-93390000D01*
X144390000Y-92890000D01*
X144390000Y-93390000D01*
G37*
%TO.C,U602*%
X164250000Y-95090000D02*
X165250000Y-95090000D01*
X164250000Y-97910000D02*
X165040000Y-97910000D01*
X165370000Y-97910000D02*
X165650000Y-97910000D01*
X165370000Y-98190000D01*
X165370000Y-97910000D01*
G36*
X165370000Y-98190000D02*
G01*
X165370000Y-97910000D01*
X165650000Y-97910000D01*
X165370000Y-98190000D01*
G37*
%TO.C,U402*%
D15*
X119825000Y-121250000D02*
G75*
G02*
X119575000Y-121250000I-125000J0D01*
G01*
X119575000Y-121250000D02*
G75*
G02*
X119825000Y-121250000I125000J0D01*
G01*
%TO.C,L401*%
D16*
X132700000Y-119050000D02*
X133230000Y-119050000D01*
X132700000Y-123450000D02*
X132700000Y-119050000D01*
X132700000Y-123450000D02*
X133230000Y-123450000D01*
X136370000Y-119050000D02*
X136900000Y-119050000D01*
X136900000Y-119050000D02*
X136900000Y-123450000D01*
X136900000Y-123450000D02*
X136370000Y-123450000D01*
%TO.C,C701*%
D14*
X105390580Y-96240000D02*
X105109420Y-96240000D01*
X105390580Y-97260000D02*
X105109420Y-97260000D01*
%TO.C,R212*%
X160153641Y-89120000D02*
X159846359Y-89120000D01*
X160153641Y-89880000D02*
X159846359Y-89880000D01*
%TO.C,SW901*%
X159750000Y-117550000D02*
X159750000Y-123950000D01*
X159750000Y-123950000D02*
X160950000Y-123950000D01*
X160950000Y-117550000D02*
X159750000Y-117550000D01*
X162550000Y-123950000D02*
X163750000Y-123950000D01*
X163750000Y-117550000D02*
X162550000Y-117550000D01*
X163750000Y-123950000D02*
X163750000Y-117550000D01*
%TO.C,U405*%
D15*
X143825000Y-121250000D02*
G75*
G02*
X143575000Y-121250000I-125000J0D01*
G01*
X143575000Y-121250000D02*
G75*
G02*
X143825000Y-121250000I125000J0D01*
G01*
%TO.C,C402*%
D14*
X114040000Y-122109420D02*
X114040000Y-122390580D01*
X115060000Y-122109420D02*
X115060000Y-122390580D01*
%TO.C,Q603*%
X173840000Y-112940000D02*
X174840000Y-112940000D01*
X173840000Y-114460000D02*
X173840000Y-112940000D01*
X173890000Y-114460000D02*
X173840000Y-114460000D01*
X175790000Y-114460000D02*
X175010000Y-114460000D01*
X175960000Y-112940000D02*
X176960000Y-112940000D01*
X176960000Y-112940000D02*
X176960000Y-114460000D01*
X176960000Y-114460000D02*
X176910000Y-114460000D01*
X175020000Y-115000000D02*
X175350000Y-114760000D01*
X175350000Y-115240000D01*
X175020000Y-115000000D01*
G36*
X175350000Y-115240000D02*
G01*
X175020000Y-115000000D01*
X175350000Y-114760000D01*
X175350000Y-115240000D01*
G37*
%TO.C,J501*%
X114695000Y-72155000D02*
X165715000Y-72155000D01*
X114695000Y-74805000D02*
X114695000Y-72155000D01*
X114695000Y-77455000D02*
X114695000Y-76075000D01*
X116075000Y-77455000D02*
X114695000Y-77455000D01*
X117345000Y-74805000D02*
X114695000Y-74805000D01*
X117345000Y-77455000D02*
X117345000Y-74805000D01*
X117345000Y-77455000D02*
X165715000Y-77455000D01*
X165715000Y-77455000D02*
X165715000Y-72155000D01*
%TO.C,R401*%
X105012742Y-110227500D02*
X105487258Y-110227500D01*
X105012742Y-111272500D02*
X105487258Y-111272500D01*
%TO.C,D202*%
X151215000Y-113765000D02*
X151215000Y-115235000D01*
X151215000Y-115235000D02*
X153500000Y-115235000D01*
X153500000Y-113765000D02*
X151215000Y-113765000D01*
%TO.C,R908*%
X124903641Y-83620000D02*
X124596359Y-83620000D01*
X124903641Y-84380000D02*
X124596359Y-84380000D01*
%TO.C,R404*%
X114703641Y-119620000D02*
X114396359Y-119620000D01*
X114703641Y-120380000D02*
X114396359Y-120380000D01*
%TO.C,U202*%
X150740000Y-82990000D02*
X156260000Y-82990000D01*
X150740000Y-83260000D02*
X150740000Y-82990000D01*
X150740000Y-88510000D02*
X150740000Y-88240000D01*
X156260000Y-82990000D02*
X156260000Y-83260000D01*
X156260000Y-88240000D02*
X156260000Y-88510000D01*
X156260000Y-88510000D02*
X150740000Y-88510000D01*
X149910000Y-83250000D02*
X149570000Y-82780000D01*
X150250000Y-82780000D01*
X149910000Y-83250000D01*
G36*
X149910000Y-83250000D02*
G01*
X149570000Y-82780000D01*
X150250000Y-82780000D01*
X149910000Y-83250000D01*
G37*
%TO.C,J701*%
D18*
X101060000Y-94920000D02*
X101050000Y-91910000D01*
X101060000Y-94920000D02*
X101050000Y-94910000D01*
X101770000Y-80120000D02*
X101770000Y-85280000D01*
X101770000Y-80120000D02*
X104119000Y-80120000D01*
X101770000Y-85280000D02*
X101770000Y-87360000D01*
X104119000Y-94920000D02*
X101060000Y-94920000D01*
X106781000Y-80120000D02*
X114069000Y-80120000D01*
X114030000Y-94920000D02*
X106781000Y-94920000D01*
X115560000Y-93319000D02*
X115560000Y-90331000D01*
X101770000Y-87360000D02*
G75*
G02*
X101049902Y-91910251I-16530993J284000D01*
G01*
%TO.C,R905*%
D14*
X160477500Y-114737258D02*
X160477500Y-114262742D01*
X161522500Y-114737258D02*
X161522500Y-114262742D01*
%TO.C,R609*%
X173867500Y-110262742D02*
X173867500Y-110737258D01*
X174912500Y-110262742D02*
X174912500Y-110737258D01*
%TO.C,R604*%
X167236359Y-113870000D02*
X167543641Y-113870000D01*
X167236359Y-114630000D02*
X167543641Y-114630000D01*
%TO.C,C408*%
X118440580Y-122490000D02*
X118159420Y-122490000D01*
X118440580Y-123510000D02*
X118159420Y-123510000D01*
%TO.C,C452*%
X147859420Y-116240000D02*
X148140580Y-116240000D01*
X147859420Y-117260000D02*
X148140580Y-117260000D01*
%TO.C,R410*%
X144920000Y-116346359D02*
X144920000Y-116653641D01*
X145680000Y-116346359D02*
X145680000Y-116653641D01*
%TO.C,C418*%
X152640580Y-122740000D02*
X152359420Y-122740000D01*
X152640580Y-123760000D02*
X152359420Y-123760000D01*
%TO.C,R208*%
X155120000Y-81096359D02*
X155120000Y-81403641D01*
X155880000Y-81096359D02*
X155880000Y-81403641D01*
%TO.C,R602*%
X167543641Y-112870000D02*
X167236359Y-112870000D01*
X167543641Y-113630000D02*
X167236359Y-113630000D01*
%TO.C,Q601*%
X169630000Y-109190000D02*
X171150000Y-109190000D01*
X169630000Y-109240000D02*
X169630000Y-109190000D01*
X169630000Y-111140000D02*
X169630000Y-110360000D01*
X169630000Y-112310000D02*
X169630000Y-112260000D01*
X171150000Y-109190000D02*
X171150000Y-110190000D01*
X171150000Y-111310000D02*
X171150000Y-112310000D01*
X171150000Y-112310000D02*
X169630000Y-112310000D01*
X169090000Y-110370000D02*
X169330000Y-110700000D01*
X168850000Y-110700000D01*
X169090000Y-110370000D01*
G36*
X169330000Y-110700000D02*
G01*
X168850000Y-110700000D01*
X169090000Y-110370000D01*
X169330000Y-110700000D01*
G37*
%TO.C,R409*%
X138703641Y-119620000D02*
X138396359Y-119620000D01*
X138703641Y-120380000D02*
X138396359Y-120380000D01*
%TO.C,J602*%
D18*
X169020000Y-93355000D02*
X169020000Y-94869000D01*
X169020000Y-104631000D02*
X169020000Y-106145000D01*
X175051000Y-92250000D02*
X172249000Y-92250000D01*
X175051000Y-107250000D02*
X172249000Y-107250000D01*
X180520000Y-107250000D02*
X177749000Y-107250000D01*
X180900000Y-92250000D02*
X177749000Y-92250000D01*
X180900000Y-92250000D02*
X180900000Y-107250000D01*
D19*
X168600000Y-94370000D02*
G75*
G02*
X168100000Y-94370000I-250000J0D01*
G01*
X168100000Y-94370000D02*
G75*
G02*
X168600000Y-94370000I250000J0D01*
G01*
%TO.C,R211*%
D14*
X160153641Y-85120000D02*
X159846359Y-85120000D01*
X160153641Y-85880000D02*
X159846359Y-85880000D01*
%TO.C,R406*%
X131670000Y-116653641D02*
X131670000Y-116346359D01*
X132430000Y-116653641D02*
X132430000Y-116346359D01*
%TO.C,R403*%
X126703641Y-119620000D02*
X126396359Y-119620000D01*
X126703641Y-120380000D02*
X126396359Y-120380000D01*
%TO.C,U601*%
X164250000Y-98090000D02*
X165250000Y-98090000D01*
X164250000Y-100910000D02*
X165040000Y-100910000D01*
X165370000Y-100910000D02*
X165650000Y-100910000D01*
X165370000Y-101190000D01*
X165370000Y-100910000D01*
G36*
X165370000Y-101190000D02*
G01*
X165370000Y-100910000D01*
X165650000Y-100910000D01*
X165370000Y-101190000D01*
G37*
%TO.C,R407*%
X120920000Y-116346359D02*
X120920000Y-116653641D01*
X121680000Y-116346359D02*
X121680000Y-116653641D01*
%TO.C,R903*%
X160153641Y-88120000D02*
X159846359Y-88120000D01*
X160153641Y-88880000D02*
X159846359Y-88880000D01*
%TO.C,R215*%
X160153641Y-87140000D02*
X159846359Y-87140000D01*
X160153641Y-87900000D02*
X159846359Y-87900000D01*
%TO.C,L402*%
D16*
X120700000Y-119050000D02*
X121230000Y-119050000D01*
X120700000Y-123450000D02*
X120700000Y-119050000D01*
X120700000Y-123450000D02*
X121230000Y-123450000D01*
X124370000Y-119050000D02*
X124900000Y-119050000D01*
X124900000Y-119050000D02*
X124900000Y-123450000D01*
X124900000Y-123450000D02*
X124370000Y-123450000D01*
%TO.C,C203*%
D14*
X158140000Y-81357836D02*
X158140000Y-81142164D01*
X158860000Y-81357836D02*
X158860000Y-81142164D01*
%TO.C,C434*%
X156590000Y-120461252D02*
X156590000Y-119038748D01*
X158410000Y-120461252D02*
X158410000Y-119038748D01*
%TO.C,F601*%
X176440000Y-85258578D02*
X176440000Y-84741422D01*
X177860000Y-85258578D02*
X177860000Y-84741422D01*
%TO.C,C404*%
X114690000Y-118607836D02*
X114690000Y-118392164D01*
X115410000Y-118607836D02*
X115410000Y-118392164D01*
%TO.C,R408*%
X119670000Y-116653641D02*
X119670000Y-116346359D01*
X120430000Y-116653641D02*
X120430000Y-116346359D01*
%TO.C,C417*%
X154390000Y-120107836D02*
X154390000Y-119892164D01*
X155110000Y-120107836D02*
X155110000Y-119892164D01*
%TO.C,C406*%
X117427836Y-116640000D02*
X117212164Y-116640000D01*
X117427836Y-117360000D02*
X117212164Y-117360000D01*
%TO.C,C416*%
X141427836Y-116640000D02*
X141212164Y-116640000D01*
X141427836Y-117360000D02*
X141212164Y-117360000D01*
%TO.C,R607*%
X176627500Y-88262742D02*
X176627500Y-88737258D01*
X177672500Y-88262742D02*
X177672500Y-88737258D01*
%TO.C,C431*%
X157459420Y-122740000D02*
X157740580Y-122740000D01*
X157459420Y-123760000D02*
X157740580Y-123760000D01*
%TO.C,C420*%
X136059420Y-116240000D02*
X136340580Y-116240000D01*
X136059420Y-117260000D02*
X136340580Y-117260000D01*
%TO.C,R216*%
X160163641Y-86120000D02*
X159856359Y-86120000D01*
X160163641Y-86880000D02*
X159856359Y-86880000D01*
%TO.C,C405*%
X129427836Y-116640000D02*
X129212164Y-116640000D01*
X129427836Y-117360000D02*
X129212164Y-117360000D01*
%TO.C,R803*%
X135163641Y-83592500D02*
X134856359Y-83592500D01*
X135163641Y-84352500D02*
X134856359Y-84352500D01*
%TO.C,C439*%
X155990000Y-115109420D02*
X155990000Y-115390580D01*
X157010000Y-115109420D02*
X157010000Y-115390580D01*
%TO.C,D601*%
X176160000Y-83350000D02*
X170650000Y-83350000D01*
X176160000Y-86650000D02*
X170650000Y-86650000D01*
X176160000Y-86650000D02*
X176160000Y-83350000D01*
%TO.C,U901*%
X139340000Y-82940000D02*
X139340000Y-86560000D01*
X139340000Y-86560000D02*
X143660000Y-86560000D01*
%TO.C,C436*%
X123090000Y-114538748D02*
X123090000Y-115961252D01*
X124910000Y-114538748D02*
X124910000Y-115961252D01*
%TO.C,R902*%
X143777500Y-84562742D02*
X143777500Y-85037258D01*
X144822500Y-84562742D02*
X144822500Y-85037258D01*
%TO.C,C411*%
X138040000Y-122109420D02*
X138040000Y-122390580D01*
X139060000Y-122109420D02*
X139060000Y-122390580D01*
%TO.C,R213*%
X159846359Y-83120000D02*
X160153641Y-83120000D01*
X159846359Y-83880000D02*
X160153641Y-83880000D01*
%TO.C,J401*%
X104100000Y-100330000D02*
X105800000Y-100330000D01*
X104100000Y-109670000D02*
X105800000Y-109670000D01*
%TO.C,C440*%
X157490000Y-115109420D02*
X157490000Y-115390580D01*
X158510000Y-115109420D02*
X158510000Y-115390580D01*
%TO.C,R405*%
X132920000Y-116346359D02*
X132920000Y-116653641D01*
X133680000Y-116346359D02*
X133680000Y-116653641D01*
%TO.C,R605*%
X172236359Y-111620000D02*
X172543641Y-111620000D01*
X172236359Y-112380000D02*
X172543641Y-112380000D01*
%TO.C,D902*%
X123265000Y-81765000D02*
X123265000Y-83235000D01*
X123265000Y-83235000D02*
X125550000Y-83235000D01*
X125550000Y-81765000D02*
X123265000Y-81765000D01*
%TO.C,C901*%
X141392164Y-86890000D02*
X141607836Y-86890000D01*
X141392164Y-87610000D02*
X141607836Y-87610000D01*
%TO.C,D801*%
X133525000Y-81737500D02*
X133525000Y-83207500D01*
X133525000Y-83207500D02*
X135810000Y-83207500D01*
X135810000Y-81737500D02*
X133525000Y-81737500D01*
%TO.C,R603*%
X167236359Y-110370000D02*
X167543641Y-110370000D01*
X167236359Y-111130000D02*
X167543641Y-111130000D01*
%TO.C,R904*%
X159227500Y-114737258D02*
X159227500Y-114262742D01*
X160272500Y-114737258D02*
X160272500Y-114262742D01*
%TO.C,D201*%
X109200000Y-113422500D02*
X111485000Y-113422500D01*
X111485000Y-111952500D02*
X109200000Y-111952500D01*
X111485000Y-113422500D02*
X111485000Y-111952500D01*
%TO.C,R203*%
X112596359Y-112307500D02*
X112903641Y-112307500D01*
X112596359Y-113067500D02*
X112903641Y-113067500D01*
%TO.C,J203*%
X167390000Y-120140000D02*
X173610000Y-120140000D01*
X167390000Y-122250000D02*
X167390000Y-120140000D01*
X167390000Y-124360000D02*
X167390000Y-123250000D01*
X168500000Y-124360000D02*
X167390000Y-124360000D01*
X169500000Y-122250000D02*
X167390000Y-122250000D01*
X169500000Y-124360000D02*
X169500000Y-122250000D01*
X169500000Y-124360000D02*
X173610000Y-124360000D01*
X173610000Y-124360000D02*
X173610000Y-120140000D01*
%TO.C,C407*%
X130440580Y-122490000D02*
X130159420Y-122490000D01*
X130440580Y-123510000D02*
X130159420Y-123510000D01*
%TO.C,R608*%
X175067500Y-110262742D02*
X175067500Y-110737258D01*
X176112500Y-110262742D02*
X176112500Y-110737258D01*
%TO.C,R411*%
X143670000Y-116653641D02*
X143670000Y-116346359D01*
X144430000Y-116653641D02*
X144430000Y-116346359D01*
%TO.C,R202*%
X110237258Y-113665000D02*
X109762742Y-113665000D01*
X110237258Y-114710000D02*
X109762742Y-114710000D01*
%TO.C,C301*%
X116307836Y-96840000D02*
X116092164Y-96840000D01*
X116307836Y-97560000D02*
X116092164Y-97560000D01*
%TD*%
M02*
